<svg xmlns="http://www.w3.org/2000/svg" viewBox="0 0 862.58 183.14"><defs><style>.cls-1{fill:#fff;}.cls-2{fill:#163762;}</style></defs><g id="Camada_2" data-name="Camada 2"><g id="Camada_1-2" data-name="Camada 1"><path class="cls-1" d="M153.19,125.48Q126.42,64.49,99.85,3.4C98.77.92,97.49.28,95,.3,83.12.44,71.27.5,59.44.26c-2.92-.05-4,1.12-5,3.46Q34,50.64,13.49,97.5C9.05,107.66,4.63,117.82,0,128.45c14.47,0,28.27,0,42.08.06,2.17,0,2.45-1.45,3-2.75,2.24-5.71,4.44-11.43,6.52-17.18.63-1.75,1.39-2.53,3.44-2.52q21.76.15,43.53,0c2.2,0,3,.86,3.69,2.72,2.05,5.65,4.33,11.21,6.36,16.86.72,2,1.63,2.9,3.94,2.87q19.32-.18,38.65,0C153.77,128.51,154.35,128.1,153.19,125.48Zm-66-50.34c-7,0-13.9,0-20.85,0-1.35,0-1.91-.3-1.31-1.82,3.91-10,7.74-20,11.78-30.38,4,10.39,7.78,20.3,11.67,30.18C89.13,74.67,88.93,75.15,87.23,75.14Z"/><path class="cls-1" d="M400.54,33.51c-1.37,1-2.92.44-4.37.45-9.75.06-19.5.13-29.25,0-2.71,0-3.45.68-3.44,3.42.1,29.14,0,58.27.14,87.41,0,3.12-.79,3.82-3.82,3.78q-17.93-.28-35.86,0c-2.84,0-3.68-.6-3.67-3.57.13-29,0-58,.16-87.06,0-3.24-.87-4-4-4-10.09.2-20.19,0-30.29.12-2.43,0-3.45-.38-3.38-3.18.2-9.16.17-18.34,0-27.5,0-2.54.82-3,3.17-3Q341.81.42,397.7.38c1,0,2.1-.48,2.91.55C401,11.79,401.15,22.65,400.54,33.51Z"/><path class="cls-1" d="M170.85,58.73c6.15,0,12.31.1,18.45,0,2.27-.06,2.91.58,2.92,2.87,0,7-.65,14.14,1.35,21.09,2.71,9.41,8.84,13.9,19.08,13.67,8.91-.21,15.22-5.65,17.25-14.7,1.46-6.53,1.4-13.14,1.24-19.75-.06-2.27.34-3.23,3-3.2,12.3.15,24.6.05,36.91.09,1.09,0,2.69-.7,2.71,1.55.15,12.31.17,24.63-4.36,36.36-6.89,17.87-20.18,28.59-38.59,32.6-15.59,3.41-31.33,3.37-46.56-2.19-20.07-7.32-31-22.19-34.43-42.95-1.27-7.61-.81-15.27-1-22.92-.05-2,.58-2.55,2.55-2.52C157.85,58.8,164.35,58.73,170.85,58.73Z"/><path class="cls-1" d="M760.27.94c-2-1.88-6-.29-9.07-.63-2.72-.3-3.28.8-3.26,3.32.13,11.62.06,23.23.07,34.84V50c-1.8-2.15-2.94-3.7-4.27-5.08-11.8-12.36-26.43-15.43-42.63-12.4C687.55,35,677,42.2,670.07,54.29c-5.73,9.91-7.19,20.6-6.24,31.85,3.2,37.75,43,52.66,70.32,37.54,5.66-3.14,10-7.67,14.31-13.79,0,3.88-.08,6.72,0,9.56s-1.26,6.57.53,8.4,5.52.25,8.36.63,3.62-.66,3.61-3.56c-.1-38.32,0-76.63-.1-114.95C760.89,6.88,762.26,2.85,760.27.94ZM710.89,117.78c-20.6-.75-34.35-16.35-34.2-37.85.16-22,15.08-37.18,36-37.05s35.51,15.75,35.41,38C748.05,101.36,734,118.62,710.89,117.78Z"/><path class="cls-1" d="M839.89,38.26c-16.13-9.75-33.15-9.59-49.43-.18-24.42,14.14-27.52,47.62-16,67.49,8.25,14.16,21,21.56,36.94,23.45,14,1.65,27.21-.9,38.66-9.78,6.36-4.93,6.33-5,1.12-10.87-.61-.7-1.26-1.36-1.82-2.1-.79-1-1.31-.75-2.13.07-10.06,10-22.29,12.88-36,10.87-15.71-2.31-28.07-14.82-29.83-30-.3-2.64.59-2.82,2.69-2.81,12.42.07,24.84,0,37.25,0h37.26c1.68,0,3.11.24,3.15-2.35C862.08,63.62,856.06,48.06,839.89,38.26Zm3,36.43H781.31a33.3,33.3,0,0,1,30.65-32c17-1.48,31.23,8.13,36.09,24.94C850.08,74.7,850.08,74.69,842.84,74.69Z"/><path class="cls-1" d="M643.67,112.42c-8.2,11.24-19.26,16.51-32.43,17-20.27.76-39.12-8.24-42.16-33a77.42,77.42,0,0,1-.59-9.37c0-17.3,0-34.59,0-51.89,0-2.16.39-3.18,2.81-3a41.5,41.5,0,0,0,7.31,0c2.46-.22,3.09.63,3.07,3.07-.11,16.71,0,33.43-.08,50.15a49.39,49.39,0,0,0,1.18,12.08c2.64,10.7,9.19,17.47,20.2,19.41,12.62,2.21,24,.12,32.8-10.12,5.1-6,7.19-13.24,7.3-20.91.23-16.71.19-33.44.05-50.15,0-3,.85-3.88,3.68-3.52,3.06.39,7.18-1.33,9,.74,1.51,1.76.5,5.74.5,8.74,0,27.75,0,55.5.08,83.24,0,2.91-.7,3.91-3.62,3.6s-6.61.85-8.39-.59-.46-5.43-.6-8.29C643.57,117.22,643.67,114.82,643.67,112.42Z"/><path class="cls-1" d="M400.54,33.51q0-16.29.07-32.58c.91,4.46.28,9,.38,13.44.12,5.1.14,10.22,0,15.32-.07,2.2.62,2.67,2.73,2.57a120.69,120.69,0,0,1,12.18,0c2.38.11,2.89-.75,2.82-2.95-.15-5.1,0-10.21-.08-15.31,0-2,.29-3,2.61-2.82,3.34.26,7.71-1,9.78.62s.53,6.31.69,9.63a51.53,51.53,0,0,1,0,7.66c-.29,2.77.85,3.21,3.32,3.17,7.65-.16,15.31,0,23-.11,2.3,0,3.21.39,3.18,3-.08,8,0,8-7.88,8-6,0-12.08.14-18.11,0-2.65-.09-3.52.56-3.49,3.39.14,17.75.34,35.52,0,53.27-.35,18.23,14.2,20.87,25.88,16.63,1.86-.68,3.38-3.38,5.3-2.16,1.43.89,1.64,3.51,2.79,5.07,2.17,2.92.84,4.49-1.77,5.83-10.78,5.52-21.83,6.2-32.66.73-9-4.54-12.34-13-12.46-22.53-.24-18.91-.13-37.83,0-56.74,0-2.65-.54-3.7-3.39-3.5-3.81.26-7.66,0-11.48.09-1.86.06-2.28-.66-2.43-2.41C401.2,38.36,402.54,35.71,400.54,33.51Z"/><path class="cls-1" d="M514.78,75c0-9.53-.12-19.05.08-28.57.06-2.87-.89-3.5-3.51-3.36-3.82.2-7.66,0-11.49.08-1.8.05-2.35-.53-2.42-2.36-.36-8.63-.42-8.57,8.26-8.66,3,0,6.91,1.33,8.61-.66,1.45-1.7.44-5.53.47-8.42,0-3.25.09-6.5,0-9.75-.06-1.68.51-2.22,2.17-2.15,2.9.12,5.81.13,8.71,0,1.87-.08,2.38.61,2.35,2.41-.1,5,.21,10-.13,15-.22,3.27,1,3.78,3.87,3.7,7.54-.2,15.1,0,22.64-.12,2.1,0,2.76.5,2.78,2.69.09,8.32.18,8.32-8,8.32-5.92,0-11.85.12-17.77-.06-2.62-.08-3.54.51-3.51,3.37.14,17.65.11,35.3.06,53,0,6.65.72,13,7.28,16.54,7,3.72,14.22,2.85,20.88-1,2.4-1.37,3.3-1.33,4.09,1.17a13.15,13.15,0,0,0,.71,1.58c2.76,5.62,2.83,5.76-2.8,8.34-9.64,4.42-19.6,4.84-29.28.57-9.93-4.39-13.69-13.08-13.95-23.4-.23-9.4,0-18.81,0-28.21Z"/><path class="cls-1" d="M251.89.12a21.51,21.51,0,0,1,21.8,21.4,21.81,21.81,0,0,1-21.6,21.7A21.55,21.55,0,0,1,230.42,21.7,21.23,21.23,0,0,1,251.89.12Z"/><path class="cls-1" d="M170.38.12A21.57,21.57,0,0,1,192.14,21.6c.07,11.74-9.78,21.55-21.71,21.62a21.53,21.53,0,0,1-21.6-21.59A21.25,21.25,0,0,1,170.38.12Z"/><path class="cls-1" d="M472.85,80c0-14.85,0-29.7-.05-44.56,0-2.43.32-3.67,3.14-3.3,3.18.42,7.48-1.35,9.31.73,1.58,1.78.49,6,.5,9.08,0,27.61,0,55.23.07,82.85,0,2.75-.44,4.09-3.52,3.66s-7.18,1.32-8.95-.73c-1.51-1.75-.49-5.74-.49-8.74Q472.83,99.51,472.85,80Z"/><path class="cls-1" d="M479.83.13A9,9,0,0,1,489,9a9.32,9.32,0,0,1-9.76,9.46A9.07,9.07,0,0,1,470,9C470.08,3.62,474.08,0,479.83.13Z"/><path class="cls-2" d="M379.4,183.14q-7.2,0-10.28-5.85T366,161.94a85.05,85.05,0,0,1,.73-10.76q.72-5.75,2.09-12c.21-.83.62-2.49,1.25-5s1.22-5.29,1.78-8.46a53.33,53.33,0,0,0,.83-9.13,20.15,20.15,0,0,0-1.1-7.05A5.31,5.31,0,0,0,367.5,106a8.13,8.13,0,0,0-1.88-.2,10,10,0,0,0-6.89,2.87,28,28,0,0,0-5.64,7.57,68.49,68.49,0,0,0-4.39,10.28q-1.87,5.6-3.18,11.13t-2,10.07c-.49,3-.83,5.42-1,7.16q-.42,4.17-.84,9.29t-.94,11.17a3.91,3.91,0,0,1-2,2.77,6.59,6.59,0,0,1-3.76,1.31h-.32a6.67,6.67,0,0,1-3-.68c-.91-.46-1.36-1-1.36-1.72q.84-4.18,1.62-10.71t1.2-13.84q.21-3.65.52-8.66t.31-10.45a123.51,123.51,0,0,0-.62-12.47,63,63,0,0,0-2.2-11.54,22.65,22.65,0,0,0-4.49-8.67q-2.61-2.92-5.43-2.93a5.75,5.75,0,0,0-4.38,2.3,14.42,14.42,0,0,0-2.82,7c-.07.7-.16,1.44-.26,2.24a19,19,0,0,0-.16,2.56,50.25,50.25,0,0,0,1.2,10.44A60.45,60.45,0,0,0,318,132.91a28.22,28.22,0,0,0,4.8,8,.7.7,0,0,1,.21.52c0,.21-.21.31-.62.31a5.92,5.92,0,0,1-2.09-.57,6.79,6.79,0,0,1-2.51-1.93,37.08,37.08,0,0,1-7.1-12.38,42.33,42.33,0,0,1-2.51-14,30.48,30.48,0,0,1,1.21-8.67,16.19,16.19,0,0,1,3.81-6.79,10.26,10.26,0,0,1,3.65-2.56,11,11,0,0,1,4.07-.78,13.43,13.43,0,0,1,6.27,1.57,15.72,15.72,0,0,1,5,4,36.34,36.34,0,0,1,5.49,9.77,59.35,59.35,0,0,1,3.13,11.69,74.78,74.78,0,0,1,1,12c0,.91,0,1.81-.05,2.72s-.09,1.81-.16,2.71a123.52,123.52,0,0,1,4.18-13.94A64.82,64.82,0,0,1,351.26,113a29,29,0,0,1,6.53-7.73q5.64-4.28,10.75-4.28a11.09,11.09,0,0,1,9.25,4.81q3.6,4.8,3.6,12.74a38.54,38.54,0,0,1-.32,4.8,128.54,128.54,0,0,1-3.13,15q-2.08,7.78-3.55,15.09-.42,2-1,5.8a52.58,52.58,0,0,0-.57,7.78,29.87,29.87,0,0,0,.67,6.42,10.6,10.6,0,0,0,2.41,5,6.08,6.08,0,0,0,4.75,1.88,5.41,5.41,0,0,0,3.91-1.46,8,8,0,0,0,2.14-3.65q.32-1,1.05-1c.42,0,.62.25.62.73V175a8,8,0,0,1-2.4,5.64A8.68,8.68,0,0,1,379.4,183.14Z"/><path class="cls-2" d="M403.11,176.35a11,11,0,0,1-8.09-3.08,18.13,18.13,0,0,1-4.49-7.63,29.94,29.94,0,0,1-1.41-8.92,49.5,49.5,0,0,1,1-10.08,33.74,33.74,0,0,1,3.29-9.24,20.06,20.06,0,0,1,5.69-6.74,13.33,13.33,0,0,1,8.15-2.56,6.88,6.88,0,0,1,5.22,2,8.21,8.21,0,0,1,1.88,5.85,16.88,16.88,0,0,1-2.56,9.24,21.37,21.37,0,0,1-6.42,6.52,24.85,24.85,0,0,1-8,3.45v.52a34.32,34.32,0,0,0,.88,8,13.21,13.21,0,0,0,2.93,6,6.89,6.89,0,0,0,5.37,2.25,7,7,0,0,0,6.27-3.4,27.91,27.91,0,0,0,3.45-8.61,2.31,2.31,0,0,1,.36-.78c.18-.25.33-.37.47-.37.63,0,.91.45.84,1.36a21.88,21.88,0,0,1-1.26,5.32,27.12,27.12,0,0,1-2,4.29,14.91,14.91,0,0,1-4.75,5A12.81,12.81,0,0,1,403.11,176.35Zm-5.64-23.6a12.67,12.67,0,0,0,5.85-3.29,17.62,17.62,0,0,0,3.91-5.8,17.28,17.28,0,0,0,1.41-6.78v-.53a11,11,0,0,0-.57-3.55,2.15,2.15,0,0,0-2.14-1.67,4.1,4.1,0,0,0-3.29,1.83,16.58,16.58,0,0,0-2.4,4.65,44.47,44.47,0,0,0-1.62,5.84,54.74,54.74,0,0,0-.89,5.54c-.17,1.67-.26,2.89-.26,3.65Z"/><path class="cls-2" d="M424.31,174.78a5.6,5.6,0,0,1-4.13-1.88,11.52,11.52,0,0,1-2.66-5.74,27.18,27.18,0,0,1-.58-4.49c-.1-1.81-.15-3.73-.15-5.75,0-3.06.12-6.22.36-9.5s.58-6.28,1-9a31.57,31.57,0,0,1,1.46-6.32,4.92,4.92,0,0,1,1.93-2.19,6.54,6.54,0,0,1,3.71-.94,12.09,12.09,0,0,1,3.13.42q-.31,1.14-1.2,5.43t-1.52,9.5q-.42,3.66-.73,7.47t-.31,7.15a29.4,29.4,0,0,0,.73,7.15c.49,1.92,1.29,2.87,2.4,2.87,1.32,0,2.49-.78,3.5-2.35a24.87,24.87,0,0,0,2.66-5.9,52.29,52.29,0,0,0,1.78-7.1q.94-5.22,1.67-11.22c.49-4,1-7.43,1.67-10.29a3.74,3.74,0,0,1,1.83-2.19,7.08,7.08,0,0,1,3.81-.94,12,12,0,0,1,3.13.42,43,43,0,0,0-1.62,6.89q-.78,4.59-1.3,10.13t-.52,11c0,1.81.08,3.8.26,5.95a19.44,19.44,0,0,0,1.15,5.54c.59,1.53,1.44,2.3,2.55,2.3h.11a3,3,0,0,0,1.83-.84,10.15,10.15,0,0,0,2.14-3.13,18.26,18.26,0,0,0,1.46-3.45c.42-1.32.87-2.75,1.36-4.28.27-.63.55-.94.83-.94s.52.42.52,1.25v.42a23.4,23.4,0,0,1-1.46,6.16,17.92,17.92,0,0,1-3.5,6,7,7,0,0,1-5.37,2.5,6.88,6.88,0,0,1-5.64-2.56,15.71,15.71,0,0,1-3-6.26,38.43,38.43,0,0,1-1.15-7.16q-.74,2.73-1.67,5.43a21.68,21.68,0,0,1-2.3,4.81Q428.69,174.79,424.31,174.78Z"/><path class="cls-2" d="M474.64,174.89a6.86,6.86,0,0,1-5.43-2.25,12.58,12.58,0,0,1-2.77-5.85,36.7,36.7,0,0,1-.78-7.78,67.59,67.59,0,0,1,.57-8.82q.57-4.33,1.26-7.68c.45-2.22.78-3.76,1-4.59a14.27,14.27,0,0,1-4.6-.94,10.38,10.38,0,0,1-2.82-1.78q-.42,5-1.3,10.76c-.6,3.83-1.27,7.5-2,11a72.39,72.39,0,0,1-2.51,9c-.27.91-.73,1.36-1.35,1.36s-.73-.32-.73-.94a2.65,2.65,0,0,1,.05-.52,3.64,3.64,0,0,1,.16-.63,79.85,79.85,0,0,0,2.81-10.5q1.16-5.68,1.78-11a78,78,0,0,0,.63-8.88v-1.15a7.7,7.7,0,0,1-3.82-3.34,8.71,8.71,0,0,1-1.2-4.18,5.82,5.82,0,0,1,.58-2.61,1.84,1.84,0,0,1,1.72-1.15h.21q1.45,0,2.61,2a21.84,21.84,0,0,1,1.88,4.49,14.47,14.47,0,0,1,.73,3.92,8.21,8.21,0,0,0,2.77,1.35,9.86,9.86,0,0,0,2.56.42,2.61,2.61,0,0,0,1.77-.42,23.11,23.11,0,0,0,2-2.4,4.5,4.5,0,0,1,3.81-1.56,11.62,11.62,0,0,1,4.28,1,46.93,46.93,0,0,0-2.3,5.9,67.58,67.58,0,0,0-1.77,6.94c-.07.56-.25,1.68-.52,3.35s-.52,3.58-.73,5.74-.32,4.32-.32,6.47a29.42,29.42,0,0,0,1,8.1q1,3.49,3.7,3.5a3.9,3.9,0,0,0,2.93-1.36,13.28,13.28,0,0,0,2.19-3.4,35,35,0,0,0,1.57-4c.41-1.29.73-2.32.94-3.08s.41-.94.83-.94.52.38.52,1.14v.53a17.26,17.26,0,0,1-1.72,8.09,12,12,0,0,1-4.44,4.91A11,11,0,0,1,474.64,174.89Z"/><path class="cls-2" d="M496.88,175.41a8.75,8.75,0,0,1-5.8-1.88,12.08,12.08,0,0,1-3.44-4.91A27.52,27.52,0,0,1,486,162a53.28,53.28,0,0,1-.47-7.05c0-1.74.07-3.36.21-4.85s.24-2.81.31-3.92a34.71,34.71,0,0,1,2.3-8.83,18.85,18.85,0,0,1,5.22-7.41,13.42,13.42,0,0,1,9.08-3,7.48,7.48,0,0,1,6,2.51,15,15,0,0,1,3,6.53,39,39,0,0,1,.88,8.4,61.94,61.94,0,0,1-.57,8.51,47.59,47.59,0,0,1-1.31,6.64,34.54,34.54,0,0,1-2.71,6.94,22.57,22.57,0,0,1-4.65,6.32A9.05,9.05,0,0,1,496.88,175.41Zm3.45-5.74a4.46,4.46,0,0,0,3.7-2.09,20.9,20.9,0,0,0,2.56-4.81,31.92,31.92,0,0,0,1.46-4.59,29.89,29.89,0,0,0,.68-4.18,49.89,49.89,0,0,0,.26-5.32,37.52,37.52,0,0,0-.94-8.41q-.93-4.12-3.44-5.8a2.23,2.23,0,0,1-.63-3.55,7.65,7.65,0,0,1,1-1,3.49,3.49,0,0,0-2-.73,4.09,4.09,0,0,0-3.34,2.09,19.49,19.49,0,0,0-2.45,5,48.18,48.18,0,0,0-1.57,5.59c-.38,1.77-.61,3-.68,3.7s-.17,1.93-.31,3.5-.21,3.29-.21,5.17a54.62,54.62,0,0,0,.47,7.1,18,18,0,0,0,1.72,5.95A4,4,0,0,0,500.33,169.67Z"/><path class="cls-2" d="M545.23,174.89a6.26,6.26,0,0,1-5.69-3.14,20.46,20.46,0,0,1-2.61-8,73.44,73.44,0,0,1-.68-10.23,77.28,77.28,0,0,1-3.45,9.92,35.16,35.16,0,0,1-4.65,8.14q-2.55,3.24-5.37,3.24a4.73,4.73,0,0,1-4.08-2.35,16.67,16.67,0,0,1-2.29-6.21,44.79,44.79,0,0,1-.73-8.36,57.84,57.84,0,0,1,.52-7.31,56,56,0,0,1,1.67-8.14,30.68,30.68,0,0,1,3.18-7.47,17.47,17.47,0,0,1,5.07-5.48,12.39,12.39,0,0,1,7.2-2.09,6.52,6.52,0,0,1,3.87,1q.21-5.53.52-10.66t.73-8c.21-1.32.5-2.82.89-4.49a24,24,0,0,1,1.67-4.85,13.06,13.06,0,0,1,2.71-3.92,5.45,5.45,0,0,1,3.92-1.56A6.11,6.11,0,0,1,552,96.31a7.47,7.47,0,0,1,2,3.55,17.53,17.53,0,0,1,.58,4.54c0,.9,0,1.83-.11,2.77a24.07,24.07,0,0,1-.31,2.55,73.56,73.56,0,0,1-2.4,11.28,121.15,121.15,0,0,1-4.13,12q-2.34,5.79-4.54,10-.1.73-.21,3.24c-.07,1.67-.1,3.62-.1,5.85s0,4.26.15,6.52a47.77,47.77,0,0,0,.68,6.27,18.67,18.67,0,0,0,1.41,4.7,2.67,2.67,0,0,0,2.35,1.83,3.31,3.31,0,0,0,2.61-1.41,15.8,15.8,0,0,0,2.09-3.5,32.56,32.56,0,0,0,1.52-4c.38-1.29.67-2.25.88-2.87s.42-.84.84-.84.52.38.52,1.15v.52a17.45,17.45,0,0,1-1.31,6.21,17.16,17.16,0,0,1-3.65,5.85A7.58,7.58,0,0,1,545.23,174.89Zm-18.8-8.67c1.18,0,2.3-.85,3.34-2.56a33.8,33.8,0,0,0,2.88-6.21q1.3-3.66,2.14-6.9a54.33,54.33,0,0,0,1.61-8.4q.48-4.23.58-8.51l.1-2.93a3.17,3.17,0,0,0-1.46-.31,7,7,0,0,0-4.7,2.25,17.47,17.47,0,0,0-3.86,5.27,35.28,35.28,0,0,0-2.77,9.29,61.41,61.41,0,0,0-.89,10v1.56a11.05,11.05,0,0,0,.11,1.57,10.27,10.27,0,0,0,1,4.49A2.32,2.32,0,0,0,526.43,166.22Zm16.5-27.88a91.35,91.35,0,0,0,3.76-9.66,105.72,105.72,0,0,0,3-11,50.8,50.8,0,0,0,1.2-10.55v-1.56a10.14,10.14,0,0,0-.11-1.46,7.24,7.24,0,0,0-.62-2.56c-.35-.73-.8-1.1-1.36-1.1-.28,0-.63.23-1,.68a7.41,7.41,0,0,0-1.26,2.45,31,31,0,0,0-.78,4.23c-.31,2.19-.63,4.77-.94,7.73s-.61,6-.89,9-.5,5.74-.68,8.15-.26,4.09-.26,5.06Z"/><path class="cls-2" d="M563.61,174.89a6.72,6.72,0,0,1-5.9-3.19,21.1,21.1,0,0,1-3-8.14,59.1,59.1,0,0,1-.89-10.39,79.67,79.67,0,0,1,.47-8.72c.31-2.82.7-5.29,1.15-7.42a23.27,23.27,0,0,1,1.31-4.54,6.86,6.86,0,0,1,2-2.35,6.06,6.06,0,0,1,3.81-1.1,12,12,0,0,1,2.72.32q-1,3.64-2.51,10.13a65.22,65.22,0,0,0-1.46,14.3c0,1.81,0,3.75.1,5.8a47.15,47.15,0,0,0,.53,5.74,13.78,13.78,0,0,0,1.3,4.34,2.66,2.66,0,0,0,2.35,1.67h.11a2.94,2.94,0,0,0,1.82-.84,10.1,10.1,0,0,0,2.14-3.13,42.49,42.49,0,0,0,2.93-7.83c.14-.63.42-.94.83-.94s.53.41.53,1.25v.42a23.54,23.54,0,0,1-1.47,6.16,18,18,0,0,1-3.49,5.95A7,7,0,0,1,563.61,174.89Zm.73-53.37a4.87,4.87,0,0,1-3.5-1.46,4.93,4.93,0,0,1,0-7.1,4.91,4.91,0,0,1,3.5-1.46,5,5,0,1,1,0,10Z"/><path class="cls-2" d="M585.22,174.57a4.18,4.18,0,0,1-3.7-2.45,20.47,20.47,0,0,1-2.15-6.48c-.48-2.67-.87-5.62-1.14-8.82s-.49-6.33-.63-9.4a68.8,68.8,0,0,1-2.09,9.19c-.9,3-1.84,6-2.82,9.09-.35,1.11-.8,1.67-1.36,1.67s-.73-.32-.73-.94a5.76,5.76,0,0,1,.21-1.15c1-3.27,1.81-6.32,2.51-9.14a84,84,0,0,0,1.67-9,50.55,50.55,0,0,0,.62-5.17c.14-1.84.25-3.64.32-5.38s.1-3.13.1-4.18a5.49,5.49,0,0,1,4.28-1.88h.11q2.72,0,3.5,3.35a36.94,36.94,0,0,1,.78,8.25v2.71c0,.91,0,2.26.11,4.07s.2,3.8.41,6,.49,4.21.84,6.16a22,22,0,0,0,1.36,4.85c.55,1.29,1.21,1.94,2,1.94q1.77,0,3.65-3.29A29.38,29.38,0,0,0,596,157a75.34,75.34,0,0,0,1.36-7.47,68,68,0,0,0,.62-9.13,41.42,41.42,0,0,0-.52-6.74,15.47,15.47,0,0,0-1.67-5.17,1.7,1.7,0,0,1-.21-.94,3,3,0,0,1,1.31-2.3,4.51,4.51,0,0,1,2.87-1,3.35,3.35,0,0,1,3.13,2.19,12.63,12.63,0,0,1,.73,5,55.59,55.59,0,0,1-1,9.61,97.82,97.82,0,0,1-2.77,11.38,81.24,81.24,0,0,1-4.12,10.86,36.33,36.33,0,0,1-5,8.15Q588,174.58,585.22,174.57Z"/><path class="cls-2" d="M623.44,176.35a11,11,0,0,1-8.09-3.08,18.13,18.13,0,0,1-4.49-7.63,29.94,29.94,0,0,1-1.41-8.92,50.22,50.22,0,0,1,1-10.08,33.74,33.74,0,0,1,3.29-9.24,20.17,20.17,0,0,1,5.69-6.74,13.35,13.35,0,0,1,8.15-2.56,6.85,6.85,0,0,1,5.22,2,8.21,8.21,0,0,1,1.88,5.85,16.8,16.8,0,0,1-2.56,9.24,21.25,21.25,0,0,1-6.42,6.52,24.85,24.85,0,0,1-8,3.45v.52a33.78,33.78,0,0,0,.89,8,13.2,13.2,0,0,0,2.92,6,6.91,6.91,0,0,0,5.38,2.25,7,7,0,0,0,6.26-3.4,27.66,27.66,0,0,0,3.45-8.61,2.15,2.15,0,0,1,.37-.78c.17-.25.33-.37.47-.37.62,0,.9.45.83,1.36a22.34,22.34,0,0,1-1.25,5.32,28,28,0,0,1-2,4.29,14.81,14.81,0,0,1-4.75,5A12.76,12.76,0,0,1,623.44,176.35Zm-5.64-23.6a12.67,12.67,0,0,0,5.85-3.29,17.64,17.64,0,0,0,3.92-5.8,17.28,17.28,0,0,0,1.41-6.78v-.53a11,11,0,0,0-.58-3.55,2.15,2.15,0,0,0-2.14-1.67A4.1,4.1,0,0,0,623,133a16.58,16.58,0,0,0-2.4,4.65,46.07,46.07,0,0,0-1.62,5.84c-.42,2-.71,3.87-.89,5.54s-.26,2.89-.26,3.65Z"/><path class="cls-2" d="M656.23,174.89a6.86,6.86,0,0,1-5.43-2.25,12.77,12.77,0,0,1-2.77-5.85,36.7,36.7,0,0,1-.78-7.78,67.59,67.59,0,0,1,.57-8.82c.39-2.89.8-5.45,1.26-7.68s.78-3.76,1-4.59a14.2,14.2,0,0,1-4.59-.94,10.08,10.08,0,0,1-2.82-1.78q-.42,5-1.31,10.76t-2,11a72.52,72.52,0,0,1-2.5,9c-.28.91-.73,1.36-1.36,1.36s-.73-.32-.73-.94a3.75,3.75,0,0,1,0-.52,4.85,4.85,0,0,1,.16-.63,81.41,81.41,0,0,0,2.82-10.5c.76-3.79,1.36-7.46,1.77-11a78,78,0,0,0,.63-8.88v-1.15a7.67,7.67,0,0,1-3.81-3.34,8.71,8.71,0,0,1-1.2-4.18,5.82,5.82,0,0,1,.57-2.61,1.85,1.85,0,0,1,1.72-1.15h.21q1.47,0,2.61,2a21.3,21.3,0,0,1,1.88,4.49,14.47,14.47,0,0,1,.73,3.92,8.21,8.21,0,0,0,2.77,1.35,9.86,9.86,0,0,0,2.56.42,2.64,2.64,0,0,0,1.78-.42,24.55,24.55,0,0,0,2-2.4,4.5,4.5,0,0,1,3.81-1.56,11.58,11.58,0,0,1,4.28,1,45.48,45.48,0,0,0-2.29,5.9,65.08,65.08,0,0,0-1.78,6.94c-.07.56-.24,1.68-.52,3.35s-.52,3.58-.73,5.74-.31,4.32-.31,6.47a29.83,29.83,0,0,0,1,8.1q1,3.49,3.7,3.5a3.9,3.9,0,0,0,2.93-1.36,13,13,0,0,0,2.19-3.4,35,35,0,0,0,1.57-4c.42-1.29.73-2.32.94-3.08s.42-.94.83-.94.53.38.53,1.14v.53a17.25,17.25,0,0,1-1.73,8.09,12,12,0,0,1-4.44,4.91A11,11,0,0,1,656.23,174.89Z"/><path class="cls-2" d="M677,175.51a13.37,13.37,0,0,1-7.88-2.24q-3.2-2.25-3.19-8c0-.14,0-.47,0-1s.09-1.06.16-1.62a6.56,6.56,0,0,1-.63-3.13,5.36,5.36,0,0,1,.42-2.2,1.36,1.36,0,0,1,1.25-.94h.11c.21,0,.48.25.83.73.91-2.57,1.74-5.23,2.51-8s1.46-5.21,2.09-7.37q1-3.75,2.66-8.09a13.05,13.05,0,0,1,5.17-6.63,10.52,10.52,0,0,1,5.85-1.78,2.85,2.85,0,0,1,.52.06,3.89,3.89,0,0,0,.52,0c.56.07.84.31.84.73a.65.65,0,0,1-.73.73c-.77.07-1.33.68-1.67,1.83a13.4,13.4,0,0,0-.53,3.91v1.15a5.83,5.83,0,0,0,.11,1.15,35.51,35.51,0,0,0,1.88,7.57q1.46,4.13,2.77,8.25a25.55,25.55,0,0,1,1.3,7.68v.52a27.88,27.88,0,0,1-.16,2.92,12.8,12.8,0,0,1-.67,3,27.11,27.11,0,0,0,2.87-.36,16.67,16.67,0,0,0,2.56-.68,8.37,8.37,0,0,0,2.35-1.46,9.1,9.1,0,0,0,1.51-1.88.62.62,0,0,1,.52-.32q.84,0,.84,1.05a1.67,1.67,0,0,1-.21.73,8.65,8.65,0,0,1-4.18,3.76,18.45,18.45,0,0,1-7.1,1.67,14.65,14.65,0,0,1-4.54,5.74A13,13,0,0,1,677,175.51Zm-2.82-3.44h.42a9.63,9.63,0,0,0,3.76-1.31,6.19,6.19,0,0,0,2.71-3.39.21.21,0,0,1,.06-.16.23.23,0,0,0,.05-.16,59.49,59.49,0,0,1-7.26-1,21.92,21.92,0,0,1-5.48-1.72,4.46,4.46,0,0,1-.05.63,2.76,2.76,0,0,0-.06.52,6.78,6.78,0,0,0,1.62,4.85A5.54,5.54,0,0,0,674.19,172.07Zm7.83-8.36c.14-.76.25-1.56.32-2.4s.1-1.67.1-2.51a39.24,39.24,0,0,0-.21-4c-.14-1.35-.31-2.69-.52-4q-.74-4.9-1.72-9a30.78,30.78,0,0,1-1-7.31,13.48,13.48,0,0,1,.32-3c-.35,0-.73.53-1.15,1.57s-.84,2.23-1.25,3.55-.77,2.51-1,3.55c-.83,3-1.74,6.08-2.71,9.24s-2,6.29-3.14,9.35a24.87,24.87,0,0,0,2.67,1.46c1,.49,2,.94,3,1.36s1.9.82,3,1.2A31.13,31.13,0,0,0,682,163.71Z"/><path class="cls-2" d="M708.76,174.89a6.72,6.72,0,0,1-5.9-3.19,21.1,21.1,0,0,1-3-8.14,58.16,58.16,0,0,1-.89-10.39,79.67,79.67,0,0,1,.47-8.72,73.74,73.74,0,0,1,1.15-7.42,23.42,23.42,0,0,1,1.3-4.54,7,7,0,0,1,2-2.35,6.06,6.06,0,0,1,3.81-1.1,12.09,12.09,0,0,1,2.72.32q-1,3.64-2.51,10.13a64.61,64.61,0,0,0-1.46,14.3c0,1.81,0,3.75.1,5.8a49.32,49.32,0,0,0,.52,5.74,14,14,0,0,0,1.31,4.34,2.65,2.65,0,0,0,2.35,1.67h.1a2.94,2.94,0,0,0,1.83-.84,10.28,10.28,0,0,0,2.14-3.13,42.49,42.49,0,0,0,2.93-7.83c.13-.63.41-.94.83-.94s.52.41.52,1.25v.42a23.49,23.49,0,0,1-1.46,6.16,17.87,17.87,0,0,1-3.5,5.95A7,7,0,0,1,708.76,174.89Zm.73-53.37a4.86,4.86,0,0,1-3.5-1.46,4.91,4.91,0,0,1,0-7.1,5,5,0,0,1,8.51,3.55,5,5,0,0,1-5,5Z"/><path class="cls-2" d="M747.08,174.89a6.26,6.26,0,0,1-5.69-3.14,20.46,20.46,0,0,1-2.61-8,73.44,73.44,0,0,1-.68-10.23,77.28,77.28,0,0,1-3.45,9.92,35.16,35.16,0,0,1-4.65,8.14q-2.55,3.24-5.37,3.24a4.73,4.73,0,0,1-4.08-2.35,16.67,16.67,0,0,1-2.29-6.21,44.79,44.79,0,0,1-.73-8.36,57.84,57.84,0,0,1,.52-7.31,56,56,0,0,1,1.67-8.14,30.68,30.68,0,0,1,3.18-7.47,17.47,17.47,0,0,1,5.07-5.48,12.39,12.39,0,0,1,7.2-2.09,6.52,6.52,0,0,1,3.87,1q.21-5.53.52-10.66t.73-8c.21-1.32.5-2.82.89-4.49a24,24,0,0,1,1.67-4.85,13.06,13.06,0,0,1,2.71-3.92,5.45,5.45,0,0,1,3.92-1.56,6.11,6.11,0,0,1,4.39,1.41,7.47,7.47,0,0,1,2,3.55,17.53,17.53,0,0,1,.58,4.54c0,.9,0,1.83-.11,2.77a24.07,24.07,0,0,1-.31,2.55,73.56,73.56,0,0,1-2.4,11.28,121.15,121.15,0,0,1-4.13,12q-2.34,5.79-4.54,10-.11.73-.21,3.24c-.07,1.67-.1,3.62-.1,5.85s.05,4.26.15,6.52a47.77,47.77,0,0,0,.68,6.27,18.67,18.67,0,0,0,1.41,4.7,2.67,2.67,0,0,0,2.35,1.83,3.33,3.33,0,0,0,2.61-1.41,15.8,15.8,0,0,0,2.09-3.5,32.56,32.56,0,0,0,1.52-4c.38-1.29.67-2.25.88-2.87s.42-.84.84-.84.52.38.52,1.15v.52a17.45,17.45,0,0,1-1.31,6.21,17.16,17.16,0,0,1-3.65,5.85A7.58,7.58,0,0,1,747.08,174.89Zm-18.8-8.67c1.18,0,2.3-.85,3.34-2.56a33.17,33.17,0,0,0,2.87-6.21q1.31-3.66,2.15-6.9a54.33,54.33,0,0,0,1.61-8.4q.48-4.23.58-8.51l.1-2.93a3.17,3.17,0,0,0-1.46-.31,7,7,0,0,0-4.7,2.25,17.47,17.47,0,0,0-3.86,5.27,34.91,34.91,0,0,0-2.77,9.29,61.41,61.41,0,0,0-.89,10v1.56a11.05,11.05,0,0,0,.11,1.57,10.27,10.27,0,0,0,1,4.49A2.31,2.31,0,0,0,728.28,166.22Zm16.5-27.88a91.35,91.35,0,0,0,3.76-9.66,105.72,105.72,0,0,0,3-11,50.8,50.8,0,0,0,1.2-10.55v-1.56a10.14,10.14,0,0,0-.11-1.46,7.24,7.24,0,0,0-.62-2.56c-.35-.73-.8-1.1-1.36-1.1-.28,0-.63.23-1,.68a7.63,7.63,0,0,0-1.25,2.45,31,31,0,0,0-.78,4.23c-.31,2.19-.63,4.77-.94,7.73s-.61,6-.89,9-.5,5.74-.68,8.15-.26,4.09-.26,5.06Z"/><path class="cls-2" d="M786,174.89a6.94,6.94,0,0,1-5.22-2,13.83,13.83,0,0,1-3.08-5.22,32.44,32.44,0,0,1-1.52-6.48,46.12,46.12,0,0,1-.41-5.79,67.06,67.06,0,0,1-3.19,9.19,32.16,32.16,0,0,1-4.23,7.36c-1.53,1.92-3.2,2.87-5,2.87h-.11a5,5,0,0,1-4.17-2.35,16.65,16.65,0,0,1-2.51-6.21,39.36,39.36,0,0,1-.83-8.36v-1a64.81,64.81,0,0,1,.73-9.24,40.06,40.06,0,0,1,2.61-9.66,20.34,20.34,0,0,1,5.17-7.57,12,12,0,0,1,8.4-3,7.43,7.43,0,0,1,3.61.89,5.25,5.25,0,0,1,2.34,2.56,5.28,5.28,0,0,1,2-1.36,7.8,7.8,0,0,1,3-.52,10.59,10.59,0,0,1,1.41.1,14.92,14.92,0,0,1,1.62.32q-.63,2.4-1.47,6.58c-.55,2.78-1,5.83-1.41,9.13a84.7,84.7,0,0,0-.57,9.66v.42c0,1.32.07,2.89.21,4.7a43.94,43.94,0,0,0,.73,5.32,16.35,16.35,0,0,0,1.46,4.39,2.76,2.76,0,0,0,2.4,1.78h.11a2.94,2.94,0,0,0,1.82-.84,10.1,10.1,0,0,0,2.15-3.13,43.29,43.29,0,0,0,2.92-7.83c.14-.63.42-.94.84-.94s.52.41.52,1.25v.42a23.89,23.89,0,0,1-1.46,6.16,18.21,18.21,0,0,1-3.5,5.95A7,7,0,0,1,786,174.89Zm-19.11-8.67c1.11,0,2.14-.8,3.08-2.4a31.09,31.09,0,0,0,2.56-5.85q1.14-3.45,2-6.68a57.67,57.67,0,0,0,1.67-9.77,51.57,51.57,0,0,1,1.78-9.76,3.77,3.77,0,0,0-2.82-1.36,7,7,0,0,0-4.7,2.3,17.11,17.11,0,0,0-3.76,5.22,33.27,33.27,0,0,0-2.45,8.56,58.92,58.92,0,0,0-.79,9.4c0,.77,0,1.53.06,2.3s.08,1.5.15,2.19a8.81,8.81,0,0,0,1.2,4.49A2.67,2.67,0,0,0,766.92,166.22Z"/><path class="cls-2" d="M824.35,174.89a6.28,6.28,0,0,1-5.69-3.14,20.46,20.46,0,0,1-2.61-8,75,75,0,0,1-.68-10.23,75.72,75.72,0,0,1-3.44,9.92,35.52,35.52,0,0,1-4.65,8.14q-2.56,3.24-5.38,3.24a4.7,4.7,0,0,1-4.07-2.35,16.67,16.67,0,0,1-2.3-6.21,44.79,44.79,0,0,1-.73-8.36A59.58,59.58,0,0,1,797,142.41a30.7,30.7,0,0,1,3.19-7.47,17.44,17.44,0,0,1,5.06-5.48,12.4,12.4,0,0,1,7.21-2.09,6.46,6.46,0,0,1,3.86,1c.14-3.69.32-7.24.52-10.66s.46-6.09.74-8c.21-1.32.5-2.82.88-4.49a24.61,24.61,0,0,1,1.67-4.85,13.27,13.27,0,0,1,2.72-3.92,5.43,5.43,0,0,1,3.92-1.56,6.09,6.09,0,0,1,4.38,1.41,7.48,7.48,0,0,1,2,3.55,17.54,17.54,0,0,1,.57,4.54c0,.9,0,1.83-.1,2.77a23.92,23.92,0,0,1-.32,2.55,71.25,71.25,0,0,1-2.4,11.28,121.11,121.11,0,0,1-4.12,12q-2.35,5.79-4.54,10-.12.73-.21,3.24c-.07,1.67-.11,3.62-.11,5.85s0,4.26.16,6.52a46.12,46.12,0,0,0,.68,6.27,18.67,18.67,0,0,0,1.41,4.7,2.66,2.66,0,0,0,2.35,1.83,3.34,3.34,0,0,0,2.61-1.41,16.19,16.19,0,0,0,2.09-3.5,32.44,32.44,0,0,0,1.51-4c.38-1.29.68-2.25.89-2.87s.42-.84.83-.84.53.38.53,1.15v.52a17.45,17.45,0,0,1-1.31,6.21,17.18,17.18,0,0,1-3.66,5.85A7.56,7.56,0,0,1,824.35,174.89Zm-18.79-8.67c1.18,0,2.29-.85,3.34-2.56a33.82,33.82,0,0,0,2.87-6.21q1.31-3.66,2.14-6.9a53.2,53.2,0,0,0,1.62-8.4q.47-4.23.57-8.51l.11-2.93a3.23,3.23,0,0,0-1.46-.31,7,7,0,0,0-4.7,2.25,17.5,17.5,0,0,0-3.87,5.27,35.29,35.29,0,0,0-2.76,9.29,60.33,60.33,0,0,0-.89,10v1.56a11.11,11.11,0,0,0,.1,1.57,10.25,10.25,0,0,0,1,4.49A2.3,2.3,0,0,0,805.56,166.22Zm16.5-27.88a93.57,93.57,0,0,0,3.76-9.66,105.68,105.68,0,0,0,3-11,50.8,50.8,0,0,0,1.2-10.55v-1.56a10.14,10.14,0,0,0-.1-1.46,7,7,0,0,0-.63-2.56c-.35-.73-.8-1.1-1.36-1.1-.27,0-.62.23-1,.68a7.43,7.43,0,0,0-1.25,2.45,32.12,32.12,0,0,0-.79,4.23q-.47,3.28-.94,7.73c-.31,3-.61,6-.88,9s-.51,5.74-.68,8.15-.26,4.09-.26,5.06Z"/><path class="cls-2" d="M847.74,176.35a11,11,0,0,1-8.09-3.08,18.23,18.23,0,0,1-4.49-7.63,29.94,29.94,0,0,1-1.41-8.92,49.52,49.52,0,0,1,1-10.08,33.42,33.42,0,0,1,3.29-9.24,20,20,0,0,1,5.69-6.74,13.3,13.3,0,0,1,8.14-2.56,6.85,6.85,0,0,1,5.22,2c1.26,1.32,1.88,3.27,1.88,5.85a16.8,16.8,0,0,1-2.56,9.24A21.14,21.14,0,0,1,850,151.7a24.75,24.75,0,0,1-8,3.45v.52a34.31,34.31,0,0,0,.89,8,13.3,13.3,0,0,0,2.92,6,6.91,6.91,0,0,0,5.38,2.25,7,7,0,0,0,6.27-3.4,27.67,27.67,0,0,0,3.44-8.61,2.15,2.15,0,0,1,.37-.78c.17-.25.33-.37.47-.37.62,0,.9.45.83,1.36a21.87,21.87,0,0,1-1.25,5.32,29,29,0,0,1-2,4.29,14.93,14.93,0,0,1-4.76,5A12.76,12.76,0,0,1,847.74,176.35Zm-5.63-23.6a12.68,12.68,0,0,0,5.84-3.29,17.64,17.64,0,0,0,3.92-5.8,17.28,17.28,0,0,0,1.41-6.78v-.53a11,11,0,0,0-.57-3.55,2.16,2.16,0,0,0-2.14-1.67,4.08,4.08,0,0,0-3.29,1.83,16.59,16.59,0,0,0-2.41,4.65,46.07,46.07,0,0,0-1.62,5.84c-.41,2-.71,3.87-.88,5.54s-.26,2.89-.26,3.65Z"/></g></g></svg>