<svg xmlns="http://www.w3.org/2000/svg" viewBox="0 0 880.1 155.94"><defs><style>.cls-1{fill:#163762;}.cls-2{fill:#025176;}.cls-3{fill:#025276;}.cls-4{fill:#025277;}.cls-5{fill:#045175;}.cls-6{fill:#004762;}.cls-7{fill:#025177;}.cls-8{fill:#035276;}.cls-9{fill:#fff;}</style></defs><g id="Camada_2" data-name="Camada 2"><g id="Camada_1-2" data-name="Camada 1"><g id="Camada_2-2" data-name="Camada 2"><g id="Camada_1-2-2" data-name="Camada 1-2"><g id="Camada_2-2-2" data-name="Camada 2-2"><g id="Camada_1-2-2-2" data-name="Camada 1-2-2"><path class="cls-1" d="M153.19,125.48Q126.42,64.49,99.85,3.4C98.77.92,97.49.28,95,.3,83.12.44,71.27.5,59.44.26c-2.92-.05-4,1.12-5,3.46Q34,50.64,13.49,97.5C9.05,107.66,4.63,117.82,0,128.45c14.47,0,28.27,0,42.08.06,2.17,0,2.45-1.45,3-2.75,2.24-5.71,4.44-11.43,6.52-17.18.63-1.75,1.39-2.53,3.44-2.52q21.76.15,43.53,0c2.2,0,3,.86,3.69,2.72,2,5.65,4.33,11.21,6.36,16.86.72,2,1.63,2.9,3.94,2.87q19.32-.18,38.65,0C153.77,128.51,154.35,128.1,153.19,125.48Zm-66-50.34H66.34c-1.35,0-1.91-.3-1.31-1.82,3.91-10,7.74-20,11.78-30.38,4,10.39,7.78,20.3,11.67,30.18.65,1.55.45,2-1.25,2Z"/><path class="cls-1" d="M400.54,33.51c-1.37,1-2.92.44-4.37.45-9.75.06-19.5.13-29.25,0-2.71,0-3.45.68-3.44,3.42.1,29.14,0,58.27.14,87.41,0,3.12-.79,3.82-3.82,3.78q-17.93-.28-35.86,0c-2.84,0-3.68-.6-3.67-3.57.13-29,0-58,.16-87.06,0-3.24-.87-4-4-4-10.09.2-20.19,0-30.29.12-2.43,0-3.45-.38-3.38-3.18.2-9.16.17-18.34,0-27.5,0-2.54.82-3,3.17-3H397.7c1,0,2.1-.48,2.91.55C401,11.79,401.15,22.65,400.54,33.51Z"/><path class="cls-1" d="M170.85,58.73c6.15,0,12.31.1,18.45,0,2.27-.06,2.91.58,2.92,2.87,0,7-.65,14.14,1.35,21.09,2.71,9.41,8.84,13.9,19.08,13.67,8.91-.21,15.22-5.65,17.25-14.7,1.46-6.53,1.4-13.14,1.24-19.75-.06-2.27.34-3.23,3-3.2,12.3.15,24.6,0,36.91.09,1.09,0,2.69-.7,2.71,1.55.15,12.31.17,24.63-4.36,36.36-6.89,17.87-20.18,28.59-38.59,32.6-15.59,3.41-31.33,3.37-46.56-2.19-20.07-7.32-31-22.19-34.43-42.95-1.27-7.61-.81-15.27-1-22.92,0-2,.58-2.55,2.55-2.52C157.85,58.8,164.35,58.73,170.85,58.73Z"/><path class="cls-2" d="M760.27.94c-2-1.88-6-.29-9.07-.63-2.72-.3-3.28.8-3.26,3.32.13,11.62.06,23.23.07,34.84V50c-1.8-2.15-2.94-3.7-4.27-5.08-11.8-12.36-26.43-15.43-42.63-12.4C687.55,35,677,42.2,670.07,54.29c-5.73,9.91-7.19,20.6-6.24,31.85,3.2,37.75,43,52.66,70.32,37.54,5.66-3.14,10-7.67,14.31-13.79,0,3.88-.08,6.72,0,9.56s-1.26,6.57.53,8.4,5.52.25,8.36.63,3.62-.66,3.61-3.56c-.1-38.32,0-76.63-.1-114.95C760.89,6.88,762.26,2.85,760.27.94ZM710.89,117.78c-20.6-.75-34.35-16.35-34.2-37.85.16-22,15.08-37.18,36-37.05s35.51,15.75,35.41,38C748.05,101.36,734,118.62,710.89,117.78Z"/><path class="cls-2" d="M839.89,38.26c-16.13-9.75-33.15-9.59-49.43-.18-24.42,14.14-27.52,47.62-16,67.49,8.25,14.16,21,21.56,36.94,23.45,14,1.65,27.21-.9,38.66-9.78,6.36-4.93,6.33-5,1.12-10.87-.61-.7-1.26-1.36-1.82-2.1-.79-1-1.31-.75-2.13.07-10.06,10-22.29,12.88-36,10.87-15.71-2.31-28.07-14.82-29.83-30-.3-2.64.59-2.82,2.69-2.81,12.42.07,24.84,0,37.25,0H858.6c1.68,0,3.11.24,3.15-2.35C862.08,63.62,856.06,48.06,839.89,38.26Zm3,36.43H781.31a33.29,33.29,0,0,1,30.65-32c17-1.48,31.23,8.13,36.09,24.94,2,7.07,2,7.06-5.21,7.06Z"/><path class="cls-3" d="M643.67,112.42c-8.2,11.24-19.26,16.51-32.43,17-20.27.76-39.12-8.24-42.16-33a77.29,77.29,0,0,1-.59-9.37V35.16c0-2.16.39-3.18,2.81-3a42.49,42.49,0,0,0,7.31,0c2.46-.22,3.09.63,3.07,3.07-.11,16.71,0,33.43-.08,50.15a49.59,49.59,0,0,0,1.18,12.08c2.64,10.7,9.19,17.47,20.2,19.41,12.62,2.21,24,.12,32.8-10.12,5.1-6,7.19-13.24,7.3-20.91.23-16.71.19-33.44,0-50.15,0-3,.85-3.88,3.68-3.52,3.06.39,7.18-1.33,9,.74,1.51,1.76.5,5.74.5,8.74q0,41.63.08,83.24c0,2.91-.7,3.91-3.62,3.6s-6.61.85-8.39-.59-.46-5.43-.6-8.29C643.57,117.22,643.67,114.82,643.67,112.42Z"/><path class="cls-4" d="M400.54,33.51q0-16.29.07-32.58c.91,4.46.28,9,.38,13.44.12,5.1.14,10.22,0,15.32-.07,2.2.62,2.67,2.73,2.57a117.82,117.82,0,0,1,12.18,0c2.38.11,2.89-.75,2.82-2.95-.15-5.1,0-10.21-.08-15.31,0-2,.29-3,2.61-2.82,3.34.26,7.71-1,9.78.62s.53,6.31.69,9.63a51.54,51.54,0,0,1,0,7.66c-.29,2.77.85,3.21,3.32,3.17,7.65-.16,15.31,0,23-.11,2.3,0,3.21.39,3.18,3-.08,8,0,8-7.88,8-6,0-12.08.14-18.11,0-2.65-.09-3.52.56-3.49,3.39.14,17.75.34,35.52,0,53.27-.35,18.23,14.2,20.87,25.88,16.63,1.86-.68,3.38-3.38,5.3-2.16,1.43.89,1.64,3.51,2.79,5.07,2.17,2.92.84,4.49-1.77,5.83-10.78,5.52-21.83,6.2-32.66.73-9-4.54-12.34-13-12.46-22.53-.24-18.91-.13-37.83,0-56.74,0-2.65-.54-3.7-3.39-3.5-3.81.26-7.66,0-11.48.09-1.86.06-2.28-.66-2.43-2.41C401.2,38.36,402.54,35.71,400.54,33.51Z"/><path class="cls-5" d="M514.78,75c0-9.53-.12-19,.08-28.57.06-2.87-.89-3.5-3.51-3.36-3.82.2-7.66,0-11.49.08-1.8.05-2.35-.53-2.42-2.36-.36-8.63-.42-8.57,8.26-8.66,3,0,6.91,1.33,8.61-.66,1.45-1.7.44-5.53.47-8.42,0-3.25.09-6.5,0-9.75-.06-1.68.51-2.22,2.17-2.15,2.9.12,5.81.13,8.71,0,1.87-.08,2.38.61,2.35,2.41-.1,5,.21,10-.13,15-.22,3.27,1,3.78,3.87,3.7,7.54-.2,15.1,0,22.64-.12,2.1,0,2.76.5,2.78,2.69.09,8.32.18,8.32-8,8.32-5.92,0-11.85.12-17.77-.06-2.62-.08-3.54.51-3.51,3.37.14,17.65.11,35.3.06,53,0,6.65.72,13,7.28,16.54,7,3.72,14.22,2.85,20.88-1,2.4-1.37,3.3-1.33,4.09,1.17a13.15,13.15,0,0,0,.71,1.58c2.76,5.62,2.83,5.76-2.8,8.34-9.64,4.42-19.6,4.84-29.28.57-9.93-4.39-13.69-13.08-14-23.4-.23-9.4,0-18.81,0-28.21Z"/><path class="cls-6" d="M251.89.12a21.5,21.5,0,0,1,21.8,21.21v.19a21.81,21.81,0,0,1-21.6,21.7,21.56,21.56,0,0,1-21.67-21.43V21.7A21.22,21.22,0,0,1,251.29.12h.6Z"/><path class="cls-4" d="M170.38.12a21.57,21.57,0,0,1,21.76,21.37h0v.1c.07,11.74-9.78,21.55-21.71,21.62a21.53,21.53,0,0,1-21.6-21.46h0v-.13a21.25,21.25,0,0,1,21-21.51h.56Z"/><path class="cls-7" d="M472.85,80q0-22.27-.05-44.56c0-2.43.32-3.67,3.14-3.3,3.18.42,7.48-1.35,9.31.73,1.58,1.78.49,6,.5,9.08q0,41.42.07,82.85c0,2.75-.44,4.09-3.52,3.66s-7.18,1.32-8.95-.73c-1.51-1.75-.49-5.74-.49-8.74Q472.83,99.51,472.85,80Z"/><path class="cls-8" d="M479.83.13A9,9,0,0,1,489,9V9h0a9.33,9.33,0,0,1-9.17,9.47h-.59A9.07,9.07,0,0,1,470,9.57h0V9C470.08,3.62,474.08,0,479.83.13Z"/></g></g><path class="cls-9" d="M526.68,155.93q-5.26,0-7.53-4.27t-2.25-11.24a61,61,0,0,1,.54-7.87q.52-4.2,1.52-8.78l.92-3.63q.69-2.72,1.3-6.19a39.44,39.44,0,0,0,.61-6.69,15.19,15.19,0,0,0-.8-5.14,3.9,3.9,0,0,0-3-2.64,4.64,4.64,0,0,0-.65-.11,5.79,5.79,0,0,0-.72,0,7.26,7.26,0,0,0-5,2.1,20.4,20.4,0,0,0-4.13,5.54,49.28,49.28,0,0,0-3.21,7.52q-1.37,4.1-2.33,8.14c-.63,2.7-1.13,5.16-1.47,7.37s-.61,3.95-.77,5.23c-.2,2-.4,4.3-.6,6.8s-.44,5.22-.7,8.17a2.88,2.88,0,0,1-1.44,2,4.81,4.81,0,0,1-2.76,1h-.23a5,5,0,0,1-2.21-.49c-.66-.34-1-.76-1-1.27q.61-3,1.18-7.82t.88-10.12q.15-2.68.38-6.34c.16-2.45.23-5,.23-7.64a90.42,90.42,0,0,0-.46-9.15,46.55,46.55,0,0,0-1.6-8.44,16.56,16.56,0,0,0-3.28-6.34,5.5,5.5,0,0,0-4-2.14,4.23,4.23,0,0,0-3.2,1.68,10.59,10.59,0,0,0-2.07,5.15c0,.51-.11,1.06-.19,1.64a14.55,14.55,0,0,0-.11,1.87,37.05,37.05,0,0,0,.87,7.64,44.43,44.43,0,0,0,2.41,7.79,20.56,20.56,0,0,0,3.52,5.88.56.56,0,0,1,.15.39c0,.15-.15.22-.46.22a4.11,4.11,0,0,1-1.53-.42,4.8,4.8,0,0,1-1.82-1.43,27,27,0,0,1-5.2-9,30.61,30.61,0,0,1-1.84-10.29,22.62,22.62,0,0,1,.88-6.34,11.86,11.86,0,0,1,2.79-5,7.47,7.47,0,0,1,2.67-1.87,8,8,0,0,1,3-.57,9.85,9.85,0,0,1,4.57,1.14,11.65,11.65,0,0,1,3.67,2.9,26.73,26.73,0,0,1,4,7.15,43.71,43.71,0,0,1,2.29,8.57,54.56,54.56,0,0,1,.72,8.75c0,.66,0,1.32,0,2s-.07,1.33-.12,2a90.6,90.6,0,0,1,3.06-10.2,46.89,46.89,0,0,1,4-8.44A21.22,21.22,0,0,1,510.82,99q4.19-3.12,7.89-3.12a8.1,8.1,0,0,1,6.76,3.51q2.64,3.51,2.64,9.32a29.28,29.28,0,0,1-.23,3.51,94.76,94.76,0,0,1-2.29,11q-1.53,5.72-2.59,11c-.21,1-.45,2.38-.73,4.25a37.25,37.25,0,0,0-.42,5.68,21.81,21.81,0,0,0,.49,4.7,7.81,7.81,0,0,0,1.76,3.63,4.52,4.52,0,0,0,3.48,1.38,4,4,0,0,0,2.86-1.07,5.87,5.87,0,0,0,1.56-2.68c.15-.51.41-.76.77-.76s.45.18.45.53V150a5.81,5.81,0,0,1-1.75,4.12A6.34,6.34,0,0,1,526.68,155.93Z"/><path class="cls-9" d="M544,151a8,8,0,0,1-5.92-2.25,13.28,13.28,0,0,1-3.29-5.57,22.34,22.34,0,0,1-1-6.54,37.32,37.32,0,0,1,.76-7.37,25,25,0,0,1,2.41-6.75,14.78,14.78,0,0,1,4.16-4.93,9.73,9.73,0,0,1,6-1.87,5,5,0,0,1,3.82,1.45,6,6,0,0,1,1.38,4.28,12.38,12.38,0,0,1-1.87,6.75,15.76,15.76,0,0,1-4.7,4.78,18.15,18.15,0,0,1-5.88,2.52v.39a24.44,24.44,0,0,0,.65,5.84,9.71,9.71,0,0,0,2.14,4.36,5,5,0,0,0,3.93,1.64,5.15,5.15,0,0,0,4.57-2.48,20.2,20.2,0,0,0,2.52-6.29,1.5,1.5,0,0,1,.27-.57c.12-.18.24-.27.34-.27.46,0,.66.33.61,1a15.91,15.91,0,0,1-.91,3.9,21.15,21.15,0,0,1-1.45,3.13,10.88,10.88,0,0,1-3.48,3.63A9.3,9.3,0,0,1,544,151ZM539.9,133.7a9.23,9.23,0,0,0,4.27-2.4,13.19,13.19,0,0,0,3.9-9.21v-.38a8.23,8.23,0,0,0-.42-2.6,1.59,1.59,0,0,0-1.57-1.22,3,3,0,0,0-2.41,1.34,12.05,12.05,0,0,0-1.75,3.4,33.52,33.52,0,0,0-1.19,4.28c-.3,1.47-.52,2.82-.65,4s-.18,2.12-.18,2.67Z"/><path class="cls-9" d="M559.52,149.82a4.13,4.13,0,0,1-3-1.39,8.48,8.48,0,0,1-1.94-4.2,19.11,19.11,0,0,1-.42-3.29q-.1-2-.12-4.2,0-3.36.27-7t.73-6.61a23,23,0,0,1,1.07-4.62,3.65,3.65,0,0,1,1.41-1.6,4.86,4.86,0,0,1,2.71-.69,8.9,8.9,0,0,1,2.29.31c-.16.56-.45,1.89-.88,4s-.81,4.42-1.11,7q-.3,2.67-.54,5.46c-.15,1.86-.22,3.6-.22,5.23a21.36,21.36,0,0,0,.53,5.23c.36,1.4.94,2.1,1.76,2.11a3.1,3.1,0,0,0,2.55-1.72,18.07,18.07,0,0,0,1.95-4.32,36.82,36.82,0,0,0,1.3-5.19c.46-2.55.87-5.28,1.23-8.21s.76-5.43,1.22-7.53a2.76,2.76,0,0,1,1.34-1.6,5.19,5.19,0,0,1,2.78-.68,8.89,8.89,0,0,1,2.29.3,32.37,32.37,0,0,0-1.19,5q-.57,3.36-1,7.43c-.26,2.72-.38,5.39-.38,8,0,1.32.06,2.77.19,4.35a14.4,14.4,0,0,0,.84,4.05c.43,1.12,1.06,1.68,1.87,1.68h.08a2.16,2.16,0,0,0,1.33-.61,7.31,7.31,0,0,0,1.57-2.29,13.62,13.62,0,0,0,1.07-2.52c.31-1,.63-2,1-3.13.2-.46.41-.69.62-.69s.38.3.38.91v.31a17.56,17.56,0,0,1-1.08,4.51,13.16,13.16,0,0,1-2.55,4.35,5.09,5.09,0,0,1-3.94,1.83,5,5,0,0,1-4.12-1.87,11.66,11.66,0,0,1-2.22-4.57,28.8,28.8,0,0,1-.84-5.23c-.35,1.32-.76,2.65-1.22,4a16,16,0,0,1-1.68,3.51Q562.74,149.82,559.52,149.82Z"/><path class="cls-9" d="M596.34,149.9a5,5,0,0,1-4-1.65,9.36,9.36,0,0,1-2-4.27,27.47,27.47,0,0,1-.57-5.72,49,49,0,0,1,.41-6.41c.28-2.12.57-4,.92-5.62s.57-2.75.73-3.36a10.49,10.49,0,0,1-3.37-.69,7.63,7.63,0,0,1-2.06-1.3c-.21,2.45-.52,5.07-.95,7.87s-.93,5.48-1.5,8.06a53.9,53.9,0,0,1-1.83,6.61q-.3,1-1,1c-.36,0-.53-.23-.53-.69a2.34,2.34,0,0,1,0-.38,3.45,3.45,0,0,1,.12-.46,58,58,0,0,0,2.06-7.68c.56-2.77,1-5.46,1.3-8a56.63,56.63,0,0,0,.45-6.5v-.84a5.56,5.56,0,0,1-2.78-2.44,6.35,6.35,0,0,1-.88-3.06,4.23,4.23,0,0,1,.42-1.91,1.36,1.36,0,0,1,1.26-.84h.17c.71,0,1.34.5,1.91,1.49a15.55,15.55,0,0,1,1.37,3.29,10.64,10.64,0,0,1,.54,2.85,5.88,5.88,0,0,0,2,1,7.45,7.45,0,0,0,1.87.3,1.94,1.94,0,0,0,1.3-.3,19.24,19.24,0,0,0,1.49-1.76,3.29,3.29,0,0,1,2.78-1.14,8.34,8.34,0,0,1,3.14.77,31.78,31.78,0,0,0-1.68,4.31,46.69,46.69,0,0,0-1.3,5.08c-.05.41-.18,1.22-.39,2.45s-.37,2.62-.53,4.2-.23,3.15-.23,4.73a21.88,21.88,0,0,0,.73,5.92c.47,1.69,1.37,2.53,2.71,2.53a2.89,2.89,0,0,0,2.14-1,9.87,9.87,0,0,0,1.61-2.48,27.85,27.85,0,0,0,1.14-2.91c.3-.94.54-1.71.68-2.25s.31-.69.62-.69.38.28.38.84v.39a12.72,12.72,0,0,1-1.26,5.91,8.82,8.82,0,0,1-3.25,3.6A8.16,8.16,0,0,1,596.34,149.9Z"/><path class="cls-9" d="M612.61,150.28a6.43,6.43,0,0,1-4.24-1.37,8.8,8.8,0,0,1-2.52-3.59,19.91,19.91,0,0,1-1.22-4.86,40.1,40.1,0,0,1-.35-5.14c0-1.27.06-2.46.16-3.55s.18-2.05.23-2.86a24.9,24.9,0,0,1,1.68-6.46,13.72,13.72,0,0,1,3.82-5.42,9.8,9.8,0,0,1,6.64-2.18,5.5,5.5,0,0,1,4.39,1.83,10.94,10.94,0,0,1,2.22,4.78,28.24,28.24,0,0,1,.65,6.15,46.46,46.46,0,0,1-.42,6.23,36.34,36.34,0,0,1-1,4.84,25.21,25.21,0,0,1-2,5.09,16.79,16.79,0,0,1-3.4,4.62A6.71,6.71,0,0,1,612.61,150.28Zm2.52-4.2a3.32,3.32,0,0,0,2.72-1.53,15.21,15.21,0,0,0,1.86-3.52,23.3,23.3,0,0,0,1.07-3.35,22.69,22.69,0,0,0,.5-3.06,38.82,38.82,0,0,0,.19-3.89,27.77,27.77,0,0,0-.69-6.16,6.48,6.48,0,0,0-2.52-4.23,1.63,1.63,0,0,1-.74-2.19,1.65,1.65,0,0,1,.28-.41,5,5,0,0,1,.77-.76,2.56,2.56,0,0,0-1.45-.54,3,3,0,0,0-2.45,1.53,14.36,14.36,0,0,0-1.79,3.67,35.78,35.78,0,0,0-1.15,4.08c-.28,1.3-.44,2.21-.49,2.71s-.13,1.42-.23,2.56-.16,2.41-.16,3.78a39.12,39.12,0,0,0,.35,5.19,13,13,0,0,0,1.26,4.36A2.85,2.85,0,0,0,615.13,146.08Z"/><path class="cls-9" d="M648,149.9a4.58,4.58,0,0,1-4.16-2.29,15.3,15.3,0,0,1-1.91-5.88,55.1,55.1,0,0,1-.49-7.49,56.18,56.18,0,0,1-2.53,7.26,25.85,25.85,0,0,1-3.39,6q-1.87,2.37-3.93,2.37a3.42,3.42,0,0,1-3-1.72,11.91,11.91,0,0,1-1.68-4.57,31.34,31.34,0,0,1-.54-6.11,43.58,43.58,0,0,1,1.6-11.3,22.92,22.92,0,0,1,2.33-5.46,12.89,12.89,0,0,1,3.71-4,9,9,0,0,1,5.27-1.53,4.7,4.7,0,0,1,2.82.77q.15-4.05.39-7.8t.53-5.88c.16-1,.37-2.06.65-3.28a17.82,17.82,0,0,1,1.22-3.56,9.74,9.74,0,0,1,2-2.86,4,4,0,0,1,2.86-1.14,4.46,4.46,0,0,1,3.21,1,5.47,5.47,0,0,1,1.48,2.6,12.87,12.87,0,0,1,.43,3.32c0,.67,0,1.34-.08,2s-.12,1.25-.23,1.87a54.08,54.08,0,0,1-1.76,8.25,87.58,87.58,0,0,1-3,8.74q-1.71,4.24-3.32,7.3-.08.52-.15,2.37c0,1.22-.08,2.65-.08,4.27s0,3.12.12,4.78a33.44,33.44,0,0,0,.5,4.57,13.17,13.17,0,0,0,1,3.43c.44.89,1,1.34,1.72,1.34a2.46,2.46,0,0,0,1.91-1A11.89,11.89,0,0,0,653,143.7a26.07,26.07,0,0,0,1.11-2.94c.28-.94.49-1.65.64-2.1s.31-.62.61-.62.39.28.39.84v.4a12.86,12.86,0,0,1-1,4.54,12.46,12.46,0,0,1-2.67,4.28A5.57,5.57,0,0,1,648,149.9Zm-13.72-6.34c.87,0,1.68-.63,2.45-1.87a24,24,0,0,0,2.1-4.58q1-2.67,1.57-5a40,40,0,0,0,1.18-6.15q.35-3.09.42-6.22l.08-2.14a2.35,2.35,0,0,0-1.07-.23,5.11,5.11,0,0,0-3.43,1.64,12.89,12.89,0,0,0-2.86,3.86,25.63,25.63,0,0,0-2,6.8A46.49,46.49,0,0,0,632,137v1.15a7.28,7.28,0,0,0,.08,1.14,7.52,7.52,0,0,0,.76,3.29,1.74,1.74,0,0,0,1.35,1Zm12.07-20.4a66.52,66.52,0,0,0,2.75-7.06,78,78,0,0,0,2.18-8.06,37.83,37.83,0,0,0,.88-7.72V99.18a9.45,9.45,0,0,0-.08-1.07,5.3,5.3,0,0,0-.46-1.88c-.25-.53-.57-.8-1-.8-.21,0-.46.17-.77.5a5.46,5.46,0,0,0-.91,1.8,20.25,20.25,0,0,0-.57,3.09q-.35,2.42-.69,5.65c-.23,2.17-.45,4.35-.65,6.57s-.37,4.2-.49,6-.2,3-.2,3.7Z"/><path class="cls-9" d="M661.42,149.9a4.92,4.92,0,0,1-4.31-2.33,15.38,15.38,0,0,1-2.22-6,43,43,0,0,1-.65-7.6,59.15,59.15,0,0,1,.34-6.38q.34-3.09.84-5.42a17.29,17.29,0,0,1,1-3.32,5,5,0,0,1,1.49-1.72,4.45,4.45,0,0,1,2.79-.8,8.94,8.94,0,0,1,2,.23c-.52,1.78-1.15,4.25-1.84,7.43a47.81,47.81,0,0,0-1.07,10.46c0,1.33,0,2.74.08,4.25a34.86,34.86,0,0,0,.38,4.2,10.1,10.1,0,0,0,.95,3.17,2,2,0,0,0,1.72,1.22h.07a2.16,2.16,0,0,0,1.34-.61,7.66,7.66,0,0,0,1.57-2.29,32.26,32.26,0,0,0,2.14-5.72c.1-.45.3-.68.61-.68s.38.3.38.91v.31a17.55,17.55,0,0,1-1.07,4.51,13.36,13.36,0,0,1-2.56,4.35A5.15,5.15,0,0,1,661.42,149.9Zm.53-39a3.51,3.51,0,0,1-2.55-1.07,3.58,3.58,0,0,1-.11-5.08l.11-.11a3.65,3.65,0,0,1,5.14,5.19,3.5,3.5,0,0,1-2.59,1.07Z"/><path class="cls-9" d="M677.23,149.67a3,3,0,0,1-2.71-1.8,15.24,15.24,0,0,1-1.57-4.73c-.35-2-.63-4.12-.84-6.46s-.35-4.63-.45-6.86a51.6,51.6,0,0,1-1.53,6.73q-1,3.28-2.06,6.64c-.26.82-.58,1.22-1,1.22s-.53-.23-.53-.68a3.89,3.89,0,0,1,.15-.84q1.06-3.58,1.83-6.69a62.53,62.53,0,0,0,1.23-6.64c.19-1.17.35-2.43.45-3.78s.19-2.66.23-3.93.08-2.29.08-3.06a4,4,0,0,1,3.13-1.37h.08c1.32,0,2.18.81,2.56,2.44a27.76,27.76,0,0,1,.57,6v2c0,.66,0,1.66.08,3s.15,2.78.3,4.35.35,3.09.61,4.51a16.4,16.4,0,0,0,1,3.56c.4.93.89,1.41,1.45,1.41.86,0,1.75-.81,2.67-2.41a21.39,21.39,0,0,0,2.14-5.46,50.55,50.55,0,0,0,1-5.47,48.06,48.06,0,0,0,.46-6.68,30.15,30.15,0,0,0-.38-4.93A11.25,11.25,0,0,0,685,116a1.24,1.24,0,0,1-.16-.68,2.16,2.16,0,0,1,1-1.68,3.24,3.24,0,0,1,2.1-.77,2.45,2.45,0,0,1,2.28,1.61,9.13,9.13,0,0,1,.54,3.66,41.49,41.49,0,0,1-.72,7,75.14,75.14,0,0,1-2,8.35,60,60,0,0,1-3,7.94,26.57,26.57,0,0,1-3.67,6C679.94,148.91,678.61,149.67,677.23,149.67Z"/><path class="cls-9" d="M705.19,151a8,8,0,0,1-5.92-2.25,13.28,13.28,0,0,1-3.29-5.57,22.34,22.34,0,0,1-1-6.54,37.32,37.32,0,0,1,.76-7.37,25,25,0,0,1,2.41-6.75,14.78,14.78,0,0,1,4.16-4.93,9.7,9.7,0,0,1,6-1.87,5,5,0,0,1,3.82,1.45,6,6,0,0,1,1.37,4.28,12.38,12.38,0,0,1-1.87,6.75,15.76,15.76,0,0,1-4.7,4.78,18.15,18.15,0,0,1-5.88,2.52v.39a24.53,24.53,0,0,0,.68,5.84A9.66,9.66,0,0,0,703.8,146a5.07,5.07,0,0,0,3.94,1.64,5.13,5.13,0,0,0,4.57-2.48,20.1,20.1,0,0,0,2.52-6.29,1.57,1.57,0,0,1,.27-.57c.12-.18.24-.27.34-.27.46,0,.66.33.61,1a16.19,16.19,0,0,1-.91,3.89,20.23,20.23,0,0,1-1.46,3.13,10.86,10.86,0,0,1-3.47,3.63A9.3,9.3,0,0,1,705.19,151Zm-4.1-17.26a9.22,9.22,0,0,0,4.28-2.4,13.14,13.14,0,0,0,3.89-9.21v-.38a7.94,7.94,0,0,0-.41-2.6,1.59,1.59,0,0,0-1.57-1.22,3,3,0,0,0-2.41,1.34,12.05,12.05,0,0,0-1.75,3.4,33.52,33.52,0,0,0-1.19,4.28c-.28,1.33-.5,2.68-.65,4s-.19,2.12-.19,2.67Z"/><path class="cls-9" d="M729.17,149.9a5,5,0,0,1-4-1.65,9.24,9.24,0,0,1-2-4.27,26.82,26.82,0,0,1-.58-5.72,48,48,0,0,1,.43-6.45c.27-2.11.57-4,.91-5.62s.57-2.75.73-3.35a10.44,10.44,0,0,1-3.36-.7,7.27,7.27,0,0,1-2.07-1.29c-.2,2.44-.52,5.07-1,7.86s-.93,5.49-1.49,8.06a53.41,53.41,0,0,1-1.83,6.61c-.21.66-.54,1-1,1s-.53-.23-.53-.68a1.72,1.72,0,0,1,0-.39,2.46,2.46,0,0,1,.11-.45,58.39,58.39,0,0,0,2.06-7.68c.56-2.78,1-5.46,1.31-8.06a58.63,58.63,0,0,0,.45-6.49v-.84a5.68,5.68,0,0,1-2.79-2.44,6.38,6.38,0,0,1-.88-3.06,4.21,4.21,0,0,1,.43-1.91,1.32,1.32,0,0,1,1.25-.84h.16c.71,0,1.35.49,1.91,1.49a15.69,15.69,0,0,1,1.37,3.28,10.79,10.79,0,0,1,.54,2.86,6,6,0,0,0,2,1,7,7,0,0,0,1.87.31,1.87,1.87,0,0,0,1.3-.31,19.12,19.12,0,0,0,1.49-1.75,3.27,3.27,0,0,1,2.79-1.14A8.46,8.46,0,0,1,732,118a33.29,33.29,0,0,0-1.68,4.32,46.69,46.69,0,0,0-1.3,5.08c0,.41-.18,1.22-.38,2.44s-.38,2.63-.54,4.2-.22,3.16-.22,4.74a21.49,21.49,0,0,0,.72,5.92c.49,1.7,1.39,2.56,2.71,2.56a2.83,2.83,0,0,0,2.14-1,9.25,9.25,0,0,0,1.63-2.43,25,25,0,0,0,1.15-2.9c.31-.94.54-1.72.69-2.25s.3-.69.61-.69.38.28.38.84v.38a12.61,12.61,0,0,1-1.26,5.92,8.73,8.73,0,0,1-3.25,3.59A8.15,8.15,0,0,1,729.17,149.9Z"/><path class="cls-9" d="M744.37,150.35a9.68,9.68,0,0,1-5.76-1.64q-2.34-1.64-2.33-5.84c0-.1,0-.34,0-.73s.07-.77.12-1.18a4.76,4.76,0,0,1-.46-2.29,3.84,3.84,0,0,1,.31-1.6,1,1,0,0,1,.91-.69h.08c.15,0,.35.18.61.54q1-2.86,1.83-5.85t1.53-5.38q.76-2.76,2-5.92a9.52,9.52,0,0,1,3.78-4.85,7.67,7.67,0,0,1,4.28-1.3,1.69,1.69,0,0,1,.38,0,2.43,2.43,0,0,0,.38,0c.41.06.61.23.61.54a.46.46,0,0,1-.4.53h-.13c-.58,0-1,.5-1.23,1.34a9.85,9.85,0,0,0-.37,2.86v.84a4,4,0,0,0,.07.84,26.43,26.43,0,0,0,1.38,5.54q1.06,3,2,6a18.83,18.83,0,0,1,1,5.62v.38a20.6,20.6,0,0,1-.12,2.14,9.51,9.51,0,0,1-.5,2.22,20.77,20.77,0,0,0,2.1-.27,11,11,0,0,0,1.87-.5,5.91,5.91,0,0,0,1.72-1.07,6.41,6.41,0,0,0,1.11-1.37.46.46,0,0,1,.38-.24c.41,0,.61.26.61.77a1.29,1.29,0,0,1-.15.54,6.24,6.24,0,0,1-3.06,2.74,13.15,13.15,0,0,1-5.19,1.25,10.77,10.77,0,0,1-3.32,4.21A9.55,9.55,0,0,1,744.37,150.35Zm-2.06-2.51h.31a7.12,7.12,0,0,0,2.75-1,4.51,4.51,0,0,0,2-2.48.16.16,0,0,1,0-.12.15.15,0,0,0,0-.11,45.18,45.18,0,0,1-5.31-.73,16,16,0,0,1-4-1.26,2.32,2.32,0,0,1,0,.46c0,.13,0,.25,0,.38a5,5,0,0,0,1.19,3.55,4,4,0,0,0,3.08,1.28Zm5.72-6.11c.1-.58.17-1.15.23-1.77s.08-1.21.08-1.82a29,29,0,0,0-.16-2.95c-.1-1-.23-2-.38-2.94q-.54-3.58-1.26-6.57a22.9,22.9,0,0,1-.73-5.34,10.33,10.33,0,0,1,.23-2.22q-.37,0-.84,1.14c-.31.76-.61,1.63-.92,2.6s-.57,1.83-.76,2.59q-.91,3.28-2,6.77t-2.29,6.86a20.47,20.47,0,0,0,2,1.07c.73.36,1.46.69,2.17,1s1.39.6,2.18.88a24.3,24.3,0,0,0,2.49.71Z"/><path class="cls-9" d="M767.59,149.9a4.92,4.92,0,0,1-4.31-2.33,15.55,15.55,0,0,1-2.22-6,43,43,0,0,1-.64-7.6,56.69,56.69,0,0,1,.34-6.38q.35-3.09.84-5.42a16.58,16.58,0,0,1,.95-3.32,5.15,5.15,0,0,1,1.49-1.72,4.49,4.49,0,0,1,2.79-.8,8.94,8.94,0,0,1,2,.23Q768,119.27,767,124a47.22,47.22,0,0,0-1.08,10.46c0,1.33,0,2.74.08,4.25a34.86,34.86,0,0,0,.38,4.2,10.12,10.12,0,0,0,1,3.17,1.92,1.92,0,0,0,1.71,1.22h.09a2.16,2.16,0,0,0,1.33-.61,7.48,7.48,0,0,0,1.57-2.29,30.51,30.51,0,0,0,2.14-5.72c.1-.45.31-.68.61-.68s.38.3.38.91v.31a17.14,17.14,0,0,1-1.07,4.51,13,13,0,0,1-2.56,4.35A5.13,5.13,0,0,1,767.59,149.9Zm.54-39a3.53,3.53,0,0,1-2.56-1.07,3.59,3.59,0,0,1-.09-5.1l.09-.09a3.57,3.57,0,0,1,2.56-1.07,3.67,3.67,0,1,1,.29,7.33A1.41,1.41,0,0,1,768.13,110.86Z"/><path class="cls-9" d="M795.63,149.9a4.59,4.59,0,0,1-4.17-2.29,15.3,15.3,0,0,1-1.91-5.88,55.1,55.1,0,0,1-.49-7.49,56.13,56.13,0,0,1-2.52,7.26,26.37,26.37,0,0,1-3.43,6q-1.87,2.37-3.94,2.37a3.42,3.42,0,0,1-3-1.72,11.91,11.91,0,0,1-1.68-4.57,33,33,0,0,1-.54-6.11,43.46,43.46,0,0,1,.38-5.35,41.66,41.66,0,0,1,1.25-6,22.16,22.16,0,0,1,2.34-5.46,12.64,12.64,0,0,1,3.7-4,9.07,9.07,0,0,1,5.27-1.53,4.73,4.73,0,0,1,2.83.77q.15-4.05.38-7.8t.53-5.88c.16-1,.37-2.06.65-3.28a17.82,17.82,0,0,1,1.22-3.56,9.94,9.94,0,0,1,2-2.86,4,4,0,0,1,2.86-1.14,4.47,4.47,0,0,1,3.21,1,5.57,5.57,0,0,1,1.49,2.6,13.31,13.31,0,0,1,.42,3.32,17.4,17.4,0,0,1-.08,2c-.07.68-.13,1.31-.23,1.87a54.08,54.08,0,0,1-1.76,8.25,87.52,87.52,0,0,1-3,8.74,78.2,78.2,0,0,1-3.33,7.3q-.08.52-.15,2.37c0,1.22-.08,2.64-.08,4.27s0,3.12.12,4.78a35.07,35.07,0,0,0,.49,4.57,13.73,13.73,0,0,0,1,3.43c.43.89,1,1.34,1.71,1.34a2.45,2.45,0,0,0,1.91-1,11.89,11.89,0,0,0,1.53-2.56,22.18,22.18,0,0,0,1.11-2.94c.28-.94.5-1.65.65-2.1s.3-.62.61-.62.38.28.38.84v.4a13.88,13.88,0,0,1-3.62,8.82A5.57,5.57,0,0,1,795.63,149.9Zm-13.75-6.34c.86,0,1.68-.63,2.44-1.87a24.3,24.3,0,0,0,2.1-4.58q1-2.67,1.57-5a40.21,40.21,0,0,0,1.18-6.15q.35-3.09.42-6.22l.08-2.14a2.32,2.32,0,0,0-1.07-.23,5.11,5.11,0,0,0-3.43,1.64,12.8,12.8,0,0,0-2.83,3.86,25.61,25.61,0,0,0-2,6.8,45.36,45.36,0,0,0-.66,7.36v1.15a8.74,8.74,0,0,0,.08,1.14,7.52,7.52,0,0,0,.76,3.29A1.73,1.73,0,0,0,781.88,143.56ZM794,123.16a66.52,66.52,0,0,0,2.75-7.06,77.93,77.93,0,0,0,2.17-8.06,37.14,37.14,0,0,0,.88-7.72V99.18a9.45,9.45,0,0,0-.07-1.07,5.35,5.35,0,0,0-.46-1.88c-.26-.53-.57-.8-1-.8-.2,0-.45.17-.76.5a5.79,5.79,0,0,0-.92,1.8,23,23,0,0,0-.57,3.09q-.35,2.42-.69,5.65c-.23,2.17-.45,4.35-.65,6.57s-.37,4.2-.49,6-.19,3-.19,3.7Z"/><path class="cls-9" d="M824.12,149.9a5.09,5.09,0,0,1-3.82-1.49,9.94,9.94,0,0,1-2.25-3.82,22.83,22.83,0,0,1-1.11-4.74,35.26,35.26,0,0,1-.31-4.24,48.22,48.22,0,0,1-2.33,6.73,23.44,23.44,0,0,1-3.1,5.38,4.73,4.73,0,0,1-3.66,2.1h-.08a3.62,3.62,0,0,1-3.05-1.71,12.27,12.27,0,0,1-1.84-4.58,28.53,28.53,0,0,1-.61-6.11v-.76a47.88,47.88,0,0,1,.54-6.76,29.16,29.16,0,0,1,1.91-7.06,14.86,14.86,0,0,1,3.77-5.54,8.8,8.8,0,0,1,6.16-2.18,5.37,5.37,0,0,1,2.63.65,3.86,3.86,0,0,1,1.72,1.87,3.93,3.93,0,0,1,1.45-1,6,6,0,0,1,2.22-.37,7.13,7.13,0,0,1,1,.07,9.83,9.83,0,0,1,1.18.23c-.3,1.17-.66,2.78-1.07,4.81s-.75,4.27-1,6.69a59.45,59.45,0,0,0-.42,7.06v.31c0,1,.05,2.11.15,3.43a32.08,32.08,0,0,0,.54,3.9,11.71,11.71,0,0,0,1.07,3.2,2,2,0,0,0,1.75,1.3h.08a2.19,2.19,0,0,0,1.34-.61,7.33,7.33,0,0,0,1.56-2.29,30.68,30.68,0,0,0,2.14-5.71c.1-.46.31-.69.61-.69s.39.3.39.91v.31a17.87,17.87,0,0,1-1.07,4.51,13.36,13.36,0,0,1-2.56,4.35A5.17,5.17,0,0,1,824.12,149.9Zm-14-6.34c.81,0,1.57-.58,2.25-1.76a22.3,22.3,0,0,0,1.87-4.28c.56-1.68,1-3.31,1.45-4.88a43.28,43.28,0,0,0,1.23-7.15,37.69,37.69,0,0,1,1.3-7.14,2.81,2.81,0,0,0-2.06-1,5.06,5.06,0,0,0-3.43,1.68,12.38,12.38,0,0,0-2.75,3.82,24.39,24.39,0,0,0-1.8,6.26,43.79,43.79,0,0,0-.57,6.86c0,.57,0,1.14,0,1.68s.06,1.09.11,1.6a6.61,6.61,0,0,0,.88,3.29,2,2,0,0,0,1.48,1Z"/><path class="cls-9" d="M852.15,149.9a4.57,4.57,0,0,1-4.16-2.29,15,15,0,0,1-1.91-5.88,53.55,53.55,0,0,1-.5-7.49,54.67,54.67,0,0,1-2.52,7.26,26.25,26.25,0,0,1-3.4,6c-1.24,1.58-2.56,2.37-3.93,2.37a3.43,3.43,0,0,1-3-1.72,12.24,12.24,0,0,1-1.68-4.57,33,33,0,0,1-.54-6.11,44.2,44.2,0,0,1,1.61-11.3,22.13,22.13,0,0,1,2.33-5.46,12.74,12.74,0,0,1,3.7-4,9.07,9.07,0,0,1,5.27-1.53,4.73,4.73,0,0,1,2.83.77q.15-4.05.38-7.8t.54-5.88c.15-1,.37-2.06.65-3.28a17.82,17.82,0,0,1,1.22-3.56,9.56,9.56,0,0,1,2-2.86,4,4,0,0,1,2.86-1.14,4.43,4.43,0,0,1,3.2,1A5.49,5.49,0,0,1,858.6,95a12.44,12.44,0,0,1,.42,3.32,17.4,17.4,0,0,1-.08,2,14.92,14.92,0,0,1-.23,1.87,52.88,52.88,0,0,1-1.75,8.25,87.58,87.58,0,0,1-3,8.74q-1.71,4.24-3.32,7.3c0,.35-.1,1.14-.16,2.37s-.07,2.65-.07,4.27,0,3.12.11,4.78a35.09,35.09,0,0,0,.5,4.57,13.71,13.71,0,0,0,1,3.43,2,2,0,0,0,1.71,1.34,2.45,2.45,0,0,0,1.91-1,11.89,11.89,0,0,0,1.53-2.56,22.71,22.71,0,0,0,1.11-2.94c.28-.94.5-1.65.65-2.1s.3-.62.61-.62.38.28.38.84v.4a13.85,13.85,0,0,1-3.62,8.82A5.57,5.57,0,0,1,852.15,149.9Zm-13.72-6.34c.86,0,1.67-.63,2.44-1.87a24,24,0,0,0,2.1-4.58q1-2.67,1.56-5a38.84,38.84,0,0,0,1.19-6.15c.23-2.06.37-4.14.42-6.22l.08-2.14a2.35,2.35,0,0,0-1.07-.23,5.11,5.11,0,0,0-3.43,1.64,12.8,12.8,0,0,0-2.83,3.86,25.25,25.25,0,0,0-2,6.8,44.28,44.28,0,0,0-.68,7.36v1.15a7.27,7.27,0,0,0,.07,1.14,7.67,7.67,0,0,0,.77,3.29,1.72,1.72,0,0,0,1.38,1Zm12.06-20.4a64.44,64.44,0,0,0,2.75-7.06,75.54,75.54,0,0,0,2.18-8.06,37.14,37.14,0,0,0,.88-7.72V99.18a9.45,9.45,0,0,0-.07-1.07,5.31,5.31,0,0,0-.47-1.88c-.25-.53-.57-.8-1-.8-.2,0-.45.17-.76.5a5.39,5.39,0,0,0-.92,1.8,23,23,0,0,0-.57,3.09q-.35,2.42-.69,5.65c-.23,2.17-.45,4.35-.65,6.57s-.37,4.2-.49,6-.2,3-.2,3.7Z"/><path class="cls-9" d="M869.26,151a8,8,0,0,1-5.92-2.25,13.36,13.36,0,0,1-3.28-5.57,22,22,0,0,1-1-6.54,36.58,36.58,0,0,1,.76-7.37,24.63,24.63,0,0,1,2.41-6.75,14.55,14.55,0,0,1,4.16-4.93,9.67,9.67,0,0,1,6-1.87,5,5,0,0,1,3.82,1.45,6,6,0,0,1,1.37,4.28,12.21,12.21,0,0,1-1.87,6.75,15.53,15.53,0,0,1-4.7,4.78,18,18,0,0,1-5.88,2.52v.39a25,25,0,0,0,.65,5.84,9.71,9.71,0,0,0,2.14,4.36,5.05,5.05,0,0,0,3.93,1.64,5.17,5.17,0,0,0,4.58-2.48,20.69,20.69,0,0,0,2.52-6.29,1.64,1.64,0,0,1,.26-.57c.13-.18.24-.27.34-.27.47,0,.67.33.62,1a15.93,15.93,0,0,1-.92,3.9,20.18,20.18,0,0,1-1.45,3.13,10.88,10.88,0,0,1-3.48,3.63A9.26,9.26,0,0,1,869.26,151Zm-4.12-17.26a9.27,9.27,0,0,0,4.28-2.4,13.22,13.22,0,0,0,3.89-9.21v-.38a8,8,0,0,0-.42-2.6,1.59,1.59,0,0,0-1.56-1.22,3,3,0,0,0-2.41,1.34,12.08,12.08,0,0,0-1.76,3.4,33.48,33.48,0,0,0-1.18,4.28,39.06,39.06,0,0,0-.65,4c-.13,1.23-.19,2.12-.19,2.67Z"/></g></g></g></g></svg>