<svg xmlns="http://www.w3.org/2000/svg" viewBox="0 0 965.35 965.95"><defs><style>.cls-1{fill:#f8cb14;}.cls-2{fill:#183662;}.cls-3{fill:#005275;}.cls-4{fill:#004861;}.cls-5{fill:#193661;}</style></defs><g id="Camada_2" data-name="Camada 2"><g id="Camada_1-2" data-name="Camada 1"><path class="cls-1" d="M489.79,966C361.28,964.34,253.57,925.27,163,844.13,52.66,745.26-.8,620.32,0,472.17,3.78,354.44,43.18,250.23,122,162.57,220.61,52.79,345.05-.52,492.6,0,614.32,3.75,721.27,45.4,810.33,128.51,916,227.14,968,350.14,965.25,494.64,963,611.86,922.15,715.48,843.93,802.91,747.92,910.23,626.47,963.11,489.79,966ZM840.1,290.83c.11.11.22.22.34.32-5,11.05-9.85,22.17-15,33.12-1.69,3.55-2.17,6.53.14,10,1,1.39,1.28,1.87,3,1,13.57-6.85,27.19-13.58,40.81-20.32,1.16-.57,1.35-1.11.7-2.24a51.37,51.37,0,0,1-2.57-5.21c-.55-1.26-1.17-1.42-2.4-.79-6.4,3.27-12.83,6.51-19.3,9.64-2.76,1.34-5.35,3.08-8.48,4.08a4.89,4.89,0,0,1,.13-1c5.45-12,10.88-24,16.38-36a3.13,3.13,0,0,0,0-3.39,23.19,23.19,0,0,1-1.86-3.69c-.48-1.19-1.07-1.34-2.19-.77q-19.41,9.76-38.85,19.45c-3.82,1.91-3.82,1.9-1.87,5.63.52,1,1,2,1.44,3.08s1,1.21,2.06.65c2.12-1.15,4.3-2.22,6.5-3.22C826.1,297.87,832.85,293.83,840.1,290.83ZM323.17,483H240.91c-1.37,0-2.64-.33-2.61,2,.22,18.06,0,36.11.2,54.17a295.14,295.14,0,0,0,3.73,43.12,263.71,263.71,0,0,0,6.55,30.33A212.29,212.29,0,0,0,273,668a196.16,196.16,0,0,0,47.5,52,204.65,204.65,0,0,0,41.27,24.39,243.29,243.29,0,0,0,48.13,15.52c8,1.71,16,3.34,24.13,4.26q16.07,1.83,32.25,2.6a397.71,397.71,0,0,0,48.71-.85,264.63,264.63,0,0,0,35.57-5,296.52,296.52,0,0,0,32.55-8.51,213.38,213.38,0,0,0,61.51-32,196.26,196.26,0,0,0,40.18-40.76,201.3,201.3,0,0,0,20.3-34.81A215.81,215.81,0,0,0,717.5,610.4a283.09,283.09,0,0,0,7.31-37.6,308.52,308.52,0,0,0,2.42-35.92c.17-16.92.06-33.84.2-50.76,0-2.36-.42-3.12-3-3.12q-80.31.13-160.62,0c-2.43,0-3,.55-3,3-.13,18.46.64,36.92-.39,55.36-.3,5.43-.57,10.89-1.4,16.25a135.78,135.78,0,0,1-7.3,28.59,69.87,69.87,0,0,1-16.59,25.64c-10.78,10.39-24,15.79-38.63,17.59a89.11,89.11,0,0,1-38.25-3.09c-18.31-5.81-31.14-17.77-39.22-35a110,110,0,0,1-7.15-22,155,155,0,0,1-3.92-29.09c-.69-18.13-.26-36.28-.25-54.42,0-2.15-.42-2.84-2.73-2.83C377.68,483.06,350.42,483,323.17,483Zm-.55-61.38c46.46-.35,84.71-36.72,84.88-84.58a84.18,84.18,0,0,0-82.75-84.79c-48.54-1-85.56,37.88-86.45,82.62A84.91,84.91,0,0,0,322.62,421.65Zm320,0c46.35-.23,84.62-37.2,84.79-84.54a84.6,84.6,0,0,0-169.17-2.23C557.2,383.32,595.68,421.14,642.57,421.64ZM854.86,644.28a5.61,5.61,0,0,1-1-.11q-11.7-4.36-23.38-8.78c-1.87-.71-4.15-2.46-5.52-1.71s-1.46,3.58-2.41,5.34c-1,1.94-.36,2.55,1.48,3.23,12.87,4.78,25.71,9.68,38.55,14.55,5.3,2,5.28,2,7.31-3.31.4-1,.65-1.84-.19-2.87q-8.45-10.38-16.74-20.86a66.75,66.75,0,0,1-5.76-7.63c10.7-1.92,21.09-3.88,31.53-5.63,5.89-1,5.91-.85,7.85-6.48.35-1,.49-1.69-.92-2.12-2.78-.85-5.47-2-8.19-3-10.17-3.91-20.31-7.89-30.51-11.71-2-.74-4.32-2.91-5.89-1.78s-1.73,4-2.63,6.09c-.53,1.22-.19,1.71,1,2.15,5,1.83,10,3.74,15,5.66,4.34,1.67,8.66,3.39,13.21,5.18-1.62.4-2.92.84-4.26,1q-12.12,1.85-24.12,4.38c-3.09.65-3.91,3.26-1.91,5.81C843.09,629.12,848.85,636.55,854.86,644.28ZM360.07,97.11h.7q4.31,11.7,8.62,23.39c.67,1.81.95,4.37,2.27,5.18s3.47-1.13,5.3-1.42c2.9-.45,2.54-2,1.83-3.93q-7.28-19.53-14.54-39.06c-1.61-4.33-1.57-4.28-5.91-2.86C356.47,79,355.27,80,355,82c-.83,5.1-1.67,10.21-2.56,15.3-1.05,6-2.17,11.93-3.23,17.9-.2,1.16-.62,1.42-1.57.66s-2-1.6-3-2.41c-7.19-5.81-14.51-11.46-21.48-17.52-2.84-2.47-5.22-3-8.61-1.45-2.06.91-2.3,1.67-1.57,3.65q7.67,20.57,15.09,41.2c.71,2,1.54,2.73,3.59,1.59a12.42,12.42,0,0,1,3.87-1.37c1.78-.31,1.77-1.26,1.28-2.56-1.66-4.38-3.36-8.75-5-13.15-1.77-4.79-3.47-9.62-5.2-14.43,4.12,2.76,7.87,5.72,11.6,8.7s7.33,5.92,11.05,8.81c1.9,1.47,5.05.41,5.48-1.83,1.18-6.11,2.27-12.23,3.43-18.34C358.72,103.53,359.42,100.32,360.07,97.11Zm378.47,72.5a6.1,6.1,0,0,1-1.7,3.17q-7.61,10.23-15.31,20.41c-.81,1.08-1.07,1.85.38,2.69a24.34,24.34,0,0,1,3.89,2.91c1.16,1,1.81,1.13,2.82-.31,2.74-3.91,5.69-7.68,8.55-11.51q9.39-12.56,18.77-25.1c.71-1,1-1.47-.25-2.43-4.82-3.65-4.76-3.72-10.19-1.31l-.44.2-27,11.47c-1.21.51-2.17.79-1.91-1.23.4-3.14.61-6.29.92-9.44.71-7.33,1-14.74,2.29-22,.7-4-.93-6-3.87-7.71a1.85,1.85,0,0,1-.39-.3c-1-1-1.66-.67-2.47.43Q699,148,685.15,166.35c-.72,1-.86,1.58.3,2.32a38.69,38.69,0,0,1,4.48,3.35c1,.86,1.51.73,2.26-.29q6.09-8.34,12.29-16.61c1.84-2.46,3.77-4.86,6-7.77-.94,10.22-1.81,19.73-2.68,29.24-.2,2.21,2.37,4.24,4.39,3.42,6.19-2.54,12.34-5.21,18.57-7.66C733.28,171.37,735.62,169.83,738.54,169.61ZM120.86,622.08a32.43,32.43,0,0,0-6.63,1C100.1,627.12,93,640.15,97,653.41c2.54,8.48,6.94,16.18,10.47,24.25.5,1.13,1,1.12,2,.63,5.42-2.54,10.9-5,16.34-7.46q12.58-5.76,25.13-11.58c.8-.37,2.2-.32,1.37-2.08-3.32-7-6.2-14.24-9.83-21.08C137.94,627.6,130.89,622.47,120.86,622.08ZM854.3,457.17a28.15,28.15,0,0,0,.56,5.19c1.53,11.13,11,21,23.19,21.32,8.39.22,15.56-2.06,21-8.59s6.73-13.88,5.66-22.1c-2.09-16-17.42-26-32.83-21.14C861.06,435.24,854.3,444.87,854.3,457.17ZM627.73,878.23A27.73,27.73,0,0,0,646.14,872c12.54-9.7,13.16-26.74,2.36-37.84-7.4-7.61-16.83-9.16-26.73-5.72-10.57,3.68-17.61,10.63-18.71,22.42C601.73,865.18,613.06,878.77,627.73,878.23ZM615.19,117.8a21.07,21.07,0,0,0,4.17,13.67c6.41,8.91,15.2,12.92,26.15,12.24,12.58-.78,22-11.19,22.68-24,.49-8.61-3-15.64-9.83-20.9-8.23-6.36-17.55-8.16-27.29-4.72S615,107.66,615.19,117.8Zm-181.33-4.5c13.87.62,26.41-9.25,27.28-22.79.66-10.21-2.83-18.47-11.61-24.08-5.59-3.58-11.8-4-18.28-3.42a25.3,25.3,0,0,0-22.34,31.56A24.83,24.83,0,0,0,433.86,113.3Zm415,446.14c1.28-.6,2.37-1.09,3.44-1.62,4-2,7.93-4,11.85-6.06,1.5-.8,2.25-.76,2.87,1.07,3.12,9.2,12.09,12,20.31,10.18,6.7-1.47,10.17-6.59,12.12-12.76,1.64-5.19,1.91-10.66,2.77-16,.41-2.55.72-5.12,1-7.68.11-.92.12-1.71-1.2-1.88-4.81-.64-9.61-1.4-14.41-2.07-6.58-.93-13.15-1.81-19.73-2.73-3.84-.54-7.69-1.12-11.53-1.69-1-.14-1.83-.08-2,1.13-.27,2.17-.47,4.34-.75,6.51-.13,1,.12,1.35,1.24,1.48,3.78.41,7.54,1.06,11.33,1.51,1.07.13,1.33.42,1.15,1.51-.58,3.52-1.09,7-1.48,10.59-.11,1.05-.7,1.36-1.42,1.72-4.26,2.13-8.5,4.32-12.8,6.35a2.91,2.91,0,0,0-2,2.49C849.42,554,849.15,556.6,848.84,559.44ZM507,904.49c3.7-.23,9.13-.68,14.56-.83,2.12-.06,2.32-.9,2.21-2.66q-1.38-22.59-2.62-45.2c-.07-1.14-.36-1.64-1.54-1.52-1.69.18-3.39.33-5.09.42-9.64.56-19.28,1.12-28.92,1.59-1.22.06-1.47.4-1.44,1.53.2,6.67.17,6.53,6.85,6s13.13-.76,19.69-1.1c.87-.05,1.76-.23,1.81,1.23q.18,5,.66,10c.18,1.87-.63,2.38-2.33,2.43-5.35.17-10.7.43-16.05.67s-5.46.24-5,5.57a5.24,5.24,0,0,1,0,1c-.19,1.34.57,1.39,1.61,1.33,6.88-.42,13.77-.78,20.65-1.18.83,0,1.4,0,1.45,1,.17,3.32.39,6.64.62,10,.08,1.08-.23,1.62-1.42,1.69-6.81.4-13.6.95-20.4,1.24-4.57.2-4.57,0-4.53,4.42a16.05,16.05,0,0,1,0,1.7c-.17,1.58.45,1.79,2,1.67C494.91,905,500.1,904.83,507,904.49ZM76.17,593.85c.39-.07.8-.12,1.19-.22,4.38-1.06,8.73-2.27,13.15-3.18,10.36-2.14,20.62-4.66,30.93-7,1.39-.33,1.6-.59,1.26-2-2.33-9.9-4.52-19.84-6.78-29.77-1-4.55-1-4.55-5.61-3.57a12.43,12.43,0,0,1-1.63.46c-1.27.06-1.27.59-1,1.69,1.85,7.93,3.54,15.9,5.45,23.82.4,1.65-.29,2.07-1.49,2.34-3.15.71-6.34,1.26-9.45,2.1-1.62.43-2.09-.07-2.41-1.55-1.35-6.24-2.83-12.44-4.21-18.67-.41-1.87-.89-3.22-3.21-1.88a6.63,6.63,0,0,1-2.81.65c-1.59.09-2,.52-1.56,2.24,1.64,6.49,3,13.06,4.61,19.56.39,1.57-.16,2.05-1.52,2.31-3,.58-6,1.12-9,1.9-1.3.34-1.7.43-2-1.13-1.4-6.73-3-13.41-4.57-20.09-1-4.39-1.08-4.38-5.5-3.4-3.14.7-3.12.7-2.42,3.73q3.53,15.23,7,30.45C74.77,593.58,75.14,594,76.17,593.85ZM759.59,789.11a5.75,5.75,0,0,1-.11,1.06c-.55,2.37.53,2.85,2.69,2.72,6.29-.35,11.52-3,16-7.18,5.74-5.27,9.13-11.84,9.18-19.67.06-7.59-3.17-13.88-8.83-19a24.56,24.56,0,0,0-30.08-2.2c-2.16,1.48-2.94.62-3.9-1.18-1.43-2.69-1.49-2.65-3.72-.94a6.77,6.77,0,0,1-1,.68,2.17,2.17,0,0,1-2.88-.33c-.83-.86-.59-1.78-.11-2.7a7.37,7.37,0,0,1,3.91-3.5c2.66-1,.36-2.12.22-3.16-.21-1.57-1.17-1.49-2.28-.91a15.1,15.1,0,0,0-7.21,7.59,6.18,6.18,0,0,0,1.67,7.26c2,1.7,4.13,1.58,6.39.62.66-.28,1.17-1.55,2.16-.29s.7,1.85-.23,2.89a25.59,25.59,0,0,0-6.31,13.39c-.67,4.24-.52,4.46,3.63,4.36,1.37,0,2.94.21,4-.38s.15-2.26.64-3.41a21.59,21.59,0,0,0,.63-2.58c2-7,10.86-14.52,20-12.42,8.58,2,14.87,9.42,14.46,18.12-.34,7.1-6.49,15.2-15.31,16.48C759.69,785,759.69,785,759.59,789.11ZM189.73,718.8c.22-4.41-2-8.47-4.63-12.44-7.18-10.91-19.34-13.19-29.9-5.46-7.39,5.41-14.68,11-22,16.41-1.08.8-1.68,1.36-.44,2.58a25.23,25.23,0,0,1,2.47,3.29c2,2.74,1.9,2.67,4.54.66,7.35-5.61,14.62-11.33,22.3-16.47,4.62-3.09,8.91-3,12.88-.16,4.55,3.29,7.1,8.94,5.83,13.45a14.61,14.61,0,0,1-5.64,7.71q-9.9,7.44-19.81,14.87c-3.06,2.3-3,2.33-1,5.36.73,1.07,1.6,2,2.27,3.15s1.29,1.16,2.38.33c7.61-5.81,15.39-11.38,22.87-17.33C186.66,730.9,189.83,725.9,189.73,718.8Zm-48.48-408a22.88,22.88,0,0,0,4.12-.38c10-2.1,16.85-14.65,17-22.29.23-8.82-4.87-14.28-11.79-18.42-6.74-4-13.66-7.74-20.48-11.64-4.22-2.42-4.19-2.46-6.51,2-.34.64-.77,1.23-1.16,1.84-.68,1.08-.94,1.86.59,2.66,3.66,1.9,7.24,4,10.77,6.09,5.13,3.08,10.66,5.53,15.4,9.23,3.57,2.78,5.56,6.45,4.37,11.05s-3.49,8.37-8.14,10.2c-4.5,1.77-8.48-.11-12.24-2.17-7.45-4.07-14.77-8.39-22.15-12.62-1.18-.67-2.16-1.29-2.85.73a17.19,17.19,0,0,1-2.51,4.42c-1,1.4-.79,2.08.72,2.92,6.58,3.67,13.08,7.48,19.64,11.18C130.81,308.24,135.59,310.84,141.25,310.82ZM778.64,711.69c5.74.9,11.1,1.71,16.45,2.59,11.9,2,23.79,3.91,35.67,6A1.76,1.76,0,0,0,833,719c1-2.43,4-3.88,3.43-7,0-.14-.21-.25-.3-.38q-9.64-15.47-19.29-30.91c-2.79-4.44-5.61-8.87-8.56-13.55-1.5,2.25-2.72,4.35-4.21,6.23a2.31,2.31,0,0,0-.08,3.23c1.72,2.46,3.32,5,5,7.46a1.84,1.84,0,0,1,.16,2.41C805,692.64,800.8,698.81,796.7,705c-.63,1-1.22.74-2,.58-3.18-.6-6.37-1.13-9.56-1.7-.74-.13-1.34-.19-1.85.64C781.82,706.89,780.28,709.16,778.64,711.69Zm-364,139c-2.71-1.23-5.36-1.29-7.8-2.13a1.91,1.91,0,0,0-2.29.9c-1.87,2.44-3.86,4.78-5.66,7.27a1.85,1.85,0,0,1-2.38.88c-6.25-1.65-12.49-3.29-18.78-4.75-2.69-.62-4.23-1.71-4.18-4.76,0-2-.91-4-.86-6,.07-2.23-1.16-2.84-2.84-3.29s-3.6-.93-5.4-1.36c-.94-.22-1.56-.14-1.28,1.18.59,2.76,1.07,5.55,1.55,8.33,2.11,12.34,4.58,24.65,6.14,37.06.66,5.27,2.71,7.67,7.72,8.24,1.57.18,2.59.18,3.72-1.24,9.41-11.86,18.93-23.63,28.41-35.43C411.93,854.07,413.18,852.49,414.59,850.73ZM136,342.9c-6.37.74-12.54,1.48-18.72,2.18-10,1.14-19.94,2.69-30,3.19-4.83.24-5.94,2.67-7.06,6.33-.65,2.13-.54,3.43,1.24,5,8.57,7.55,17,15.28,25.48,22.93,4.11,3.71,8.26,7.38,12.57,11.23.92-2.79,1.63-5.28,2.55-7.68a1.65,1.65,0,0,0-.64-2.23c-2.37-2-4.66-4-7-6-.73-.64-1.41-1.25-1-2.47q3.43-10.35,6.72-20.74a2.08,2.08,0,0,1,2.31-1.61c2.84-.1,5.67-.37,8.5-.53a2.34,2.34,0,0,0,2.52-2C134.09,348,135.05,345.56,136,342.9ZM711.64,778.77c-2.38,1.53-4.67,3-7,4.47-.83.51-.7,1.11-.56,1.86.55,2.94,1,5.91,1.58,8.83.27,1.32.32,2.14-1,3-6,3.93-12,8-17.9,12.1a2,2,0,0,1-2.61-.2c-2.46-1.7-5-3.36-7.44-5-.66-.43-1.38-1-2.22-.48-2.38,1.58-4.73,3.2-7.35,5,6.74,4.19,13.14,8.15,19.52,12.13,7.07,4.41,14.43,8.45,21.1,13.4,4.38,3.26,7.47,2.38,11.11-.57,1.23-1,1.75-1.72,1.31-3.36-.58-2.17-.7-4.47-1.07-6.7C716.62,808.49,714.15,793.73,711.64,778.77ZM295.27,152c0-5.53-3.84-11.26-8.25-12.24a22.24,22.24,0,0,0-10.6.38c-4.6,1.22-8.95,3.29-13.68,4.06-2.33.38-4.4,0-5.79-2.15a5.45,5.45,0,0,1,0-6.17,10.22,10.22,0,0,1,2.12-2.64,27.82,27.82,0,0,1,11.8-5.93c1.67-.42,4.2.54,4.83-1s-.49-3.57-.74-5.41c-.18-1.32-.86-1.71-2.15-1.65a26.49,26.49,0,0,0-10,2.67c-6.11,2.79-11.4,6.53-14.31,12.88-3.2,7,.51,15.75,7.6,17.87,4.51,1.34,8.8-.14,13.06-1.41s8.12-3.29,12.59-3.2a4.9,4.9,0,0,1,4.58,6.82,11.22,11.22,0,0,1-4,5.11,29.85,29.85,0,0,1-14.51,5.65c-1.36.17-3.16-.57-4,.39-1,1.12.2,2.76.39,4.19.5,3.58.54,3.78,4.17,3.3,8.77-1.16,16.53-4.53,22.56-11.21A15.32,15.32,0,0,0,295.27,152ZM566.4,68.74A29.15,29.15,0,0,0,554,71.63C543.87,77.07,538.65,90,541.76,101c4.49,15.9,23.85,22.32,36.87,16.49,4.72-2.11,4.71-2.14,1.79-6.46a4.58,4.58,0,0,1-.38-.63c-.91-2-2-2.2-4-1.09-6.45,3.7-12.91,2.77-18.78-1.14-5.69-3.78-7.85-9.44-6.85-16.27,1-6.51,4.05-11.58,10.38-13.78,7.25-2.51,14-1.37,19.78,4.17,1,1,1.17,3.15,2.81,3,1.31-.15,2.48-1.4,3.72-2.16.21-.13.43-.24.63-.36,2.43-1.5,2.43-1.61.59-4C582.74,71.64,575.09,69,566.4,68.74ZM895.77,391.81l-2.68-10.05c-2-7.49-4-15-6-22.47-.39-1.51-1-1.89-2.57-1.43-4,1.19-8.1,2.17-12.15,3.25-10.85,2.9-21.68,5.83-32.53,8.7-1,.26-1,.6-.72,1.45.64,2.08,1.2,4.19,1.67,6.31.29,1.31,1,1.54,2.11,1.17,4.81-1.7,9.83-2.6,14.69-4.1,1.51-.46,2.09.08,2.44,1.41,1.4,5.31,2.9,10.59,4.22,15.92s1.19,5.11,6.52,3.8c2.27-.55,2.18-1.46,1.71-3.17-1.74-6.31-3.34-12.65-5.15-18.94-.39-1.36,0-1.74,1.13-2,3.67-1,7.37-1.8,11-2.95,1.71-.55,2.19.11,2.55,1.47q2.46,9.23,4.93,18.45c1.61,6,1.76,6.1,7.76,3.78a1,1,0,0,1,.24,0C895.55,392.25,895.85,392,895.77,391.81ZM288.43,849.49c-1.12.59-1.2,1.82-1.67,2.77-2,4-2,4.09,1.91,6Q302.8,864.93,317,871.6c1.75.83,3.7,2.44,5.28,2.16,1.86-.34,1.87-3.24,2.95-4.87.81-1.24.63-1.92-.82-2.55-3.85-1.7-7.6-3.6-11.44-5.33-1.3-.58-1.64-1-.94-2.5,4.74-9.92,9.37-19.9,14-29.88.9-2,3.05-4,2.39-5.85s-3.75-1.9-5.56-3.09-2.53-.76-3.37,1.08c-5.22,11.38-10.58,22.7-15.79,34.08-.68,1.5-1.25,1.38-2.46.78-3.75-1.88-7.57-3.63-11.36-5.43C289.38,850,289,849.76,288.43,849.49Zm-99.9-73.83a12,12,0,0,0-.95.83,39.22,39.22,0,0,1-3.06,3.37c-1.22,1-1,1.63.11,2.61,8.76,7.92,17.45,15.91,26.16,23.88,3.33,3,3.33,3,6.32-.2a13.74,13.74,0,0,1,1.36-1.39c.92-.74.88-1.24-.05-2-3-2.6-5.89-5.32-8.86-8-2.23-2-2.25-2.09-.24-4.29q12.38-13.53,24.76-27.08c.89-1,1.38-1.67-.05-2.64a21.56,21.56,0,0,1-3-2.8c-2.34-2.36-2.45-2.34-4.61,0-8.21,9-16.45,18.06-24.62,27.13-.95,1-1.53,1-2.52.13-2.95-2.76-6-5.44-9-8.14C189.74,776.62,189.16,776.18,188.53,775.66Zm-7.78-577.6c0-.5-.35-.7-.65-1a22.48,22.48,0,0,1-2.89-2.6c-1.59-1.92-2.61-1.31-4,.34-7.18,8.59-14.48,17.07-21.72,25.61-3.7,4.37-3.63,4.32.9,8.1,1.29,1.08,1.93.77,2.82-.32,2.67-3.25,5.43-6.44,8.09-9.7.76-.93,1.32-1.22,2.32-.26,1.34,1.3,2.85,2.41,4.26,3.62q12.47,10.68,24.89,21.39c1,.84,1.51.85,2.29-.14a38.53,38.53,0,0,1,3.79-4.45c1.16-1.1.9-1.6-.19-2.53-9.58-8.12-19.08-16.34-28.68-24.43-1.44-1.21-1.38-1.94-.22-3.2,2.79-3,5.49-6.16,8.2-9.27A9.11,9.11,0,0,0,180.75,198.06Zm61.25.34c-.61-.76-.89-1.13-1.19-1.48-1.58-1.84-3.15-3.68-4.74-5.51q-11.77-13.56-23.57-27.1c-2.92-3.34-3-3.27-6.41-.52-3.65,2.92-3.64,2.92-.64,6.3.16.18.29.39.45.57q14,16.16,28,32.32c.8.94,1.24,1.18,2.21.21,1.43-1.42,3-2.69,4.57-4A9.68,9.68,0,0,1,242,198.4Zm544.63,67.72c.67.11.88-.31,1.2-.55,11.16-8.18,22.34-16.33,33.45-24.58,1.68-1.24,4.69-2,4.58-4.05-.09-1.85-2.29-3.57-3.48-5.4-.89-1.35-1.73-1.48-3.06-.49-5.58,4.17-11.21,8.28-16.83,12.39q-9.9,7.26-19.83,14.48c-1,.73-1.54,1.23-.52,2.44,1.35,1.59,2.49,3.38,3.74,5.06A4.57,4.57,0,0,0,786.63,266.12ZM279.74,795.94c-.34-.27-.63-.53-1-.75-1.6-1.1-3.31-2.07-4.8-3.31s-2.19-.73-3.13.69q-11.39,17.2-22.9,34.32c-3.28,4.9-3.29,4.89,1.72,8.12a11.8,11.8,0,0,1,1,.69c1.19,1,1.9,1.14,2.92-.52,2.82-4.61,6-9,9-13.53L279,797C279.21,796.68,279.45,796.35,279.74,795.94Zm-196.91-325a7.69,7.69,0,0,0,7.81,7.59,7.65,7.65,0,1,0-.39-15.29A7.61,7.61,0,0,0,82.83,470.91ZM722.6,844.35c8.15.89,10.72-5.57,8.44-10.81-.34-.78-.47-2.82-2.08-1.79-1.13.72-3.56,1-2.39,3.62.94,2.12-.53,4-2.88,4.17-1.13.05-2.27,0-3.4-.07-6.78-.4-9.95,4.11-7.94,10.54.26.83.27,2.69,1.63,2,1.2-.59,3.74-.53,3-3.3s.6-4.4,3.68-4.38Z"/><path class="cls-2" d="M323.17,483c27.25,0,54.51,0,81.77-.06,2.31,0,2.73.68,2.73,2.83,0,18.14-.44,36.29.25,54.42a155,155,0,0,0,3.92,29.09,110,110,0,0,0,7.15,22c8.08,17.25,20.91,29.21,39.22,35a89.11,89.11,0,0,0,38.25,3.09c14.66-1.8,27.85-7.2,38.63-17.59a69.87,69.87,0,0,0,16.59-25.64,135.78,135.78,0,0,0,7.3-28.59c.83-5.36,1.1-10.82,1.4-16.25,1-18.44.26-36.9.39-55.36,0-2.47.61-3,3-3q80.31.12,160.62,0c2.58,0,3,.76,3,3.12-.14,16.92,0,33.84-.2,50.76a308.52,308.52,0,0,1-2.42,35.92,283.09,283.09,0,0,1-7.31,37.6,215.81,215.81,0,0,1-12.42,34.38,201.3,201.3,0,0,1-20.3,34.81,196.26,196.26,0,0,1-40.18,40.76,213.38,213.38,0,0,1-61.51,32,296.52,296.52,0,0,1-32.55,8.51,264.63,264.63,0,0,1-35.57,5,397.71,397.71,0,0,1-48.71.85q-16.2-.76-32.25-2.6c-8.11-.92-16.14-2.55-24.13-4.26a243.29,243.29,0,0,1-48.13-15.52,204.65,204.65,0,0,1-41.27-24.39A196.16,196.16,0,0,1,273,668a212.29,212.29,0,0,1-24.2-55.35,263.71,263.71,0,0,1-6.55-30.33,295.14,295.14,0,0,1-3.73-43.12c-.24-18.06,0-36.11-.2-54.17,0-2.29,1.24-2,2.61-2Z"/><path class="cls-3" d="M322.62,421.65A84.91,84.91,0,0,1,238.3,334.9c.89-44.74,37.91-83.66,86.45-82.62a84.18,84.18,0,0,1,82.75,84.79C407.33,384.93,369.08,421.3,322.62,421.65Z"/><path class="cls-4" d="M642.57,421.64c-46.89-.5-85.37-38.32-84.38-86.77a84.6,84.6,0,0,1,169.17,2.23C727.19,384.44,688.92,421.41,642.57,421.64Z"/><path class="cls-5" d="M854.86,644.28c-6-7.73-11.77-15.16-17.57-22.56-2-2.55-1.18-5.16,1.91-5.81q12-2.52,24.12-4.38c1.34-.21,2.64-.65,4.26-1-4.55-1.79-8.87-3.51-13.21-5.18-5-1.92-9.94-3.83-15-5.66-1.19-.44-1.53-.93-1-2.15.9-2.07,1.1-5,2.63-6.09s3.91,1,5.89,1.78c10.2,3.82,20.34,7.8,30.51,11.71,2.72,1,5.41,2.16,8.19,3,1.41.43,1.27,1.12.92,2.12-1.94,5.63-2,5.48-7.85,6.48-10.44,1.75-20.83,3.71-31.53,5.63a66.75,66.75,0,0,0,5.76,7.63q8.29,10.49,16.74,20.86c.84,1,.59,1.83.19,2.87-2,5.34-2,5.33-7.31,3.31-12.84-4.87-25.68-9.77-38.55-14.55-1.84-.68-2.52-1.29-1.48-3.23,1-1.76,1.05-4.61,2.41-5.34s3.65,1,5.52,1.71q11.68,4.44,23.38,8.78A5.61,5.61,0,0,0,854.86,644.28Z"/><path class="cls-5" d="M360.07,97.11c-.65,3.21-1.35,6.42-2,9.64-1.16,6.11-2.25,12.23-3.43,18.34-.43,2.24-3.58,3.3-5.48,1.83-3.72-2.89-7.36-5.88-11.05-8.81s-7.48-5.94-11.6-8.7c1.73,4.81,3.43,9.64,5.2,14.43,1.62,4.4,3.32,8.77,5,13.15.49,1.3.5,2.25-1.28,2.56a12.42,12.42,0,0,0-3.87,1.37c-2.05,1.14-2.88.37-3.59-1.59q-7.46-20.63-15.09-41.2c-.73-2-.49-2.74,1.57-3.65,3.39-1.51,5.77-1,8.61,1.45,7,6.06,14.29,11.71,21.48,17.52,1,.81,2,1.6,3,2.41s1.37.5,1.57-.66c1.06-6,2.18-11.93,3.23-17.9.89-5.09,1.73-10.2,2.56-15.3.32-2,1.52-3,3.39-3.58,4.34-1.42,4.3-1.47,5.91,2.86q7.25,19.55,14.54,39.06c.71,1.91,1.07,3.48-1.83,3.93-1.83.29-4,2.25-5.3,1.42s-1.6-3.37-2.27-5.18q-4.32-11.69-8.62-23.39Z"/><path class="cls-5" d="M738.54,169.61c-2.92.22-5.26,1.76-7.75,2.74-6.23,2.45-12.38,5.12-18.57,7.66-2,.82-4.59-1.21-4.39-3.42.87-9.51,1.74-19,2.68-29.24-2.26,2.91-4.19,5.31-6,7.77q-6.19,8.28-12.29,16.61c-.75,1-1.27,1.15-2.26.29a38.69,38.69,0,0,0-4.48-3.35c-1.16-.74-1-1.35-.3-2.32Q699,148,712.66,129.57c.81-1.1,1.45-1.39,2.47-.43a1.85,1.85,0,0,0,.39.3c2.94,1.74,4.57,3.67,3.87,7.71-1.24,7.24-1.58,14.65-2.29,22-.31,3.15-.52,6.3-.92,9.44-.26,2,.7,1.74,1.91,1.23l27-11.47.44-.2c5.43-2.41,5.37-2.34,10.19,1.31,1.27,1,1,1.48.25,2.43q-9.41,12.54-18.77,25.1c-2.86,3.83-5.81,7.6-8.55,11.51-1,1.44-1.66,1.35-2.82.31a24.34,24.34,0,0,0-3.89-2.91c-1.45-.84-1.19-1.61-.38-2.69q7.69-10.17,15.31-20.41A6.1,6.1,0,0,0,738.54,169.61Zm.42-.19-.32.18c.06.05.12.16.16.15a2,2,0,0,0,.33-.15Z"/><path class="cls-5" d="M840.1,290.83c-7.25,3-14,7-21.13,10.3-2.2,1-4.38,2.07-6.5,3.22-1,.56-1.61.36-2.06-.65s-.92-2.08-1.44-3.08c-2-3.73-2-3.72,1.87-5.63q19.42-9.71,38.85-19.45c1.12-.57,1.71-.42,2.19.77a23.19,23.19,0,0,0,1.86,3.69,3.13,3.13,0,0,1,0,3.39c-5.5,12-10.93,24-16.38,36a4.89,4.89,0,0,0-.13,1c3.13-1,5.72-2.74,8.48-4.08,6.47-3.13,12.9-6.37,19.3-9.64,1.23-.63,1.85-.47,2.4.79a51.37,51.37,0,0,0,2.57,5.21c.65,1.13.46,1.67-.7,2.24-13.62,6.74-27.24,13.47-40.81,20.32-1.69.85-2,.37-3-1-2.31-3.42-1.83-6.4-.14-10,5.19-10.95,10.05-22.07,15-33.12.15-.19.29-.4,0-.56C840.39,290.56,840.22,290.74,840.1,290.83Z"/><path class="cls-5" d="M120.86,622.08c10,.39,17.08,5.52,21.58,14,3.63,6.84,6.51,14.08,9.83,21.08.83,1.76-.57,1.71-1.37,2.08q-12.54,5.82-25.13,11.58c-5.44,2.5-10.92,4.92-16.34,7.46-1,.49-1.49.5-2-.63-3.53-8.07-7.93-15.77-10.47-24.25-4-13.26,3.13-26.29,17.26-30.33A32.43,32.43,0,0,1,120.86,622.08Zm0,9.21c-2.7-.25-5.58,1.2-8.49,2.66-5.8,2.89-9.74,10.75-7.72,17.73,1.46,5,4.06,9.51,6,14.32.45,1.14,1.14,1.07,2.13.6,3.44-1.61,6.92-3.13,10.38-4.7,5.74-2.6,11.48-5.2,17.19-7.88.6-.28,2-.29,1.23-1.77-2.17-4.24-3.62-8.85-6.22-12.87C132.12,634.44,127.78,631.21,120.85,631.29Z"/><path class="cls-5" d="M854.3,457.17c0-12.3,6.76-21.93,17.54-25.32C887.25,427,902.58,437,904.67,453c1.07,8.22-.36,15.69-5.66,22.1s-12.57,8.81-21,8.59c-12.2-.32-21.66-10.19-23.19-21.32A28.15,28.15,0,0,1,854.3,457.17Zm42.61.32c0-10.24-7.1-17.56-17.06-17.56s-17.47,7.16-17.47,17c0,10.76,7.33,17.52,17,17.74A16.75,16.75,0,0,0,896.91,457.49Z"/><path class="cls-5" d="M627.73,878.23c-14.67.54-26-13.05-24.67-27.38,1.1-11.79,8.14-18.74,18.71-22.42,9.9-3.44,19.33-1.89,26.73,5.72,10.8,11.1,10.18,28.14-2.36,37.84A27.73,27.73,0,0,1,627.73,878.23ZM629,870c9.15,0,17.73-6.6,17.9-17,.14-9.17-7.74-17.41-15.89-17.83-10.17-.53-19,7.82-19.08,16.56C611.84,861.44,620,870.56,629,870Z"/><path class="cls-5" d="M615.2,117.8c-.2-10.14,6.26-20.33,15.87-23.72s19.06-1.64,27.29,4.72c6.8,5.26,10.32,12.29,9.83,20.9-.72,12.82-10.1,23.23-22.68,24-11,.68-19.74-3.33-26.15-12.24A21,21,0,0,1,615.2,117.8Zm26.61,17.75c9.44.15,17.21-7.71,17.4-17.58.17-9.21-7.8-17-17.53-17.2-10.89-.28-16.86,9.17-17.38,16.71C623.59,127.93,632.49,135.47,641.81,135.55Z"/><path class="cls-5" d="M433.86,113.3a24.83,24.83,0,0,1-24.95-18.73A25.3,25.3,0,0,1,431.25,63c6.48-.6,12.69-.16,18.28,3.42C458.31,72,461.8,80.3,461.14,90.51,460.27,104.05,447.73,113.92,433.86,113.3ZM417.48,88c0,10,7.25,17.5,16.94,17.37,10.78-.15,17.7-7.11,17.72-17,0-10.7-7.65-17.71-17.32-17.66C424.67,70.75,417.05,78.64,417.48,88Z"/><path class="cls-5" d="M848.84,559.44c.31-2.84.58-5.4.86-8a2.91,2.91,0,0,1,2-2.49c4.3-2,8.54-4.22,12.8-6.35.72-.36,1.31-.67,1.42-1.72.39-3.54.9-7.07,1.48-10.59.18-1.09-.08-1.38-1.15-1.51-3.79-.45-7.55-1.1-11.33-1.51-1.12-.13-1.37-.47-1.24-1.48.28-2.17.48-4.34.75-6.51.15-1.21,1-1.27,2-1.13,3.84.57,7.69,1.15,11.53,1.69,6.58.92,13.15,1.8,19.73,2.73,4.8.67,9.6,1.43,14.41,2.07,1.32.17,1.31,1,1.2,1.88-.32,2.56-.63,5.13-1,7.68-.86,5.35-1.13,10.82-2.77,16-1.95,6.17-5.42,11.29-12.12,12.76-8.22,1.79-17.19-1-20.31-10.18-.62-1.83-1.37-1.87-2.87-1.07-3.92,2.08-7.89,4-11.85,6.06C851.21,558.35,850.12,558.84,848.84,559.44Zm24.51-16.18c0,.33,0,.65,0,1,.12,5.94,2.83,9.18,8.66,10.14a9.44,9.44,0,0,0,10.12-7.2c1.21-4.3,1.43-8.74,2.28-13.09.28-1.4-.82-1.16-1.5-1.27q-8.14-1.34-16.28-2.55c-.77-.12-1.72-.29-1.8,1C874.58,535.28,873.37,539.2,873.35,543.26Z"/><path class="cls-5" d="M507,904.49c-6.91.34-12.1.49-17.28.9-1.53.12-2.15-.09-2-1.67a16.05,16.05,0,0,0,0-1.7c0-4.38,0-4.22,4.53-4.42,6.8-.29,13.59-.84,20.4-1.24,1.19-.07,1.5-.61,1.42-1.69-.23-3.32-.45-6.64-.62-10,0-1.09-.62-1.09-1.45-1-6.88.4-13.77.76-20.65,1.18-1,.06-1.8,0-1.61-1.33a5.24,5.24,0,0,0,0-1c-.43-5.33-.43-5.33,5-5.57s10.7-.5,16.05-.67c1.7,0,2.51-.56,2.33-2.43q-.48-5-.66-10c0-1.46-.94-1.28-1.81-1.23-6.56.34-13.14.56-19.69,1.1s-6.65.69-6.85-6c0-1.13.22-1.47,1.44-1.53,9.64-.47,19.28-1,28.92-1.59,1.7-.09,3.4-.24,5.09-.42,1.18-.12,1.47.38,1.54,1.52q1.25,22.61,2.62,45.2c.11,1.76-.09,2.6-2.21,2.66C516.14,903.81,510.71,904.26,507,904.49Z"/><path class="cls-5" d="M76.17,593.85c-1,.18-1.4-.27-1.63-1.27q-3.44-15.24-7-30.45c-.7-3-.72-3,2.42-3.73,4.42-1,4.46-1,5.5,3.4,1.58,6.68,3.17,13.36,4.57,20.09.32,1.56.72,1.47,2,1.13,3-.78,6-1.32,9-1.9,1.36-.26,1.91-.74,1.52-2.31-1.6-6.5-3-13.07-4.61-19.56-.44-1.72,0-2.15,1.56-2.24a6.63,6.63,0,0,0,2.81-.65c2.32-1.34,2.8,0,3.21,1.88,1.38,6.23,2.86,12.43,4.21,18.67.32,1.48.79,2,2.41,1.55,3.11-.84,6.3-1.39,9.45-2.1,1.2-.27,1.89-.69,1.49-2.34-1.91-7.92-3.6-15.89-5.45-23.82-.26-1.1-.26-1.63,1-1.69a12.43,12.43,0,0,0,1.63-.46c4.56-1,4.58-1,5.61,3.57,2.26,9.93,4.45,19.87,6.78,29.77.34,1.43.13,1.69-1.26,2-10.31,2.38-20.57,4.9-30.93,7-4.42.91-8.77,2.12-13.15,3.18C77,593.73,76.56,593.78,76.17,593.85Z"/><path class="cls-5" d="M759.59,789.11c.1-4.13.1-4.14,3.68-4.66,8.82-1.28,15-9.38,15.31-16.48.41-8.7-5.88-16.14-14.46-18.12-9.13-2.1-18,5.44-20,12.42a21.59,21.59,0,0,1-.63,2.58c-.49,1.15.38,2.86-.64,3.41s-2.67.35-4,.38c-4.15.1-4.3-.12-3.63-4.36a25.59,25.59,0,0,1,6.31-13.39c.93-1,1.12-1.77.23-2.89s-1.5,0-2.16.29c-2.26,1-4.42,1.08-6.39-.62a6.18,6.18,0,0,1-1.67-7.26,15.1,15.1,0,0,1,7.21-7.59c1.11-.58,2.07-.66,2.28.91.14,1,2.44,2.15-.22,3.16a7.37,7.37,0,0,0-3.91,3.5c-.48.92-.72,1.84.11,2.7a2.17,2.17,0,0,0,2.88.33,6.77,6.77,0,0,0,1-.68c2.23-1.71,2.29-1.75,3.72.94,1,1.8,1.74,2.66,3.9,1.18a24.56,24.56,0,0,1,30.08,2.2c5.66,5.1,8.89,11.39,8.83,19,0,7.83-3.44,14.4-9.18,19.67-4.52,4.15-9.75,6.83-16,7.18-2.16.13-3.24-.35-2.69-2.72A5.75,5.75,0,0,0,759.59,789.11Z"/><path class="cls-5" d="M189.73,718.8c.1,7.1-3.07,12.1-7.92,16-7.48,6-15.26,11.52-22.87,17.33-1.09.83-1.66.86-2.38-.33s-1.54-2.08-2.27-3.15c-2-3-2.06-3.06,1-5.36q9.9-7.46,19.81-14.87a14.61,14.61,0,0,0,5.64-7.71c1.27-4.51-1.28-10.16-5.83-13.45-4-2.87-8.26-2.93-12.88.16-7.68,5.14-14.95,10.86-22.3,16.47-2.64,2-2.58,2.08-4.54-.66a25.23,25.23,0,0,0-2.47-3.29c-1.24-1.22-.64-1.78.44-2.58,7.36-5.44,14.65-11,22-16.41,10.56-7.73,22.72-5.45,29.9,5.46C187.71,710.33,190,714.39,189.73,718.8Z"/><path class="cls-5" d="M141.25,310.82c-5.66,0-10.44-2.58-15.17-5.25-6.56-3.7-13.06-7.51-19.64-11.18-1.51-.84-1.74-1.52-.72-2.92a17.19,17.19,0,0,0,2.51-4.42c.69-2,1.67-1.4,2.85-.73,7.38,4.23,14.7,8.55,22.15,12.62,3.76,2.06,7.74,3.94,12.24,2.17,4.65-1.83,7-5.68,8.14-10.2s-.8-8.27-4.37-11.05c-4.74-3.7-10.27-6.15-15.4-9.23-3.53-2.12-7.11-4.19-10.77-6.09-1.53-.8-1.27-1.58-.59-2.66.39-.61.82-1.2,1.16-1.84,2.32-4.41,2.29-4.37,6.51-2,6.82,3.9,13.74,7.61,20.48,11.64,6.92,4.14,12,9.6,11.79,18.42-.2,7.64-7.09,20.19-17,22.29A22.88,22.88,0,0,1,141.25,310.82Z"/><path class="cls-5" d="M778.64,711.69c1.64-2.53,3.18-4.8,4.61-7.14.51-.83,1.11-.77,1.85-.64,3.19.57,6.38,1.1,9.56,1.7.82.16,1.41.38,2-.58,4.1-6.22,8.28-12.39,12.47-18.55a1.84,1.84,0,0,0-.16-2.41c-1.71-2.46-3.31-5-5-7.46a2.31,2.31,0,0,1,.08-3.23c1.49-1.88,2.71-4,4.21-6.23,3,4.68,5.77,9.11,8.56,13.55q9.66,15.45,19.29,30.91c.09.13.28.24.3.38.53,3.15-2.45,4.6-3.43,7a1.76,1.76,0,0,1-2.23,1.23c-11.88-2.06-23.77-4-35.67-6C789.74,713.4,784.38,712.59,778.64,711.69ZM814.15,692c-3.14,4.65-6,9.05-9.06,13.34-1.23,1.73-.78,2.23,1.09,2.53,3.43.55,6.83,1.29,10.26,1.82,3.21.49,6.36,1.42,10.21,1.51Z"/><path class="cls-5" d="M414.59,850.73c-1.41,1.76-2.66,3.34-3.93,4.91-9.48,11.8-19,23.57-28.41,35.43-1.13,1.42-2.15,1.42-3.72,1.24-5-.57-7.06-3-7.72-8.24-1.56-12.41-4-24.72-6.14-37.06-.48-2.78-1-5.57-1.55-8.33-.28-1.32.34-1.4,1.28-1.18,1.8.43,3.6.89,5.4,1.36s2.91,1.06,2.84,3.29c-.05,2,.89,4,.86,6-.05,3.05,1.49,4.14,4.18,4.76,6.29,1.46,12.53,3.1,18.78,4.75a1.85,1.85,0,0,0,2.38-.88c1.8-2.49,3.79-4.83,5.66-7.27a1.91,1.91,0,0,1,2.29-.9C409.23,849.44,411.88,849.5,414.59,850.73ZM393,864.32c-5.65-1.54-10.85-3-16.05-4.36-1.09-.29-1.67-.13-1.42,1.28.67,3.82,1.24,7.65,1.77,11.49.43,3.14.49,6.35,1.83,9.64Z"/><path class="cls-5" d="M136,342.9c-.9,2.66-1.86,5.06-2.47,7.53a2.34,2.34,0,0,1-2.52,2c-2.83.16-5.66.43-8.5.53a2.08,2.08,0,0,0-2.31,1.61q-3.29,10.39-6.72,20.74c-.4,1.22.28,1.83,1,2.47,2.31,2,4.6,4.08,7,6a1.65,1.65,0,0,1,.64,2.23c-.92,2.4-1.63,4.89-2.55,7.68-4.31-3.85-8.46-7.52-12.57-11.23C98.44,374.88,90,367.15,81.45,359.6c-1.78-1.57-1.89-2.87-1.24-5,1.12-3.66,2.23-6.09,7.06-6.33,10-.5,20-2,30-3.19C123.41,344.38,129.58,343.64,136,342.9ZM89.47,356.13c5.93,5.14,11.31,9.77,16.64,14.47.85.75,1.27.51,1.53-.34,1.68-5.36,3.32-10.73,5.06-16.37Z"/><path class="cls-5" d="M711.64,778.77c2.51,15,5,29.72,7.44,44.47.37,2.23.49,4.53,1.07,6.7.44,1.64-.08,2.37-1.31,3.36-3.64,3-6.73,3.83-11.11.57-6.67-5-14-9-21.1-13.4-6.38-4-12.78-7.94-19.52-12.13,2.62-1.78,5-3.4,7.35-5,.84-.55,1.56,0,2.22.48,2.49,1.66,5,3.32,7.44,5a2,2,0,0,0,2.61.2c5.94-4.08,11.87-8.17,17.9-12.1,1.35-.89,1.3-1.71,1-3-.62-2.92-1-5.89-1.58-8.83-.14-.75-.27-1.35.56-1.86C707,781.81,709.26,780.3,711.64,778.77Zm.07,48c-1.34-7.43-2.6-14.23-3.78-21-.29-1.63-.74-1.87-2.12-.87-2.95,2.12-6,4.06-9,6.15-1.43,1-3.85,1.54-4,3.13-.1,1.14,2.37,1.86,3.68,2.77.13.09.22.25.36.33Z"/><path class="cls-5" d="M295.27,152a15.32,15.32,0,0,1-4.33,10.27c-6,6.68-13.79,10.05-22.56,11.21-3.63.48-3.67.28-4.17-3.3-.19-1.43-1.36-3.07-.39-4.19.83-1,2.63-.22,4-.39a29.85,29.85,0,0,0,14.51-5.65,11.22,11.22,0,0,0,4-5.11,4.9,4.9,0,0,0-4.58-6.82c-4.47-.09-8.43,2-12.59,3.2s-8.55,2.75-13.06,1.41c-7.09-2.12-10.8-10.89-7.6-17.87,2.91-6.35,8.2-10.09,14.31-12.88a26.49,26.49,0,0,1,10-2.67c1.29-.06,2,.33,2.15,1.65.25,1.84,1.32,3.94.74,5.41s-3.16.62-4.83,1a27.82,27.82,0,0,0-11.8,5.93,10.22,10.22,0,0,0-2.12,2.64,5.45,5.45,0,0,0,0,6.17c1.39,2.11,3.46,2.53,5.79,2.15,4.73-.77,9.08-2.84,13.68-4.06a22.24,22.24,0,0,1,10.6-.38C291.43,140.72,295.25,146.45,295.27,152Z"/><path class="cls-5" d="M566.4,68.74c8.69.3,16.34,2.9,21.92,10,1.84,2.36,1.84,2.47-.59,4-.2.12-.42.23-.63.36-1.24.76-2.41,2-3.72,2.16-1.64.2-1.8-2-2.81-3-5.75-5.54-12.53-6.68-19.78-4.17-6.33,2.2-9.42,7.27-10.38,13.78-1,6.83,1.16,12.49,6.85,16.27,5.87,3.91,12.33,4.84,18.78,1.14,2-1.11,3.09-.87,4,1.09a4.58,4.58,0,0,0,.38.63c2.92,4.32,2.93,4.35-1.79,6.46-13,5.83-32.38-.59-36.87-16.49-3.11-11,2.11-24,12.2-29.39A29.15,29.15,0,0,1,566.4,68.74Z"/><path class="cls-5" d="M895.77,391.81c.08.17-.22.44-.82.53a1,1,0,0,0-.24,0c-6,2.32-6.15,2.24-7.76-3.78s-3.29-12.3-4.93-18.45c-.36-1.36-.84-2-2.55-1.47-3.61,1.15-7.31,2-11,2.95-1.11.29-1.52.67-1.13,2,1.81,6.29,3.41,12.63,5.15,18.94.47,1.71.56,2.62-1.71,3.17-5.33,1.31-5.21,1.49-6.52-3.8s-2.82-10.61-4.22-15.92c-.35-1.33-.93-1.87-2.44-1.41-4.86,1.5-9.88,2.4-14.69,4.1-1.06.37-1.82.14-2.11-1.17-.47-2.12-1-4.23-1.67-6.31-.26-.85-.3-1.19.72-1.45,10.85-2.87,21.68-5.8,32.53-8.7,4.05-1.08,8.13-2.06,12.15-3.25,1.56-.46,2.18-.08,2.57,1.43,2,7.5,4,15,6,22.47Z"/><path class="cls-5" d="M288.43,849.49c.52.27.95.5,1.38.71,3.79,1.8,7.61,3.55,11.36,5.43,1.21.6,1.78.72,2.46-.78,5.21-11.38,10.57-22.7,15.79-34.08.84-1.84,1.65-2.21,3.37-1.08s4.89,1.3,5.56,3.09-1.49,3.89-2.39,5.85c-4.61,10-9.24,20-14,29.88-.7,1.47-.36,1.92.94,2.5,3.84,1.73,7.59,3.63,11.44,5.33,1.45.63,1.63,1.31.82,2.55-1.08,1.63-1.09,4.53-2.95,4.87-1.58.28-3.53-1.33-5.28-2.16q-14.15-6.68-28.28-13.39c-3.92-1.86-3.93-1.9-1.91-6C287.23,851.31,287.31,850.08,288.43,849.49Z"/><path class="cls-5" d="M188.53,775.66c.63.52,1.21,1,1.75,1.44,3,2.7,6,5.38,9,8.14,1,.92,1.57.92,2.52-.13C210,776,218.19,767,226.4,758c2.16-2.37,2.27-2.39,4.61,0a21.56,21.56,0,0,0,3,2.8c1.43,1,.94,1.67.05,2.64q-12.4,13.51-24.76,27.08c-2,2.2-2,2.31.24,4.29,3,2.64,5.86,5.36,8.86,8,.93.8,1,1.3.05,2a13.74,13.74,0,0,0-1.36,1.39c-3,3.23-3,3.24-6.32.2-8.71-8-17.4-16-26.16-23.88-1.09-1-1.33-1.56-.11-2.61a39.22,39.22,0,0,0,3.06-3.37A12,12,0,0,1,188.53,775.66Z"/><path class="cls-5" d="M180.75,198.06a9.11,9.11,0,0,1-.78,1.2c-2.71,3.11-5.41,6.23-8.2,9.27-1.16,1.26-1.22,2,.22,3.2,9.6,8.09,19.1,16.31,28.68,24.43,1.09.93,1.35,1.43.19,2.53a38.53,38.53,0,0,0-3.79,4.45c-.78,1-1.32,1-2.29.14q-12.4-10.74-24.89-21.39c-1.41-1.21-2.92-2.32-4.26-3.62-1-1-1.56-.67-2.32.26-2.66,3.26-5.42,6.45-8.09,9.7-.89,1.09-1.53,1.4-2.82.32-4.53-3.78-4.6-3.73-.9-8.1,7.24-8.54,14.54-17,21.72-25.61,1.38-1.65,2.4-2.26,4-.34a22.48,22.48,0,0,0,2.89,2.6C180.4,197.36,180.77,197.56,180.75,198.06Z"/><path class="cls-5" d="M242,198.4a9.68,9.68,0,0,0-1.34.8c-1.54,1.3-3.14,2.57-4.57,4-1,1-1.41.73-2.21-.21q-13.95-16.2-28-32.32c-.16-.18-.29-.39-.45-.57-3-3.38-3-3.38.64-6.3,3.42-2.75,3.49-2.82,6.41.52q11.83,13.5,23.57,27.1c1.59,1.83,3.16,3.67,4.74,5.51C241.11,197.27,241.39,197.64,242,198.4Z"/><path class="cls-5" d="M786.63,266.12a4.57,4.57,0,0,1-.75-.7c-1.25-1.68-2.39-3.47-3.74-5.06-1-1.21-.49-1.71.52-2.44q9.95-7.2,19.83-14.48c5.62-4.11,11.25-8.22,16.83-12.39,1.33-1,2.17-.86,3.06.49,1.19,1.83,3.39,3.55,3.48,5.4.11,2.08-2.9,2.81-4.58,4.05-11.11,8.25-22.29,16.4-33.45,24.58C787.51,265.81,787.3,266.23,786.63,266.12Z"/><path class="cls-5" d="M279.74,795.94c-.29.41-.53.74-.75,1.07l-16.43,24.64c-3,4.5-6.15,8.92-9,13.53-1,1.66-1.73,1.53-2.92.52a11.8,11.8,0,0,0-1-.69c-5-3.23-5-3.22-1.72-8.12q11.48-17.14,22.9-34.32c.94-1.42,1.63-1.93,3.13-.69s3.2,2.21,4.8,3.31C279.11,795.41,279.4,795.67,279.74,795.94Z"/><path class="cls-5" d="M82.83,470.91a7.61,7.61,0,0,1,7.42-7.7,7.65,7.65,0,1,1,.39,15.29A7.69,7.69,0,0,1,82.83,470.91Z"/><path class="cls-5" d="M722.6,844.35h-2c-3.08,0-4.46,1.49-3.68,4.38s-1.79,2.71-3,3.3c-1.36.68-1.37-1.18-1.63-2-2-6.43,1.16-10.94,7.94-10.54,1.13.06,2.27.12,3.4.07,2.35-.12,3.82-2,2.88-4.17-1.17-2.66,1.26-2.9,2.39-3.62,1.61-1,1.74,1,2.08,1.79C733.32,838.78,730.75,845.24,722.6,844.35Z"/><path class="cls-1" d="M739,169.42l.17.18a2,2,0,0,1-.33.15s-.1-.1-.16-.15Z"/><path class="cls-1" d="M840.1,290.83c.12-.09.29-.27.34-.24.29.16.15.37,0,.56C840.32,291.05,840.21,290.94,840.1,290.83Z"/><path class="cls-1" d="M120.85,631.29c6.93-.08,11.27,3.15,14.46,8.09,2.6,4,4.05,8.63,6.22,12.87.76,1.48-.63,1.49-1.23,1.77-5.71,2.68-11.45,5.28-17.19,7.88-3.46,1.57-6.94,3.09-10.38,4.7-1,.47-1.68.54-2.13-.6-1.9-4.81-4.5-9.3-6-14.32-2-7,1.92-14.84,7.72-17.73C115.27,632.49,118.15,631,120.85,631.29Z"/><path class="cls-1" d="M896.91,457.49a16.75,16.75,0,0,1-17.52,17.16c-9.68-.22-17-7-17-17.74,0-9.82,7.56-17,17.47-17S896.91,447.25,896.91,457.49Z"/><path class="cls-1" d="M629,870c-9,.59-17.17-8.53-17.07-18.25.09-8.74,8.91-17.09,19.08-16.56,8.15.42,16,8.66,15.89,17.83C646.74,863.37,638.16,870,629,870Z"/><path class="cls-1" d="M641.81,135.55c-9.32-.08-18.22-7.62-17.51-18.07.52-7.54,6.49-17,17.38-16.71,9.73.25,17.7,8,17.53,17.2C659,127.84,651.25,135.7,641.81,135.55Z"/><path class="cls-1" d="M417.48,88c-.43-9.36,7.19-17.25,17.34-17.3,9.67,0,17.35,7,17.32,17.66,0,9.9-6.94,16.86-17.72,17C424.73,105.5,417.48,98,417.48,88Z"/><path class="cls-1" d="M873.35,543.26c0-4.06,1.23-8,1.49-12,.08-1.26,1-1.09,1.8-1q8.15,1.22,16.28,2.55c.68.11,1.78-.13,1.5,1.27-.85,4.35-1.07,8.79-2.28,13.09a9.44,9.44,0,0,1-10.12,7.2c-5.83-1-8.54-4.2-8.66-10.14C873.35,543.91,873.35,543.59,873.35,543.26Z"/><path class="cls-1" d="M814.15,692l12.5,19.2c-3.85-.09-7-1-10.21-1.51-3.43-.53-6.83-1.27-10.26-1.82-1.87-.3-2.32-.8-1.09-2.53C808.13,701.09,811,696.69,814.15,692Z"/><path class="cls-1" d="M393,864.32l-13.87,18c-1.34-3.29-1.4-6.5-1.83-9.64-.53-3.84-1.1-7.67-1.77-11.49-.25-1.41.33-1.57,1.42-1.28C382.12,861.36,387.32,862.78,393,864.32Z"/><path class="cls-1" d="M89.47,356.13l23.23-2.24c-1.74,5.64-3.38,11-5.06,16.37-.26.85-.68,1.09-1.53.34C100.78,365.9,95.4,361.27,89.47,356.13Z"/><path class="cls-1" d="M711.71,826.74l-14.85-9.54c-.14-.08-.23-.24-.36-.33-1.31-.91-3.78-1.63-3.68-2.77.13-1.59,2.55-2.12,4-3.13,3-2.09,6.06-4,9-6.15,1.38-1,1.83-.76,2.12.87C709.11,812.51,710.37,819.31,711.71,826.74Z"/></g></g></svg>