<?xml version="1.0" encoding="utf-8"?>
<!-- Generator: Adobe Illustrator 26.0.0, SVG Export Plug-In . SVG Version: 6.00 Build 0)  -->
<svg version="1.1" id="Camada_1" xmlns="http://www.w3.org/2000/svg" xmlns:xlink="http://www.w3.org/1999/xlink" x="0px" y="0px"
	 viewBox="0 0 955 376.6" style="enable-background:new 0 0 955 376.6;" xml:space="preserve">
<style type="text/css">
	.st0{fill:#2892E8;}
</style>
<g id="Camada_2_00000102528520211780003340000007600433746226572191_">
	<g id="Camada_1-2">
		<path class="st0" d="M389.2,329.2c-1.4,4.8-3.8,3.9-7,2.1c1.8-4.7,3.6-9.1,5.5-14.2H238.2c-3.5,8.8-7,17.6-10.6,26.2
			c-0.7,1.6-1.9,4.1-3,4.2c-6.6,0.4-13.1,0.2-20.4,0.2l12.1-30.8h-27.3c3.1-8.1,6.2-15.5,8.8-23.1c1.3-3.8,3.2-4.9,7.2-4.9
			c33,0.2,66.1,0,99.1,0.2c4,0,5.9-1.2,7.3-4.9c13.4-33.5,26.9-66.8,40.2-100.3c1.4-3.5,3-4.8,6.8-4.8c15.1,0.2,30.2,0,45.4,0.1
			c3,0,4.5-0.7,5.7-3.8c17-42.6,34.1-85.1,51.4-127.6c1.1-2.8,2.1-5.7,3.5-9.3H243.7c-34.2,0-68.3,0.1-102.5-0.1
			c-4.2,0-6.5,1.1-8.2,5.4c-13.4,34-27.2,67.9-40.8,101.8c-24.6,61.2-49.1,122.5-73.6,183.7C12.5,344.7,6.3,360.1,0,376
			c2.1,0.1,3.5,0.3,4.9,0.3c77.8,0,155.7,0,233.5,0.1c3.5,0,5.3-1,6.4-4.4c1-3.3,3.3-4.8,6.8-2.6c-0.6,2.3-1.1,4.3-1.7,6.9h6.7
			c33.2,0,66.4-0.2,99.6,0.1c5.8,0.1,9.4-1,10.6-7.1c0.8-4.1,3.4-5.4,7.6-3.5c-1.2,3.4-2.4,6.7-3.8,10.6c8.6,0,16.2-0.1,23.9,0.1
			c3.3,0.1,4.8-0.9,6-4.1c4.5-12.1,9.5-24.1,14.2-36.1c2.5-6.2,5-12.4,7.6-19h-28.2C392.4,321.4,390.4,325.1,389.2,329.2z
			 M142.4,330.4c-2.1,5.5-4.6,8-11.1,7.9c-23.3-0.5-46.6-0.2-70-0.2c-1.2,0-2.5-0.2-4.6-0.4c2.9-7.3,5.5-14.1,8.2-20.9
			c24.3-60.6,48.7-121.2,73-181.9c7.1-17.7,14.3-35.2,21.2-53c1.4-3.5,3-4.8,6.9-4.8c78.7,0.1,157.5,0.1,236.2,0.1
			c1.4,0,2.9,0.2,5.1,0.3c-3.4,8.7-6.5,16.9-9.8,25c-4.3,10.8-9,21.4-13,32.3c-1.7,4.6-4,6.1-8.9,6.1c-50.8-0.2-101.5,0-152.3-0.2
			c-4.8,0-6.9,1.2-8.4,6c-4.2,13.1-9.4,26-14.5,39.9H309c-4,10.1-7.6,19.1-11.2,28.2c-4.1,10.3-8.3,20.6-12.3,30.9
			c-1.2,3.1-2.8,4.5-6.5,4.5c-33-0.2-66.1-0.1-99.1-0.2c-4.1,0-6.4,1.2-7.9,5.2C162.3,280.3,152.1,305.3,142.4,330.4L142.4,330.4z
			 M212.4,368.7c-0.2,0.5-1.6,0.8-2.5,0.8c-11.9,0-23.7,0-36.3,0c5.9-15,11.5-29.2,17.4-43.3c0.8-1.3,2.1-2.2,3.7-2.5
			c3.7-0.3,7.4-0.1,12.3-0.1l-11.9,30.4h23.5C216.4,359.5,214.5,364.2,212.4,368.7L212.4,368.7z M275.9,364.5
			c-1.4,4.4-4,5.7-8.2,5.2c-2.9-0.2-5.9-0.2-8.8-0.1l2.5-7.8c-6,0-11.6-0.1-17.1,0.1c-1.4,0.2-2.6,1.1-3.1,2.4
			c-1.1,5.5-5,5.6-9.3,5.3c-2.4-0.2-4.8,0-8.1,0c6-15,11.6-29,17.3-43c0.5-1.2,2.2-2.8,3.4-2.8c15.6-0.2,31.1-0.1,47.6-0.1
			c-3.4,8.5-6.4,16.2-9.5,23.9C280.4,353.1,277.8,358.7,275.9,364.5L275.9,364.5z M344.4,342.7c-0.4,2-0.9,4-1.5,6
			c-2.4,6-4.9,12-7.6,17.9c-0.6,1.3-2.4,2.9-3.7,2.9c-15.5,0.2-30.9,0.1-47.2,0.1c1-2.8,1.9-4.9,2.7-7.1c1-3,2.7-4.3,6.2-4.2
			c8,0.3,16.1-0.3,24.1,0.2c5.8,0.4,8-2.1,8.7-8.1h-33.9c3.5-8.9,6.5-17,9.8-24.9c0.4-1,2.4-1.8,3.6-1.9c15.3-0.1,30.6-0.1,46.8-0.1
			c-1.1,3.3-1.5,6-2.9,8.1c-1.2,1.7-3,2.8-5,3.1c-8.2,0.4-16.4,0.4-24.6,0c-6.1-0.4-8.5,2-8.7,8L344.4,342.7z M412.9,324
			c-2.4,6.3-4.7,12.4-7.1,18.4c-3,7.6-6.2,15-9,22.7c-1.3,3.6-3.1,5-6.9,4.6c-3.3-0.2-6.6-0.2-9.9-0.1c1.3-3.8,2.4-7.1,3.8-11.2
			c-6.2,0-11.9-0.3-17.5,0.2c-1.3,0.1-3,2.6-3.4,4.2c-1.4,5.8-4.8,7.7-10.4,6.8c-2.2-0.3-4.5,0-7.6,0c6-14.9,11.5-28.9,17.4-42.9
			c0.6-1.4,2.8-2.7,4.4-2.9c3.5-0.4,7-0.1,11.4-0.1l-5.5,15.6c5.8,0,11,0.4,16.2-0.2c1.7-0.2,3.9-2.4,4.7-4.2
			C398.7,323,398.6,322.9,412.9,324z"/>
		<path class="st0" d="M675.5,295.2c2.4-1.7,4.9-3.3,7.4-5l41.8-27.9c1,2.4,2.4,4.1,2.5,5.9c0.3,8.5,7.4,2.3,10.6,4.8
			c0.8,0.6,4-0.6,5-1.8c1.1-1.4,1.8-4.6,1-5.6c-1.9-2.4-4.9-3.9-8.1-6.4c5.7-9.2,18.4-15.5,20.1-30.1l-7,2.7
			c-2.7-6.9-4.8-13.7-1-20.8c10.9-20.4,16.4-43,24.8-64.4c2.4-5.6,0.6-12-4.3-15.6c-11.6-9.1-24.8-11.8-39.2-8.7
			c-6.3,1.4-8.5-0.5-6.6-6.8c2.7-8.6,5.8-17.1,8.7-25.6c1.9-5.6,9.9-11.4,15.5-10.4c7.7,1.3,15.2,3.7,22.9,5.4
			c1.9,0.4,4.3,0.8,5.9,0c11.5-5.2,23-10.6,31.4-20.6c1.7-2,2.9-3.4,2.5-6.6c-0.3-2.3,2.5-5.2,4.5-7.4c1.1-1.3,3.3-1.7,5.1-2.5
			l-0.3-1.2h-8.2c1.3-3,1.8-5.8,3.4-7.8c4-4.8,0.7-6.6-3.3-9.2c-3.2,6.6-6.5,12.8-9.3,19.1c-2.4,5.3-4.3,10.5-10.6,12.6
			c-9,3-17.7,6-27,0.1c-9.8-6.3-19.9-11.9-30-17.6c-6-3.4-12.2-6.6-17.9-9.7c0.8-1.7,2.6-3.7,2.4-5.5c-0.6-6.2-1.8-12.4-3.5-18.4
			c-2-6.7-7.5-10.5-13.5-10.4c-6.7,0.1-11,3.7-13.7,9.7c-1,2.1-2,4.5-3.7,5.9c-8,6.4-8.1,6.5-0.2,13.2c0.2,0.1,0,0.7-0.2,2.1
			c-6.1-0.6-12.2-1-18.2-1.9c-13-2-25.9-4.3-38.9-6.3c-10.7-1.7-21.4-3.7-32.4-0.4c-7.7,2.5-16,2-23.3-1.5c-1.2-0.6-3.9,0.3-4.8,1.4
			c-2.5,2.9-4.3,6.3-7,10.3l24.3,5c0.7-5.7,5.3-4.8,9-4.1c8.3,1.5,16.5,3.8,24.9,5.3c4,0.7,5.9,2.4,6.3,6.3
			c0.7,6.4,4.7,9.7,10.7,9.8c8.7,0.1,14.9,4.2,19.5,11c1.4,1.9,2.5,4,3,6.3c1.5,7.1,2.6,14.3,3.3,21.5c0.6,7.3,6,14.6,0.4,22.2
			c-0.8,1,0.2,3.7,0.9,5.3c4.5,10.2,2.5,20.6,1.4,31c-1.1,10.9-2.2,21.7-3.5,32.6c-0.5,4.4-0.3,10-2.8,12.8
			c-4.9,5.4-5.3,11.6-6.4,17.9s-2,12.5-3,18.7c-1.3,8.2-3,16.5-3.4,24.7c-0.2,4.4,2.9,8.8,2.8,13.2c-0.1,6.9-1.4,13.9-2.7,20.7
			c-1.2,6.5-0.6,7.8,6.1,8.7c1.2,0.3,2.4,0.6,3.5,1.1c0.1,0.4,0.1,0.9,0.2,1.3l-21.2,7.5l0.5,2l27.9-6.1v10c-13.9,0-27.9,0-41.9,0
			c-7.8,0-16.1-1.6-22.5,6.7c-1.9-7.3-6.6-6.8-11.4-6.7c-7.8,0.1-15.7,0-23.5,0h-54.1c-1,2.7-1.9,5-2.9,7.9c-1.1-1.2-2-1.7-2.2-2.4
			c-1.8-4.8-5.2-5.8-10-5.6c-13.2,0.4-26.5,0.3-39.8,0c-3.9-0.1-6,1-7.4,4.8c-3.2,8.8-7,17.5-10.5,26.2c-3.7,9.2-7.3,18.4-11.2,28.5
			c7,0,13.4-0.5,19.6,0.1c6.5,0.7,10.7-1.1,12.1-7.8c0.9-4,3.5-4.2,7.1-3.1c-1.2,3.5-2.3,6.9-3.6,10.7c16.6,0,32.7-0.1,48.7,0.1
			c3.8,0.1,6-1,7.1-4.5c1.1-3.9,3.5-4.3,6.9-2.4l-2.2,6.8h6.5c33.6,0,67.2-0.1,100.8,0.1c5.5,0,8-1.3,10-6.7
			c4-11.2,1.6-8.8,13.2-9.1c3.7-0.1,7.8,0.5,10.8-1.1c7.8-4.1,13.9-9.8,16.8-18.9c2.4-7.6,6.7-14.7-1.5-21.4c4.8-7,4.7-9.7-0.1-13.1
			C671,303.1,671,298.4,675.5,295.2z M482.6,367.6c-2.5,2.9-9.3,1.9-15.1,2.7c0.5-1.6,0.9-3.2,1.3-4.8c0.5-3.7-2.4-6.7-6.2-7.2
			c-7.3-1-12.6,0.5-14.1,8.8c-0.4,1.2-1.3,2-2.5,2.4c-4.2,0.3-8.4,0.1-13.5,0.1c6.2-15.3,11.9-29.6,17.9-43.9c0.4-1,2.5-1.9,3.8-1.9
			c12.5-0.2,25-0.2,37.5-0.1c5.5,0,7.7,3.5,5.8,8.6c-4.8,13-4.8,13-11.7,19.5C490,358,485.8,364,482.6,367.6z M547,359.5
			c-4.8,11.4-4.8,11.4-18.5,9.5l1.8-7.2c-5.8,0-11.1-0.2-16.4,0.1c-1.2,0.1-3.2,1.6-3.5,2.8c-1,5-4.4,5.2-8.3,4.9
			c-2.7-0.2-5.5,0-9,0c4.1-10.2,8-19.7,11.9-29.2c0.3-0.7,0.6-1.3,0.9-2c2.1-4.9,2.9-11.7,6.5-14c3.8-2.5,10.4-0.6,15.8-0.6
			c10.3,0,20.5,0,30.7,0c0.7,0.2,1.4,0.4,2.1,0.7l-13,32.6C547.7,357.8,547.3,358.7,547,359.5L547,359.5z M596.5,369.6
			c-1.3-0.2-2.7-0.3-4-0.3c3.6-9.1,6.8-17.5,10.1-26c-5.5-2-8.4-0.3-9.9,5.2c-1.3,4.8-3.7,9.2-5.6,13.9c-3.5,8.3-3.5,8.3-13.7,6.4
			l10-25.5c-5.2-1.6-8.3-0.7-9.7,4.8c-1.2,4.6-3.7,8.8-5.3,13.3c-3.2,8.9-3.4,9.1-14.2,7.6c1.3-3.3,2.5-6.5,3.7-9.7
			c4-10.1,8.3-20.2,12-30.4c1.5-4.1,3.5-6.3,8-5.3c0.7,0.1,1.5,0.1,2.2,0c6.6-0.9,12.3,0,14.3,9.1c7.7-8.5,16.5-10.9,27.3-8.3
			c-2.5,6.2-4.9,12.3-7.3,18.4c-2.7,6.9-5.8,13.6-8,20.6C604.5,368.7,601.7,370.6,596.5,369.6z M673.8,329.8
			c-2.8,8.2-4.2,17.5-13.2,22c-2.1,1-4.3,1.7-6.5,2.2c-1.7,0.3-3.3,0.3-5,0c-10.2-1.9-16.5,1.6-18.4,12.3c-0.2,1.3-2.3,3-3.7,3.1
			c-4,0.4-8.1,0.1-12.8,0.1l18.6-45.9c12.1,0,23.8,0,35.5,0C672.4,323.6,675,326.3,673.8,329.8L673.8,329.8z M665.7,293.1
			c3.6-18.5,7.6-35.8,10.2-53.1c1.2-8.3,0.5-17-0.4-25.4c-0.9-8.2,2.9-14.9,6.2-21.4c4-7.9,9.6-15,14.4-22.5c3.8-6,8.3-9.6,16.1-7.2
			c8.7,2.7,17.2-0.3,25.6-2.5c1-0.3,2.1-0.5,3.2-0.6c0.4,0,0.8,0.6,0.7,0.5c-1.2,4.3-2.3,8.3-3.4,12.2c-0.2,1.1-0.7,2.1-1.5,3
			c-5.2,4.6-8.7,10-8.7,17.3c0,0.9-1.9,2.2-3.1,2.5c-5.8,1.5-7.4,5.3-7.3,10.8c0,3.7-0.6,7.3-1.8,10.8c-1.8,5.1-0.2,8.5,4.1,11.3
			c6.6,4.1,13.1,8.4,21,13.4c-3.3,3.4-5.7,6.9-9,9.1c-19.7,12.8-39.7,25.3-59.5,37.8C670.6,290.3,668.6,291.4,665.7,293.1
			L665.7,293.1z"/>
		<path class="st0" d="M955,317c-9.8,0-17.8,0.2-25.9,0c-7.6-0.2-15.2,1.3-22.9,0.1c-3.8-0.6-7.8-0.1-11.7-0.1
			c-8.9,0-8.9,0-13.2,7.2c-0.7-0.6-1.7-1-1.9-1.7c-1.8-5.1-5.7-5.6-10.6-5.6c-31.7,0.2-63.4,0.1-95.2,0.1c-8.7,0-8.7,0-13.5,6.7
			c-2.6-3.1-3.8-7.2-9.5-6.9c-12.3,0.7-24.6,0.3-36.9,0.1c-3.2-0.1-4.5,1.1-5.6,3.9c-4.5,11.7-9.3,23.3-13.9,35
			c-2.6,6.6-5.3,13.2-8.2,20.6h16c12.1,0,12.2,0.1,16.5-11c1.5-3.7,3.5-4.9,7.4-4.8c7.2,0.1,14.9,2.1,20.8-5l1,1.1
			c-2.4,6.2-4.8,12.4-7.5,19.7c8.2,0,15.4-0.2,22.7,0.1c3.7,0.1,6.3-0.5,7.4-4.6c1-3.8,3.5-4.1,6.7-2.3c-0.6,2.3-1.1,4.4-1.7,6.8
			c15.1,0,29.7-0.4,44.2,0.1c6.7,0.2,11.4-0.9,12.9-8.2c0.8-4,3.6-3.8,6.9-2.5c-1.3,3.6-2.5,6.8-3.8,10.6c15.6,0,30.5-0.1,45.4,0
			c4.6,0,9.2,0.6,11.2-4.3c2.1,1.6,3.9,4,5.7,4.1c10.2,0.4,20.4,0.2,31.8,0.2l-17.1-28.8L955,317z M742.6,351.2
			c-4,1.9-8.7,2.2-13.1,2.8c-2.6,0.3-5.2,0.3-7.8,0c-4-0.3-5.8,1.4-7.2,5.2c-3.9,10.6-4.1,10.6-15.3,10.4c-0.9,0-1.8-0.1-3.7-0.2
			c5-12.6,10.3-24.4,14.3-36.6c2.5-7.8,6.6-10.1,14.4-9.3c8.3,0.8,16.7,0.3,25.1,0.1c4.6-0.1,6.8,3.1,5.6,6.2
			C752.1,337.6,751.3,347,742.6,351.2z M803.5,358.8c-5.3,11.9-5.3,11.9-18.9,10.3c0.7-2.2,1.4-4.5,2.3-7.3
			c-5.8,0-11.2-0.1-16.5,0.1c-1.2,0.1-3.5,1.2-3.5,2c-0.7,6.7-5.5,5.8-9.9,5.7c-2.2,0-4.5,0-7.5,0c3.8-9.5,7.3-18.5,11-27.5
			c1.6-4,3.8-7.7,4.8-11.8c1.3-5.6,4.2-6.9,9.8-6.7c13.8,0.5,27.6,0.2,42.7,0.2c-3.7,9.4-7.1,18-10.5,26.5
			C805.9,353,804.8,356,803.5,358.8z M860.2,369.3H847c-1.3-3.9-1.6-9.1-3.6-9.9c-4.1-1.5-9.1-1.1-13.6-0.5
			c-1.2,0.1-2.4,3.6-2.8,5.6c-1,4.3-3.4,5.6-7.6,5.1c-2.7-0.4-5.5-0.1-9.3-0.1c2.9-7.5,5.4-14.3,8.1-21c2.8-7,6-14,8.5-21.1
			c1.1-3,2.7-3.9,5.7-3.9c12.5,0.1,25,0,37.5,0c3.8,0,6.5,3.3,5.2,6.9c-2.9,7.6-3.7,16.4-12.3,20.9
			C867.9,358.5,860.9,363.2,860.2,369.3L860.2,369.3z M918.4,369.6c-6.7,0-12.3,0.1-18-0.1c-1.1,0-2.3-1.5-3-2.6
			c-2.1-3.2-4-6.6-6.2-10.1c-0.5,0.7-1,1.4-1.4,2.1c-5.1,11.9-5.1,11.9-19.2,10.4c3.7-9.3,7.3-18.4,11-27.5c1-2.4,2-4.7,2.9-7.2
			c4.4-12.2,4.8-12.5,18.9-10.1l-5.2,14.1c5.3-3.8,10.2-6.5,14.1-10.2c6.3-6,13.5-4.4,21-3.4l-29,20.9L918.4,369.6z"/>
		<path class="st0" d="M256.8,339c-6.1,0-7.3,1.1-7.4,7.8c0.3,0.1,0.7,0.2,1.1,0.2c3.7,0,7.4,0,11.1,0c6.8,0,7.6-0.7,8.4-8
			C265.5,339,261.2,339,256.8,339z"/>
		<path class="st0" d="M527.8,338.8c-6-1-9,1.4-9.9,7.7H537c0.8-2,1.7-4.7,2.8-7.6C535.3,338.9,531.5,339.4,527.8,338.8z"/>
		<path class="st0" d="M467.1,334.8c-5.9-0.6-7.3,2.5-7.5,7.9c4.2,0,8.3-0.4,12.3,0.1c5.9,0.6,8.4-2,8.8-7.9
			C476,334.9,471.5,335.2,467.1,334.8z"/>
		<path class="st0" d="M641.6,342.4c12.4,1,12.4,1,14.7-7.2C642.6,334.1,640.9,335,641.6,342.4z"/>
		<path class="st0" d="M782.6,338.9c-5.9-0.6-7.8,2.3-8.3,8.1h12.8c6.7,0,7.6-0.9,8.2-8C791.1,338.9,786.8,339.3,782.6,338.9z"/>
		<path class="st0" d="M836.3,342.7c4.9,0,9.2-0.4,13.4,0.1c5.9,0.8,7.8-2.2,8.2-7.7h-19.2C837.8,337.6,837.1,340,836.3,342.7z"/>
		<path class="st0" d="M722,342.3c12.9,1.7,13.2,1.5,15.2-7C724.4,333.9,723.9,334.1,722,342.3z"/>
	</g>
</g>
</svg>
