<svg xmlns="http://www.w3.org/2000/svg" viewBox="0 0 929.03 443.01"><defs><style>.cls-1{fill:#8c80d7;}.cls-2{fill:#af6091;}.cls-3{fill:#a75388;}.cls-4{fill:#a85387;}.cls-5{fill:#e4a4c6;}.cls-6{fill:#e5a1c8;}.cls-7{fill:#e3a4c7;}.cls-8{fill:#e3a6c7;}.cls-9{fill:#e4a4c8;}.cls-10{fill:#e5a2c8;}.cls-11{fill:#e4a4c7;}.cls-12{fill:#e4a3c8;}.cls-13{fill:#e5a3c9;}.cls-14{fill:#e2a7c7;}.cls-15{fill:#f9f4f7;}.cls-16{fill:#e5a2c7;}.cls-17{fill:#e4a6c8;}.cls-18{fill:#8f80d0;}.cls-19{fill:#9e96c8;}.cls-20{fill:#9e95d1;}.cls-21{fill:#a485cf;}.cls-22{fill:#9c93cd;}.cls-23{fill:#9b92ce;}.cls-24{fill:#988bd5;}.cls-25{fill:#9b91d1;}.cls-26{fill:#978fca;}.cls-27{fill:#978eca;}.cls-28{fill:#968ec8;}.cls-29{fill:#9387d0;}.cls-30{fill:#a49dc8;}.cls-31{fill:#988fc1;}.cls-32{fill:#9991c9;}.cls-33{fill:#968fbd;}.cls-34{fill:#9e96cd;}.cls-35{fill:#9a93be;}.cls-36{fill:#9989cf;}.cls-37{fill:#8e85bc;}.cls-38{fill:#dd9dc5;}.cls-39{fill:#928cba;}.cls-40{fill:#e5a1c9;}.cls-41{fill:#faf4f8;}.cls-42{fill:#9281d2;}.cls-43{fill:#f8f2f8;}.cls-44{fill:#fbf7fa;}.cls-45{fill:#957eca;}.cls-46{fill:#f9e5f4;}.cls-47{fill:#fbf9fa;}.cls-48{fill:#e5a2c9;}.cls-49{fill:#f7ecf3;}.cls-50{fill:#e4a1c7;}.cls-51{fill:#faecf7;}.cls-52{fill:#faf9fa;}.cls-53{fill:#faf7fa;}.cls-54{fill:#fbfbfb;}</style></defs><g id="Camada_2" data-name="Camada 2"><g id="Camada_1-2" data-name="Camada 1"><path class="cls-1" d="M796.83,171.47c3.16.52,6.41,1.84,9.45,1.46,44.83-5.67,76,23.18,110.29,43.88,16,9.65,12.81,24.52,8,38.57-3.71,10.84-8.32,20.69,2,30.69,4.34,4.2,2.2,9.35-.85,14.57-10.8,18.5-26.54,30.67-46.46,37.22-19.72,6.48-39.93,11.45-59.64,17.95-42.44,14-85,27.1-129.76,31.61-11.92,1.21-23.7.76-34.29-4.71a83,83,0,0,0-43.22-9.31c-54.53,2.67-105.87-16.06-158.86-23.71C428.08,346,403.17,341.3,379.55,331c-5.26-2.3-13-3.7-11.46-11.12,1.67-8.23,10.32-5.58,14.67-4.12,26.2,8.76,55.13,2.71,80.75,17.31,9.86,5.61,25.11,2.49,37.85,2,21.12-.76,41.43,1.67,60.91,10.37,15.17,6.77,31.48,4.63,47.38,4.86,41.07.59,82.14.78,123.21,1.09,9.77.08,19.1-1.78,27.5-7.08,20.4-12.86,42.17-22.89,64.35-32.18,11.43-4.79,21.49-11.82,29-22,6-8.18,11.14-15.77-1-23.92-6.65-4.47-5.32-12.25-2.61-19.13,4.14-10.53.77-18.88-7.58-25.54-17.92-14.27-37.09-25.08-61.29-21.12C778.62,186.53,785.72,177.91,796.83,171.47Z"/><path class="cls-1" d="M237.93,269.8c-12.81,9.75-26.32,8-39.11,6.37-36.51-4.68-72.23-1.18-107.8,7.08-8.27,1.92-15.46,4.74-17.39,14.08-2,9.86,1.46,17.63,9.08,24.07,18,15.19,39.17,15.64,60.69,13,23.21-2.9,46.22-7.52,69.44-10.37,45.13-5.53,82.38-31.23,123.31-47.52q16.34-6.49,32.5-13.41c4-1.72,8.24-4.3,10.71,1.49,2.24,5.24-1.54,7.67-5.73,9.61-22.74,10.51-45.29,21.47-68.24,31.52-17.58,7.7-35.68,14.24-51.91,24.7a64.64,64.64,0,0,1-34.93,10.14c-39.18.27-76.65,12.64-115.51,15.36-19.64,1.37-37.57,2.9-53.69-12.35-10.86-10.27-27-12.35-40.24-19.21-6.3-3.27-13.29-6.61-6-15.46a7.81,7.81,0,0,0,1.46-4.44c1-28.83,14.24-43.11,42.61-47.26,15.78-2.3,31.27-6.91,47.09-8.55,19-2,38.24-4.18,56.41,5.57,7.59,4.07,16,5.63,24.72,1.92,11-4.69,19.16,4.44,28.83,6.35C215.5,264.67,226.7,267.32,237.93,269.8Z"/><path class="cls-2" d="M572.49,273.81c9,5.2,20.32,1.06,29.2,8.16-9.35,7.77-20.3,9.27-31.4,4.61-18.95-7.95-36.63-1.4-54.52,3.38-19.85,5.3-38.86,13.87-60.31,12.22-21.9-1.69-35.87-11.62-42.34-32.36-2.05-6.58-3.35-13.37-5.22-20-4.19-14.88-.73-18.31,14.65-18.52,27.73-.39,55.32-4.45,83.15-3.29,8.16.35,16.35.75,23.07,5.26,23.3,15.63,49.28,25.24,75.2,35.1,2.3.87,4.32,2.49,6.56,3.82-2.75,5.6-6.66,3.79-9.95,2.72-7.58-2.48-15.61-4.35-22.45-8.26C529.82,239.05,477.59,234,423.49,238.09c-9.18.69-8.42,3.89-4.49,9.64,22.06,32.41,54.73,30.59,87.39,26.06C528.59,270.71,550.45,269.12,572.49,273.81Z"/><path class="cls-3" d="M796.83,171.47c-6,9.23-12.45,18.17-15.57,28.94-22.91,35.75-60,50.93-96.49,67-11.12,3.4-22.23,7-34.11,4.44-2.14-.05.22.68-1.54-.16-6.6-3.18-16.61,6.33-20-3.25-3.19-8.91,5.78-15.11,10.93-21.68,16.2-20.63,34.67-39,54.44-56.2,14.17-9.79,27.31-21.41,44.52-26q25.15-12,50.32-23.91c9.45-4.47,14.34-3.2,11.44,8.86C799,156.76,798.1,164.16,796.83,171.47Z"/><path class="cls-4" d="M604,219.57c1.49,5.47,4.85,10.42,4.08,16.51-.72,5.75-3.87,3.11-6.6,2.16-8.16-4.32-8.7-13.25-11.53-20.42-12.75-32.32-25.84-64.46-27.51-100.08-.82-17.37-.6-34.27,4.73-50.79,2.25-7,3.91-14.76,11.93-18.09,16.8-20.84,20.48-21.22,32,4.19,14.11,31.1,23.2,63.86,18.74,98.83-4.78,13.19,3.9,25.73,1.89,38.8-1.8,14.89,4.26,31.34-8.68,44-6.61-6.07-5.11-14.34-5.91-22-3-6.94.54-14.72-2.75-21.62-1.91-5.14-1.48-10.48-1.4-15.78.91-32.41-.76-64.64-7.27-96.49-1.06-5.19-1.86-10.55-4.66-15.13-3.44-5.65-6.61-3.69-9.31.91-8.81,35.65-6.44,71.18,1.15,106.51C596.33,187.31,600.77,203.3,604,219.57Z"/><path class="cls-3" d="M469.89,106.27c32.63,15.07,53.07,43,73.73,70.59,2.83,3.79,4.59,8.48,9.42,10.42,7.84,3.76,8.34,11.32,9.52,18.52C568,213,575.28,218.91,577,228.51c.57,3.13,2.46,6.38-1,8.66-2.67,1.75-5.66.09-7.17-1.83-10.75-13.66-28.73-15.75-41.36-26.33-8.22-4.15-18.66-3.44-25.12-11.47-33.93-3.43-53.47-23-61.68-55.29-4-17-5.81-34-1.14-52.19C451,113.44,458,138.48,476.64,158.17c18.86,19.91,43.76,29,65.56,44.3-1.67-9.35-8.1-15.38-13-22.28-17.44-24.59-37.42-46.8-61-65.68C467.43,111.49,462.46,107.56,469.89,106.27Z"/><path class="cls-5" d="M148.25,99.13c-2.65,10.14-9.07,15.62-18.21,21.77,14.34,3.88,29.52,5.2,31.6,21.32,2.68,20.94,2.37,42.26-11,60-12.56,16.64-41,13-51.07-5.27-8.67-15.82-9-32.9-7.35-50,.83-8.74,5.95-17.46,14.54-19.68,11.55-3,16.67-11.27,20.71-20.32C131.9,97,138.05,95,148.25,99.13Z"/><path class="cls-3" d="M649,164.31c4.92-29.67,12.83-58.21,32.56-81.91,6.36-7.63,13.8-18.77,23.54-15.89,10.07,3,13.14,16,14.76,26.61,3.92,25.68-3.29,48.38-19.63,68.33-1,15.45-16.49,19.19-23.65,29.68-10.26,15.46-20.57,30.86-29.71,47-2,3.56-2.41,9.13-8.21,7.49s-6-7.18-5.63-11.89c1-12.71,6.28-24.63,7.2-37.39C643,185.64,643.29,174.24,649,164.31Z"/><path class="cls-6" d="M530.84,177.43c9.24,8.56,17.12,18,22,34.8C497.57,185.49,450.2,157.12,439.7,92.47c-4.95,17.46,3.42,33.4,1,49.78-11.84-17.47-5.29-37-5.32-55.54,0-8.88,6.4-3.27,9.5-.4,7.85,7.29,13.4,17.41,25,20-4.21,2.35.28,4.2.37,6.3,2.57,7.62,9.3,11.54,15,16.13C502.71,142.85,514.07,162.67,530.84,177.43Z"/><path class="cls-4" d="M724,307c-20.85,3.23-44.57-4.94-68.84-7.79-3.52-.41-8-.82-8.81-5.38-.73-4.34,3.57-4.83,6.32-5.79,48.87-17,97.71-34.34,150.61-32.31,5.53.22,14.07-3.09,15.83,3.38a20.42,20.42,0,0,1-6.76,21.47C790.56,298,767,310.52,737.71,307,734.55,306.63,731.31,307,724,307Z"/><path class="cls-7" d="M255.18,160.81c0,7.5.07,15,0,22.5-.08,9.23,3.15,15.51,13.37,16.44,11,1,14-6.79,15-14.91,1.84-14.27,2.9-28.69,3.45-43.07.35-9.12-.38-17.2,13-16.24,13.61,1,6.3,10.46,6.07,15.31-.74,15.92-1.82,32.08-5.33,47.56-4.81,21.3-17.22,28-41.49,24-16.86-2.81-18.65-17.14-20.08-30.49-1.6-14.84-2.08-29.8-3.09-44.71-.46-6.8,1.06-11.18,9.39-11.29s10,3.81,9.74,10.84C254.93,144.73,255.16,152.77,255.18,160.81Z"/><path class="cls-8" d="M188.19,50V35.58c0-27.68,17.8-38.15,43.27-25.46,8.67,4.32,14.85,26.8,7.32,33.52C226.29,54.8,233.17,62,239.92,71.73c3.3,4.79,14.34,9.86,7.87,16.12-7.74,7.5-12.45-3.64-17.52-8.14-4.76-4.23-8.75-9.33-13.08-14-7.76-8.48-14.73-16.08,2.68-22.44,8-2.93,6.07-11,3.61-18.15-2.58-7.46-8.34-5.66-13.25-5.12-9.14,1-6.07,8.66-6.2,13.88-.34,13.36-.38,26.76.2,40.11.33,7.63-3.15,11-9.95,11.43-9.59.65-5.76-6.94-6.05-11.28-.54-8-.16-16-.16-24.06Z"/><path class="cls-9" d="M146.66,6.78c22.81-.12,27.75,4.33,30.29,27.08,2.71,24.22-10,47.74-28.25,52.07a32,32,0,0,1-7.83,1c-18.58-.28-29.13-17.76-29.62-48.87-.33-20.73,8.19-30.47,27.44-31.3C141.35,6.68,144,6.78,146.66,6.78Z"/><path class="cls-10" d="M579.06,48.86c-19.45,40.84-14.86,82.19-1.14,123.07,7.46,22.21,13.08,45.15,23.52,66.31-8,.51-8.13-6.27-10.91-11.15-5.77-10.11-7.65-23.36-20.92-27.83-2.15-5-2.56-10.43-3.68-15.69-3.93-18.63-12-36.15-14.42-55.23-4.08-32.42,1.63-62.81,16.73-93.64Z"/><path class="cls-11" d="M336.61,212.45c-3.74,0-7.48.12-11.21,0-5.65-.24-9.21-3.1-9-9,.3-8.06,6.17-2.93,9.54-3.64,1.53-.32,3.2.08,4.79,0,7.69-.51,17.28,2,20.25-8.24,3.22-11.14-5.48-15.05-13.74-18-14.39-5.2-23.71-12.93-21.45-30.55,1.92-15,7.78-21,23-19.44,6.34.67,12.68,1.28,19,2.19,2.72.4,7.15-1.28,7.2,3.63,0,3.47-2.36,5.9-6.11,6.09-4.27.22-8.54.19-12.81.32-4.81.15-10-.33-10.73,6.58-.64,6.06-1.05,12,6,14.9,2.46,1,4.95,2,7.43,3,13.36,5.34,25.84,10.83,21.42,29.65C365.67,208.89,360.89,212.64,336.61,212.45Z"/><path class="cls-12" d="M40,175.56c1.11-14.73-.41-30.16-2.56-45.52-1.7-12.08,4.4-14,14.8-14.11,12.73-.15,8.11,7.21,7.61,13.64-1.31,17-2,34.11-3.5,51.12-1,10.84.86,18.15,14.09,16.25a12,12,0,0,1,6.29.8c4,1.8,11.26.2,10.92,6.91-.35,7.09-7.17,4.4-11.46,5.17-12,2.14-27.51,8.26-35.05.23C35.42,203.9,40,188,40,175.56Z"/><path class="cls-13" d="M617.18,190.83q0,10.93-.07,21.88c-6.11-4.84,1.74-18.77-7.21-17.87-9.58,1-2.92,13.2-5.17,20.08a31.11,31.11,0,0,0-.77,4.65C582,168.53,574,116.11,588.34,61.47c10.64,29.34,18.47,59.34,20.7,90.6.46,6.35.62,12.7,2.53,18.81C612.48,177.78,608.58,186.06,617.18,190.83Z"/><path class="cls-9" d="M30.26.45C36.67,2.93,50.4-4.38,51.34,4.74c1,9.43-13.07,7.44-20.75,8.11-10.92,1-8.95,8.18-9.48,14.91C20.47,35.87,23.47,39.17,32,39.3c6.18.1,17.12-4.2,17.83,3.26.93,9.88-10.54,5.18-16.52,6.67-8.19,2-13.75,5.12-12.38,15,.58,4.2,0,8.55,0,12.83,0,5.66-2.66,9.23-8.42,9.67-7,.52-7.17-4.53-7.43-9.61-.85-16.5-2.32-33-2.7-49.48C1.75.7,2,.69,30.26.45Z"/><path class="cls-14" d="M293.74,55.19c0-2.67,0-5.33,0-8-.22-23.66.08-24.06,18.22-24.09,22.89,0,29.79,5.67,29.71,25.15,0,6.35-.09,12.91-1.58,19C335.77,85,314.6,94.53,298.4,86.91c-4.43-2.08-4.32-5.64-4.38-9.31-.13-7.46,0-14.94,0-22.41Z"/><path class="cls-9" d="M229.17,130.26c.28,7.13-3.75,8.45-8.32,8.27-11.95-.48-13.94,6.54-13.72,16.5.34,15-.14,29.93-.2,44.9,0,6.37-1,12.27-9,12.36-8.56.09-6.52-6.83-6.64-11.73-.29-12.29-.55-24.6-.16-36.88.4-12.65-.06-24.13-16.83-24.92-2.87-.14-5.18-1.51-5.23-4.79a5.62,5.62,0,0,1,4.55-5.8c17.33-4.07,34.89-2.27,52.37-1.63C227.28,126.59,228.5,129.43,229.17,130.26Z"/><path class="cls-15" d="M644.21,195.88c.87,16.22-11.05,30.75-5.79,48.11a288.07,288.07,0,0,1,37-56.83c9.2-4.38,17.22-4.45,22.27,6.19-22.74,18-41.51,39.87-60.87,61.2-3.44,3.8-9.46,7.63-6.35,13.44,3.8,7.12,9.3-.15,14.09-.11a47.52,47.52,0,0,0,4.76-.42c2.84,3.16,2.78,6.34.08,9.54-5.11-.53-9.84-2-15.41-1.42-7,.69-13-4.1-7.86-12.3,6.74-10.77,2.34-19.55-3.07-28.59,4.79-14.12,2.55-29,4.64-43.4,2.4-1.93,3.49,0,4.71,1.58,1.4,4.59,4,5.64,8,2.76A5.82,5.82,0,0,1,644.21,195.88Z"/><path class="cls-16" d="M572.49,273.81c-35.24-4.39-69.34,8.46-104.57,6.61-23.66-1.25-41.06-9-48.93-32.69,37.24,16.18,76.84,18.47,116.57,19.73C548.22,267.86,560.83,267.89,572.49,273.81Z"/><path class="cls-7" d="M65.85,48.41c0-9.61.31-19.23-.09-28.82C65.42,11.38,67.09,6.16,77,6.84c10.64.74,8.35,7.1,6.72,13.56C80,35,83.27,50.07,80.24,64.91c-1.77,8.67,7.41,8.22,13.55,9.37,4.64.87,12.71-2.93,12.78,5,.07,7.68-8.29,4.61-12.87,5.56C66,90.58,66,90.41,66,62.82c0-4.8,0-9.61,0-14.41Z"/><path class="cls-17" d="M388.55,57.6c-5.57,8.79-20.94-2.74-21.08,12.84-.14,15.3,15.37,6.68,23.58,15.18-11.17,1.43-19.69,3.25-28.23,3.37-6.44.09-8.54-5-8.45-11.21.2-13.37.05-26.76,0-40.13,0-5.5-.08-11.16,6.73-12.8,8.84-2.12,18-3.56,26.53.27,3.39,1.53,2.18,5.94-1.82,6.89-7.66,1.83-18.49-1.63-18.22,12.12C367.9,58.45,381.72,51.9,388.55,57.6Z"/><path class="cls-18" d="M697.64,193.35c-6.61-5-14.75-4.51-22.27-6.19,7.6-9.23,18.55-15.2,24.81-25.72,12.55,5.77,26,.69,38.8,3.17Z"/><path class="cls-19" d="M508.54,440c-4.74.37-9.38,1.27-13.21-3.2s-8.07-8.42-10.45,1.42c-.52,2.15-3.85,3.43-5.07,1.64-5.55-8.12-3.15-17.55-2.08-26.11s9.5-5.47,14.49-4.81c8.56,1.14,9.74,8.37,6.27,14.44-4.18,7.31.8,9.21,4.84,13.41,6.07-9-2.49-19.78,5.19-27.34C515.49,419.67,509.65,429.86,508.54,440Z"/><path class="cls-20" d="M344.26,435.6l-4.55-11.29c-3.66,3.57-3.77,8-4.77,12.1-.7,2.88-2.84,4.4-5.85,4.44-3.87.06-5.79-2.13-6.3-5.76-1.13-7.91-2.45-15.8-3.2-23.74-.33-3.36-1.52-8.56,4.15-8.44,4.94.1,4.81,4.85,4.88,8.58.1,5.33,0,10.66,0,16.83,1.72-1.34,2.67-1.73,3-2.43,3-5.62.62-17.41,8.92-15.91,7.7,1.4,6,13.21,8.21,20.51A5.88,5.88,0,0,1,344.26,435.6Z"/><path class="cls-21" d="M630.41,192.91l-2.76-1.62c.39-13.16-3.37-26.54,2.15-39.41.61,18.89.61,18.89,19.15,12.43,1.89,11.05-2.43,21.17-4.74,31.58a4,4,0,0,1-1.63.87C639.07,193.75,633.16,198.34,630.41,192.91Z"/><path class="cls-22" d="M121.51,408.46c-12-.78-10.65,6.94-10.14,15.63,2.12,5.5-5.15,17.31,10,17.08,13.35-.19,14.7-9.46,15.28-19.43C137.33,410.8,130.54,409,121.51,408.46Zm4.4,25.89c-.61.74-1.77,1-4.66,2.45-.55-3-1.39-5-1.16-6.95.61-5.53-2.41-11.78,2.54-16.38.71-.61,4.57.58,5.24,1.87C131.48,422,130.87,428.5,125.91,434.35Z"/><path class="cls-23" d="M68,405.5c-10.07-1.87-12.65,4.08-11.23,12.93,1.16,7.37-3.92,15.92,3.73,22,1.29,1,21.72-19.11,21.56-21.39C81.49,410.74,78.46,404.6,68,405.5Zm2.09,17.14c-4,1.68-4.15-1.44-4.31-3.92-.23-3.41-.61-7.08,2.18-9.11,5.09.13,6.09,3,6.76,6.15C75.53,419.59,73.15,421.39,70.1,422.64Z"/><path class="cls-24" d="M213.83,405.46c-9.58,0-15.6,4.54-14.54,13.32s-.8,21.91,13.16,21.78c12.83-.09,13.48-11.35,14-21.23C226.89,410.1,222.74,405.17,213.83,405.46Zm5.79,17.79c-.22,4.7-.26,10.59-6.43,10.94-7.08.39-5.76-5.92-6.31-10.26.32-4.79-.42-10.71,6.21-10.94S219.88,418.4,219.62,423.25Z"/><path class="cls-25" d="M458.64,405.5c-9.78.25-15.21,5.34-14,15.12,1.06,8.49.16,20.07,13,20.07,11.91,0,12.58-10.84,15.06-18.85C471.57,412.73,469.42,405.24,458.64,405.5Zm-.54,28.66c-6.34-.06-6.76-5.73-6.76-10.65,0-4.76,0-10.58,6.47-10.74,7-.16,5.95,5.92,6.24,10.77C463,427.56,465.37,434.26,458.1,434.16Z"/><path class="cls-26" d="M295.67,412.64c-.93-3.6-2.48-7.05-7.33-7.05-4.48,0-6.82,2.13-7.95,6.24-2.51,9.11-6.37,17.95-4.76,29.73,7.62-7.4,14.89-10.46,22.26,1C302.23,429.69,297.89,421.26,295.67,412.64Zm-5,14.6c-.51.78-3.44,1.06-4.18.39-4.66-4.44-2.77-9.1,1-16.12C290.78,417.75,294.13,422,290.65,427.24Z"/><path class="cls-27" d="M387.32,428.4c-.58-5.24-2.44-10.33-3.44-15.54-.8-4-2-7-6.85-7.27-4.57-.22-6.66,2.32-8.3,6-4,8.85-5.44,18.12-5.25,29.28,6.21-2.19,9.62-9.3,15.38-5C394,447.16,388,434.19,387.32,428.4Zm-10.26-.06c-1,.87-3.86,1.35-4.31.8-4.47-5.79-.1-10.42,2.51-18.08C380,418.56,382.82,423.35,377.06,428.34Z"/><path class="cls-28" d="M162.2,412.83c-1-3.92-2.12-7-6.88-7.2-4.32-.17-7.34,1.67-8.53,5.62-2.73,9.24-6.69,18.34-4.6,31.76,7.62-12.2,15-8.4,22.17-2.32C167.31,430.11,164.39,421.52,162.2,412.83ZM156,429c-.84.83-3.8,1.12-4.31.48-4.44-5.44-2.7-10.58,2.45-17.31C157.34,418.56,161.59,423.35,156,429Z"/><path class="cls-29" d="M502.38,197.54c9.16,2.09,19.06,2.57,25.12,11.47-14.36,2.58-28.43,11.54-44,3.35C487.46,202.79,499.48,206.37,502.38,197.54Z"/><path class="cls-30" d="M191.72,408.55c-15.87,7-17.29,13.56-5.62,27.39a16,16,0,0,0,1.83-2.31c1.85-3.34-2.86-9.32,3.76-10.51a4.14,4.14,0,0,1,4.54,5.14c-1,4.87,0,11.53-7.28,12.57-4.63.66-10.2,1.92-13.56-2.27-5.84-7.3-4-16.26-3.13-24.62.59-5.71,5.77-5.29,10-5.38C185.43,408.49,188.57,408.55,191.72,408.55Z"/><path class="cls-31" d="M423.77,408.62c-11.68-1.26-8.52,8.36-8.17,15,.42,7.36-4.05,18.43,10.81,17.53,12.67-.77,13.51-10.45,14.22-19.2C441.43,411.45,434,408.65,423.77,408.62Zm10.46,15.86c-.29,5.66-2.16,12.32-8.21,11.55-7.49-1-3.25-8.69-3.7-13.32-.42-4.28-1.67-11,6.18-9.78C434.55,413.89,434.52,419.46,434.23,424.48Z"/><path class="cls-32" d="M251.51,408.64C242.41,411,236.7,415,239,426.27c.82,4-.19,10.07,5.18,10,6.77-.06,3.72-5.67,3.11-9.5-.38-2.42.39-4.08,3.2-4.08,2.45,0,4.15,1.21,4.4,3.58.76,7.23,1,13.87-9.17,14.87-12.69,1.25-13.41-7.48-14.23-16.11-.77-8.12-1.67-16.71,10.7-16.43C245.27,408.7,248.39,408.64,251.51,408.64Z"/><path class="cls-33" d="M105,409.74c-4.88,4.34-18.14,5.71-3.69,13.11,2.52,1.29,2.47,3.92.1,4.64-15.63,4.81.73,8.33.4,12.61-16.15,4.76-13.22-7-14.21-16C86.13,411.12,90.89,405.91,105,409.74Z"/><path class="cls-34" d="M344.26,435.6l4.55-5.11c4-6.94,1.47-14.67,2.68-21.95.56-3.39,1.48-6.58,5.85-5.5,3.42.85,3.05,3.88,2.56,6.51-1.57,8.38-2.74,16.88-5,25.06S348.66,444.58,344.26,435.6Z"/><path class="cls-35" d="M412.62,438.14c-11.92,4.91-17.87,3.82-17-8.44.29-4.23-.23-8.51-.18-12.76,0-2.84-2-7.19,2.87-7.5,6.05-.39,4.23,4.86,4.35,8.12C402.93,425.5,399.85,434.49,412.62,438.14Z"/><path class="cls-36" d="M565.93,183.57c7.16,3.84,8,9.17,3.67,15.69-3.88.52-7.31,1.54-7,6.55L553,187.28Z"/><path class="cls-37" d="M508.54,440q0-15.27,0-30.55l16-1.08c-8.62,6.25-14.78,11.75-2.12,15.78C514.67,426.78,513.29,434.88,508.54,440Z"/><path class="cls-38" d="M649.35,277c0-3.18-.05-6.36-.08-9.54,11.84,3.35,23.67-.9,35.5,0C674.37,275.85,662.25,277.87,649.35,277Z"/><path class="cls-39" d="M267.25,439.78c-7-8.76-5.4-17.78-5.61-26.6a3.52,3.52,0,0,1,3.9-3.9c2.79,0,3.41,1.85,3.27,4.22Z"/><path class="cls-40" d="M781.35,171c.09,12.91-9.32,20-17.47,27.41-23.76,21.49-48.84,41.27-77.51,56a57.09,57.09,0,0,1-22.88,6.18c-7.5.45-10.28-2.78-5-9.64,5.56.68,9.14-2.61,12-6.57C681.48,229,696.13,217.33,711,206c5.27-4,8.71-8.52,10.44-14.7,15.17-4.91,28.79-13.42,43.7-18.88C770.39,170.54,775.49,166.19,781.35,171Z"/><path class="cls-41" d="M719.85,194.18c3.81,2.59,6.89,5,1.19,9.14-19.36,14-37.54,29.3-52.06,48.64-2.89,3.86-8,9.74-10.53-1,15.72-21.87,32.77-42.5,55-58.24C716,191.43,718.15,191.69,719.85,194.18Z"/><path class="cls-42" d="M719.85,194.18l-6.44-1.44c14.44-14.81,34.74-20,51.29-31.31,4.72,4.34,13.38-.34,16.67,7.3a8.44,8.44,0,0,1,0,2.3,154.54,154.54,0,0,0-39.17,16.74C734.89,192.13,727.78,193.75,719.85,194.18Z"/><path class="cls-43" d="M781.37,168.73c-5.64-2.24-13.43.46-16.67-7.3,3.8-1.71,7.5-3.79,11.45-5,4.12-1.3,9.85-6.36,12.37-.89C790.65,160.11,788.87,167.08,781.37,168.73Z"/><path class="cls-44" d="M610.67,174.71c-6.7-1.23-6-6.55-6-11.26A217.09,217.09,0,0,0,591,86.78c-3.1-8.42-2-16.86-2.64-25.31,1.49-4.56,2.7-10.48,8.15-10.63,6.6-.19,7.75,6.65,9.29,11.44,9.39,29.34,10.47,59.78,11.16,90.23.16,6.94-.16,13.9-.26,20.85C615.16,176,613.08,176.08,610.67,174.71Z"/><path class="cls-45" d="M610.67,174.71l6-1.36q.24,8.75.5,17.47C601.73,188,601.16,186.6,610.67,174.71Z"/><path class="cls-46" d="M530.84,177.43c-1.29,1.48-2.81,1.5-4.06.19Q498.37,147.77,470,117.83c-1.6-1.69-2.15-3.6.22-5.26C494.26,130.61,514.91,151.81,530.84,177.43Z"/><path class="cls-47" d="M111,165.62c-.3-23.85,4.75-29.56,23.34-26.91,1.57.22,3.42,0,4.67.77,9.74,6,9,16.51,6.4,24.29-3.68,11,3.88,27.8-13,32.56-11.38,3.22-19.9-1.89-21.35-14.75C110.48,176.32,111,170.94,111,165.62Z"/><path class="cls-48" d="M693.4,144.41c-7.15,21.87-23.7,36.79-39.11,53,2-40.37,9.5-78.6,36-110.65,8.81,13.81,8.08,28.84,5.07,43.94C694.46,135.25,691.62,139.45,693.4,144.41Z"/><path class="cls-49" d="M693.4,144.41c.1-19.29-.22-38.55-3.08-57.68,1.57-3.3,3-8,7.06-7.37,4.8.8,2.76,6,3.1,9.36C702.37,107.81,700.39,126.44,693.4,144.41Z"/><path class="cls-50" d="M803.13,273.66c-11.32,18.77-31.36,15.53-48.45,18.31-21.08,3.43-42.44.66-63.48-2.35-6.57-.94-4.44-4.09.33-5.83,21.16-4,42.22-8.88,63.64-10.92C771.05,271.35,787.33,264.64,803.13,273.66Z"/><path class="cls-51" d="M803.13,273.66c-34.9-.43-69.1,5.28-103.18,12-3.16.62-6.23,1.64-8.42-1.83,37.41-15.86,77.77-15.22,117-21.83C809.48,267.76,805.44,270.28,803.13,273.66Z"/><path class="cls-52" d="M127.31,47.34c1.26-23.76,7.4-30.63,23.29-27.55A13.49,13.49,0,0,1,160.42,27c3.31,6-.69,39-6.11,43-8.06,6-16.15,3.41-21.86-4A25.75,25.75,0,0,1,127.31,47.34Z"/><path class="cls-53" d="M309.31,57.47c0-4.24-.17-8.5.05-12.74.27-5-1.21-11.72,7-11.53,6.47.14,11,3.87,12.18,10.44,1.89,10.24-1.71,20-3.71,29.78-1.11,5.4-7.33,6.16-11.76,5.83-5.14-.39-3.48-5.63-3.71-9C309.09,66,309.3,61.72,309.31,57.47Z"/><path class="cls-54" d="M630.41,192.91c3.86,1.9,10.66-5.55,12.17,3.85-3.8,2-3.84,10.13-9.94,7.44C628.27,202.27,630.81,196.82,630.41,192.91Z"/></g></g></svg>