<svg xmlns="http://www.w3.org/2000/svg" viewBox="0 0 929.03 443.01"><defs><style>.cls-1{fill:#b7b7b7;}</style></defs><g id="Camada_2" data-name="Camada 2"><g id="Camada_1-2" data-name="Camada 1"><path class="cls-1" d="M796.83,171.47c3.16.52,6.41,1.84,9.45,1.46,44.83-5.67,76,23.18,110.29,43.88,16,9.65,12.81,24.52,8,38.57-3.71,10.84-8.32,20.69,2,30.69,4.34,4.2,2.2,9.35-.85,14.57-10.8,18.5-26.54,30.67-46.46,37.22-19.72,6.48-39.93,11.45-59.64,17.95-42.44,14-85,27.1-129.76,31.61-11.92,1.21-23.7.76-34.29-4.71a83,83,0,0,0-43.22-9.31c-54.53,2.67-105.87-16.06-158.86-23.71C428.08,346,403.17,341.3,379.55,331c-5.26-2.3-13-3.7-11.46-11.12,1.67-8.23,10.32-5.58,14.67-4.12,26.2,8.76,55.13,2.71,80.75,17.31,9.86,5.61,25.11,2.49,37.85,2,21.12-.76,41.43,1.67,60.91,10.37,15.17,6.77,31.48,4.63,47.38,4.86,41.07.59,82.14.78,123.21,1.09,9.77.08,19.1-1.78,27.5-7.08,20.4-12.86,42.17-22.89,64.35-32.18,11.43-4.79,21.49-11.82,29-22,6-8.18,11.14-15.77-1-23.92-6.65-4.47-5.32-12.25-2.61-19.13,4.14-10.53.77-18.88-7.58-25.54-17.92-14.27-37.09-25.08-61.29-21.12C778.62,186.53,785.72,177.91,796.83,171.47Z"/><path class="cls-1" d="M237.93,269.8c-12.81,9.75-26.32,8-39.11,6.37-36.51-4.68-72.23-1.18-107.8,7.08-8.27,1.92-15.46,4.74-17.39,14.08-2,9.86,1.46,17.63,9.08,24.07,18,15.19,39.17,15.64,60.69,13,23.21-2.9,46.22-7.52,69.44-10.37,45.13-5.53,82.38-31.23,123.31-47.52q16.34-6.49,32.5-13.41c4-1.72,8.24-4.3,10.71,1.49,2.24,5.24-1.54,7.67-5.73,9.61-22.74,10.51-45.29,21.47-68.24,31.52-17.58,7.7-35.68,14.24-51.91,24.7a64.64,64.64,0,0,1-34.93,10.14c-39.18.27-76.65,12.64-115.51,15.36-19.64,1.37-37.57,2.9-53.69-12.35-10.86-10.27-27-12.35-40.24-19.21-6.3-3.27-13.29-6.61-6-15.46a7.81,7.81,0,0,0,1.46-4.44c1-28.83,14.24-43.11,42.61-47.26,15.78-2.3,31.27-6.91,47.09-8.55,19-2,38.24-4.18,56.41,5.57,7.59,4.07,16,5.63,24.72,1.92,11-4.69,19.16,4.44,28.83,6.35C215.5,264.67,226.7,267.32,237.93,269.8Z"/><path class="cls-1" d="M572.49,273.81c9,5.2,20.32,1.06,29.2,8.16-9.35,7.77-20.3,9.27-31.4,4.61-18.95-7.95-36.63-1.4-54.52,3.38-19.85,5.3-38.86,13.87-60.31,12.22-21.9-1.69-35.87-11.62-42.34-32.36-2.05-6.58-3.35-13.37-5.22-20-4.19-14.88-.73-18.31,14.65-18.52,27.73-.39,55.32-4.45,83.15-3.29,8.16.35,16.35.75,23.07,5.26,23.3,15.63,49.28,25.24,75.2,35.1,2.3.87,4.32,2.49,6.56,3.82-2.75,5.6-6.66,3.79-9.95,2.72-7.58-2.48-15.61-4.35-22.45-8.26C529.82,239.05,477.59,234,423.49,238.09c-9.18.69-8.42,3.89-4.49,9.64,22.06,32.41,54.73,30.59,87.39,26.06C528.59,270.71,550.45,269.12,572.49,273.81Z"/><path class="cls-1" d="M649.7,272c.3.18,0,.1,0,0Z"/><path class="cls-1" d="M789.29,140.7Q764.11,152.6,739,164.61h0c-16.75,4.45-29.65,15.58-43.39,25.19-.37.27-.75.53-1.13.79-.2.17-.4.34-.59.52a19.57,19.57,0,0,1,3.78,2.24c-22.74,18-41.51,39.87-60.87,61.21-3.44,3.8-9.46,7.62-6.35,13.43,3.8,7.12,9.3-.15,14.09-.11a47.52,47.52,0,0,0,4.76-.42c0,1.45,0,2.9,0,4.35a3.72,3.72,0,0,1,.39.21c0-.07.21-.15,1-.13l.72.15c11.61,2.22,22.5-1.27,33.39-4.6,36.48-16.1,73.57-31.28,96.49-67h0c3.12-10.76,9.61-19.71,15.57-28.94,1.27-7.31,2.17-14.71,3.9-21.91C803.63,137.5,798.74,136.23,789.29,140.7ZM764.7,161.43c3.8-1.71,7.5-3.78,11.45-5,4.12-1.3,9.85-6.36,12.37-.89,2.13,4.61.35,11.58-7.15,13.23-5.63-2.25-13.42.45-16.66-7.29h0Zm-51.29,31.31,6.44,1.44.49.33c3.57,2.48,6.15,4.86.7,8.81-19.36,14-37.54,29.31-52.06,48.64-2.89,3.86-8,9.74-10.53-1C674.17,229.11,691.22,208.48,713.41,192.74Z"/><path class="cls-1" d="M631.69,190.68c-.05.39-.09.77-.12,1.16s-.08.91-.11,1.37a3.15,3.15,0,0,1-1.05-.29l-2.76-1.63c-2.09,14.41.15,29.28-4.64,43.4-6.61-6.07-5.11-14.34-5.91-22h0c-3-6.94.55-14.71-2.74-21.61-.11-.29-.21-.57-.29-.86a19.65,19.65,0,0,1-.67-2.64c-.76-4-.51-8-.45-12a1.93,1.93,0,0,0,0-.24l0-1.12,3.7-.83c.1-7,.42-13.91.26-20.85-.69-30.45-1.77-60.89-11.16-90.22-1.54-4.8-2.69-11.64-9.29-11.45-5.45.16-6.66,6.07-8.15,10.63.41,5.39.11,10.79.64,16.17-5.42,31.27-2.78,62.45,3.88,93.48,3.47,16.18,7.91,32.17,11.1,48.44v0c1.49,5.46,4.85,10.42,4.08,16.51-.72,5.74-3.87,3.1-6.6,2.16-8.16-4.33-8.7-13.25-11.53-20.43-12.75-32.32-25.84-64.46-27.51-100.07-.82-17.38-.6-34.28,4.73-50.8,2.25-7,3.91-14.76,11.93-18.09,16.8-20.84,20.48-21.22,32,4.2,14.11,31.09,23.2,63.85,18.74,98.82C625,165.07,633.7,177.62,631.69,190.68Z"/><path class="cls-1" d="M576,237.17c-2.67,1.75-5.66.09-7.17-1.82-10.75-13.67-28.73-15.76-41.36-26.34-8.22-4.15-18.66-3.43-25.12-11.46-33.93-3.44-53.47-23-61.68-55.3-4-17-5.81-34-1.14-52.19C451,113.44,458,138.48,476.64,158.17c18.86,19.91,43.76,29,65.56,44.3-1.67-9.34-8.1-15.38-13-22.28-.42-.6-.85-1.19-1.29-1.79a2.52,2.52,0,0,0,3-1c-15.93-25.62-36.58-46.82-60.58-64.85a3.17,3.17,0,0,0-1.59,2.33l-.49-.4c-.75-3-5.72-6.94,1.71-8.24,32.63,15.07,53.07,43,73.73,70.6,2.83,3.78,4.59,8.47,9.42,10.41,7.84,3.77,8.34,11.32,9.52,18.52h0c5.43,7.18,12.72,13.1,14.48,22.7C577.61,231.64,579.5,234.89,576,237.17Z"/><path class="cls-1" d="M161.64,142.23c-2.08-16.13-17.26-17.45-31.6-21.33,9.14-6.15,15.56-11.62,18.21-21.76C138.05,95,131.9,97,127.43,107c-4,9.06-9.16,17.33-20.71,20.32C98.13,129.52,93,138.24,92.18,147c-1.64,17.09-1.32,34.17,7.35,50,10,18.3,38.51,21.92,51.07,5.27C164,184.48,164.32,163.16,161.64,142.23Zm-16.25,21.54c-3.68,11,3.88,27.8-13,32.56-11.38,3.22-19.9-1.89-21.35-14.75-.6-5.25-.1-10.64-.1-16-.3-23.84,4.75-29.56,23.34-26.91,1.57.22,3.42,0,4.67.77C148.73,145.45,148,156,145.39,163.77Z"/><path class="cls-1" d="M693.4,144.41c0-2.38,0-4.75,0-7.13A11.21,11.21,0,0,0,693.4,144.41Zm0,0c0-2.38,0-4.75,0-7.13A11.21,11.21,0,0,0,693.4,144.41Zm0,0c0-2.38,0-4.75,0-7.13A11.21,11.21,0,0,0,693.4,144.41Zm0,0c0-2.38,0-4.75,0-7.13A11.21,11.21,0,0,0,693.4,144.41Zm0,0c0-2.38,0-4.75,0-7.13A11.21,11.21,0,0,0,693.4,144.41Zm0,0c0-2.38,0-4.75,0-7.13A11.21,11.21,0,0,0,693.4,144.41Zm26.41-51.29c-1.62-10.65-4.69-23.63-14.76-26.61-9.74-2.88-17.18,8.27-23.54,15.9-19.73,23.69-27.64,52.22-32.56,81.9h0c-5.05,8.84-5.84,18.87-7.94,28.52a5.82,5.82,0,0,1,1.3,2.6q.15.6.27,1.32a3.91,3.91,0,0,0,1.63-.87c.87,16.21-11.05,30.74-5.79,48.1a288.07,288.07,0,0,1,37-56.83c1.26.29,2.54.51,3.83.7a44.79,44.79,0,0,1,3.4-3.19c7.53-6.4,16.84-11.36,17.58-23.22C716.52,141.5,723.73,118.8,719.81,93.12ZM693.4,144.41c0-2.38,0-4.75,0-7.13,0-16.89-.59-33.76-3.1-50.53v0c1.57-3.3,3-8,7.06-7.37,4.8.8,2.76,6,3.1,9.37C702.37,107.81,700.39,126.44,693.4,144.41Zm0,0c0-2.38,0-4.75,0-7.13A11.21,11.21,0,0,0,693.4,144.41Zm0,0c0-2.38,0-4.75,0-7.13A11.21,11.21,0,0,0,693.4,144.41Zm0,0c0-2.38,0-4.75,0-7.13A11.21,11.21,0,0,0,693.4,144.41Zm0,0c0-2.38,0-4.75,0-7.13A11.21,11.21,0,0,0,693.4,144.41Zm0,0c0-2.38,0-4.75,0-7.13A11.21,11.21,0,0,0,693.4,144.41Z"/><path class="cls-1" d="M439.7,92.48c-4.95,17.45,3.41,33.39,1,49.77-11.84-17.47-5.29-37-5.32-55.54,0-8.87,6.4-3.27,9.5-.4,7.85,7.29,13.4,17.41,25,20-4.21,2.35.28,4.2.37,6.31a3.17,3.17,0,0,0-1.59,2.33,4,4,0,0,0,1.37,2.92q28.32,29.94,56.74,59.79a3.11,3.11,0,0,0,1.1.78,2.52,2.52,0,0,0,3-1c9.24,8.56,17.12,18,22,34.81C497.57,185.49,450.2,157.12,439.7,92.48Z"/><path class="cls-1" d="M819.15,259.07c-1.76-6.46-10.3-3.16-15.83-3.37-52.9-2-101.74,15.29-150.61,32.3-2.75,1-7.05,1.46-6.32,5.79.78,4.57,5.29,5,8.81,5.38,24.27,2.85,48,11,68.84,7.79,7.27,0,10.51-.33,13.67.05,29.27,3.51,52.85-9,74.68-26.47A20.42,20.42,0,0,0,819.15,259.07Zm-16,14.59c-34.9-.43-69.1,5.29-103.18,12-3.16.62-6.23,1.64-8.42-1.83,37.41-15.86,77.77-15.22,117-21.82C809.48,267.76,805.44,270.28,803.13,273.66Z"/><path class="cls-1" d="M255.18,160.81c0,7.5.07,15,0,22.5-.08,9.23,3.15,15.51,13.37,16.44,11,1,14-6.79,15-14.91,1.84-14.27,2.9-28.69,3.45-43.07.35-9.12-.38-17.2,13-16.24,13.61,1,6.3,10.46,6.07,15.31-.74,15.92-1.82,32.08-5.33,47.56-4.81,21.3-17.22,28-41.49,24-16.86-2.81-18.65-17.14-20.08-30.49-1.6-14.84-2.08-29.8-3.09-44.71-.46-6.8,1.06-11.18,9.39-11.29s10,3.81,9.74,10.84C254.93,144.73,255.16,152.77,255.18,160.81Z"/><path class="cls-1" d="M188.19,50V35.58c0-27.68,17.8-38.15,43.27-25.46,8.67,4.32,14.85,26.8,7.32,33.52C226.29,54.8,233.17,62,239.92,71.73c3.3,4.79,14.34,9.86,7.87,16.12-7.74,7.5-12.45-3.64-17.52-8.14-4.76-4.23-8.75-9.33-13.08-14-7.76-8.48-14.73-16.08,2.68-22.44,8-2.93,6.07-11,3.61-18.15-2.58-7.46-8.34-5.66-13.25-5.12-9.14,1-6.07,8.66-6.2,13.88-.34,13.36-.38,26.76.2,40.11.33,7.63-3.15,11-9.95,11.43-9.59.65-5.76-6.94-6.05-11.28-.54-8-.16-16-.16-24.06Z"/><path class="cls-1" d="M177,33.86c-2.54-22.75-7.48-27.2-30.29-27.08-2.65,0-5.31-.1-8,0-19.25.83-27.77,10.57-27.44,31.3.49,31.11,11,48.59,29.62,48.88a32,32,0,0,0,7.83-1C166.94,81.6,179.66,58.08,177,33.86ZM154.31,70.05c-8.06,6-16.15,3.4-21.86-4a25.74,25.74,0,0,1-5.14-18.69c1.26-23.76,7.4-30.63,23.29-27.55A13.47,13.47,0,0,1,160.42,27C163.73,33.06,159.73,66,154.31,70.05Z"/><path class="cls-1" d="M579.06,48.86c-19.45,40.84-14.86,82.19-1.14,123.07,7.46,22.21,13.08,45.15,23.52,66.31-8,.51-8.13-6.27-10.91-11.15-5.77-10.11-7.65-23.36-20.92-27.83-2.15-5-2.56-10.43-3.68-15.69-3.93-18.63-12-36.15-14.42-55.23-4.08-32.42,1.63-62.81,16.73-93.64Z"/><path class="cls-1" d="M336.61,212.45c-3.74,0-7.48.12-11.21,0-5.65-.24-9.21-3.1-9-9,.3-8.06,6.17-2.93,9.54-3.64,1.53-.32,3.2.08,4.79,0,7.69-.51,17.28,2,20.25-8.24,3.22-11.14-5.48-15.05-13.74-18-14.39-5.2-23.71-12.93-21.45-30.55,1.92-15,7.78-21,23-19.44,6.34.67,12.68,1.28,19,2.19,2.72.4,7.15-1.28,7.2,3.63,0,3.47-2.36,5.9-6.11,6.09-4.27.22-8.54.19-12.81.32-4.81.15-10-.33-10.73,6.58-.64,6.06-1.05,12,6,14.9,2.46,1,4.95,2,7.43,3,13.36,5.34,25.84,10.83,21.42,29.65C365.67,208.89,360.89,212.64,336.61,212.45Z"/><path class="cls-1" d="M40,175.56c1.11-14.73-.41-30.16-2.56-45.52-1.7-12.08,4.4-14,14.8-14.11,12.73-.15,8.11,7.21,7.61,13.64-1.31,17-2,34.11-3.5,51.12-1,10.84.86,18.15,14.09,16.25a12,12,0,0,1,6.29.8c4,1.8,11.26.2,10.92,6.91-.35,7.09-7.17,4.4-11.46,5.17-12,2.14-27.51,8.26-35.05.23C35.42,203.9,40,188,40,175.56Z"/><path class="cls-1" d="M617.18,190.83q0,10.95-.07,21.88h0c-6.07-4.86,1.75-18.75-7.19-17.86-9.58,1-2.92,13.2-5.17,20.08a31,31,0,0,0-.77,4.64C582,168.52,574,116.11,588.34,61.47c.41,5.39.11,10.79.64,16.17a37.09,37.09,0,0,0,2,9.15,217.07,217.07,0,0,1,13.7,76.66c0,4.71-.71,10,6,11.26l1-.23c0,.24,0,.48,0,.72-.19,4.34-.85,8.82,1.72,12.39A11.05,11.05,0,0,0,617.18,190.83Z"/><path class="cls-1" d="M30.26.45C36.67,2.93,50.4-4.38,51.34,4.74c1,9.43-13.07,7.44-20.75,8.11-10.92,1-8.95,8.18-9.48,14.91C20.47,35.87,23.47,39.17,32,39.3c6.18.1,17.12-4.2,17.83,3.26.93,9.88-10.54,5.18-16.52,6.67-8.19,2-13.75,5.12-12.38,15,.58,4.2,0,8.55,0,12.83,0,5.66-2.66,9.23-8.42,9.67-7,.52-7.17-4.53-7.43-9.61-.85-16.5-2.32-33-2.7-49.48C1.75.7,2,.69,30.26.45Z"/><path class="cls-1" d="M312,23.1c-18.14,0-18.44.43-18.22,24.09,0,2.67,0,5.34,0,8H294c0,7.48-.09,15,0,22.42.06,3.66,0,7.23,4.38,9.31,16.2,7.61,37.37-2,41.69-19.66,1.49-6.1,1.56-12.66,1.58-19C341.75,28.77,334.85,23.06,312,23.1Zm12.88,50.32c-1.11,5.4-7.33,6.16-11.76,5.83-5.14-.38-3.48-5.63-3.71-9-.28-4.23-.07-8.49-.06-12.74s-.17-8.51.05-12.75c.27-5-1.21-11.71,7-11.53,6.47.15,11,3.88,12.18,10.44C330.44,53.88,326.84,63.65,324.84,73.42Z"/><path class="cls-1" d="M229.17,130.26c.28,7.13-3.75,8.45-8.32,8.27-11.95-.48-13.94,6.54-13.72,16.5.34,15-.14,29.93-.2,44.9,0,6.37-1,12.27-9,12.36-8.56.09-6.52-6.83-6.64-11.73-.29-12.29-.55-24.6-.16-36.88.4-12.65-.06-24.13-16.83-24.92-2.87-.14-5.18-1.51-5.23-4.79a5.62,5.62,0,0,1,4.55-5.8c17.33-4.07,34.89-2.27,52.37-1.63C227.28,126.59,228.5,129.43,229.17,130.26Z"/><path class="cls-1" d="M632.47,193.21a4.26,4.26,0,0,1-1,0,3.15,3.15,0,0,1-1.05-.29l-2.76-1.63c1.88-1.51,3-.64,3.92.55.26.33.52.69.79,1C632.4,193,632.43,193.1,632.47,193.21Z"/><path class="cls-1" d="M644.21,195.89a3.91,3.91,0,0,1-1.63.87q-.12-.72-.27-1.32A5.43,5.43,0,0,1,644.21,195.89Z"/><path class="cls-1" d="M651.38,272a7.32,7.32,0,0,1-2,5c0-1.73,0-3.46,0-5.19,0-1.45,0-2.9,0-4.35A7.18,7.18,0,0,1,651.38,272Z"/><path class="cls-1" d="M697.64,193.35a19.57,19.57,0,0,0-3.78-2.24c-4.61-2.11-9.69-2.49-14.66-3.25-1.29-.19-2.57-.41-3.83-.7a29.61,29.61,0,0,1,7.23-2.49c5-.93,9.51.32,13,5.13A23.07,23.07,0,0,1,697.64,193.35Z"/><path class="cls-1" d="M572.49,273.81c-35.24-4.39-69.34,8.46-104.57,6.61-23.66-1.25-41.06-9-48.93-32.69,37.24,16.18,76.84,18.47,116.57,19.73C548.22,267.86,560.83,267.89,572.49,273.81Z"/><path class="cls-1" d="M65.85,48.41c0-9.61.31-19.23-.09-28.82C65.42,11.38,67.09,6.16,77,6.84c10.64.74,8.35,7.1,6.72,13.56C80,35,83.27,50.07,80.24,64.91c-1.77,8.67,7.41,8.22,13.55,9.37,4.64.87,12.71-2.93,12.78,5,.07,7.68-8.29,4.61-12.87,5.56C66,90.58,66,90.41,66,62.82c0-4.8,0-9.61,0-14.41Z"/><path class="cls-1" d="M388.55,57.6c-5.57,8.79-20.94-2.74-21.08,12.84-.14,15.3,15.37,6.68,23.58,15.18-11.17,1.43-19.69,3.25-28.23,3.37-6.44.09-8.54-5-8.45-11.21.2-13.37.05-26.76,0-40.13,0-5.5-.08-11.16,6.73-12.8,8.84-2.12,18-3.56,26.53.27,3.39,1.53,2.18,5.94-1.82,6.89-7.66,1.83-18.49-1.63-18.22,12.12C367.9,58.45,381.72,51.9,388.55,57.6Z"/><path class="cls-1" d="M739,164.61l-41.33,28.74a19.57,19.57,0,0,0-3.78-2.24c-4.61-2.11-9.69-2.49-14.66-3.25-1.29-.19-2.57-.41-3.83-.7,7.6-9.23,18.55-15.2,24.81-25.71C712.73,167.22,726.15,162.13,739,164.61Z"/><path class="cls-1" d="M508.54,440c-4.74.37-9.38,1.27-13.21-3.2s-8.07-8.42-10.45,1.42c-.52,2.15-3.85,3.43-5.07,1.64-5.55-8.12-3.15-17.55-2.08-26.11s9.5-5.47,14.49-4.81c8.56,1.14,9.74,8.37,6.27,14.44-4.18,7.31.8,9.21,4.84,13.41,6.07-9-2.49-19.78,5.19-27.34C515.49,419.67,509.65,429.86,508.54,440Z"/><path class="cls-1" d="M344.26,435.6l-4.55-11.29c-3.66,3.57-3.77,8-4.77,12.1-.7,2.88-2.84,4.4-5.85,4.44-3.87.06-5.79-2.13-6.3-5.76-1.13-7.91-2.45-15.8-3.2-23.74-.33-3.36-1.52-8.56,4.15-8.44,4.94.1,4.81,4.85,4.88,8.58.1,5.33,0,10.66,0,16.83,1.72-1.34,2.67-1.73,3-2.43,3-5.62.62-17.41,8.92-15.91,7.7,1.4,6,13.21,8.21,20.51A5.88,5.88,0,0,1,344.26,435.6Z"/><path class="cls-1" d="M644.21,195.89a3.91,3.91,0,0,1-1.63.87q-.12-.72-.27-1.32a5.82,5.82,0,0,0-1.3-2.6c-2.12-2.21-5.65.1-8.54.37a4.26,4.26,0,0,1-1,0,3.15,3.15,0,0,1-1.05-.29l-2.76-1.63c.39-13.16-3.37-26.54,2.15-39.41.61,18.89.61,18.89,19.15,12.43h0C650.84,175.38,646.52,185.48,644.21,195.89Z"/><path class="cls-1" d="M121.51,408.46c-12-.77-10.65,7-10.14,15.63,2.12,5.5-5.15,17.31,10,17.08,13.35-.19,14.7-9.45,15.28-19.43C137.33,410.81,130.54,409,121.51,408.46Zm4.4,25.89c-.61.74-1.77,1-4.66,2.45-.55-3-1.39-5-1.16-6.95.61-5.53-2.41-11.77,2.54-16.37.71-.61,4.57.58,5.24,1.86C131.48,422,130.87,428.5,125.91,434.35Z"/><path class="cls-1" d="M68,405.5c-10.07-1.87-12.65,4.08-11.23,12.93,1.16,7.37-3.92,15.92,3.73,22,1.29,1,21.72-19.1,21.56-21.39C81.49,410.74,78.46,404.6,68,405.5Zm2.09,17.14c-4,1.68-4.15-1.44-4.31-3.92-.23-3.41-.61-7.08,2.18-9.1,5.09.12,6.08,3,6.76,6.14C75.53,419.59,73.15,421.39,70.1,422.64Z"/><path class="cls-1" d="M213.83,405.47c-9.58,0-15.6,4.53-14.54,13.31s-.8,21.91,13.16,21.78c12.83-.09,13.48-11.35,14-21.23C226.89,410.1,222.74,405.18,213.83,405.47Zm5.79,17.79c-.22,4.69-.26,10.58-6.43,10.93-7.08.39-5.76-5.92-6.31-10.26.32-4.79-.42-10.71,6.21-10.94S219.88,418.4,219.62,423.26Z"/><path class="cls-1" d="M458.64,405.5c-9.78.26-15.21,5.34-14,15.12,1.06,8.49.16,20.07,13,20.07,11.91,0,12.58-10.84,15.06-18.85C471.57,412.74,469.42,405.24,458.64,405.5Zm-.54,28.66c-6.34-.06-6.76-5.72-6.76-10.65,0-4.76,0-10.58,6.47-10.74,7-.16,5.95,5.92,6.24,10.78C463,427.57,465.37,434.26,458.1,434.16Z"/><path class="cls-1" d="M295.67,412.64c-.93-3.6-2.48-7-7.33-7-4.48,0-6.82,2.12-7.95,6.24-2.51,9.1-6.37,18-4.76,29.72,7.62-7.4,14.89-10.45,22.26,1C302.23,429.69,297.89,421.26,295.67,412.64Zm-5,14.61c-.51.77-3.44,1.06-4.18.38-4.66-4.44-2.77-9.1,1-16.12C290.78,417.76,294.13,422,290.65,427.25Z"/><path class="cls-1" d="M387.32,428.4c-.58-5.24-2.44-10.32-3.44-15.53-.8-4-2-7-6.85-7.27-4.57-.23-6.66,2.31-8.3,5.95-4,8.84-5.44,18.11-5.25,29.27,6.21-2.19,9.62-9.3,15.38-5C394,447.16,388,434.19,387.32,428.4Zm-10.26-.06c-1,.87-3.86,1.35-4.31.8-4.47-5.79-.1-10.42,2.51-18.08C380,418.56,382.82,423.35,377.06,428.34Z"/><path class="cls-1" d="M162.2,412.83c-1-3.92-2.12-7-6.88-7.2-4.32-.16-7.34,1.67-8.53,5.63-2.73,9.23-6.69,18.33-4.6,31.75,7.62-12.19,15-8.4,22.16-2.32C167.31,430.11,164.39,421.52,162.2,412.83ZM156,429c-.84.84-3.8,1.13-4.31.48-4.44-5.43-2.7-10.58,2.45-17.3C157.34,418.56,161.59,423.35,156,429Z"/><path class="cls-1" d="M502.38,197.54c9.16,2.09,19.06,2.57,25.12,11.47-14.36,2.58-28.43,11.54-44,3.35C487.46,202.79,499.48,206.37,502.38,197.54Z"/><path class="cls-1" d="M191.72,408.55c-15.87,7-17.29,13.56-5.62,27.39a16,16,0,0,0,1.83-2.31c1.85-3.34-2.86-9.32,3.76-10.51a4.14,4.14,0,0,1,4.54,5.14c-1,4.87,0,11.53-7.28,12.57-4.63.66-10.2,1.92-13.56-2.27-5.84-7.3-4-16.26-3.13-24.62.59-5.71,5.77-5.29,10-5.38C185.43,408.49,188.57,408.55,191.72,408.55Z"/><path class="cls-1" d="M423.77,408.62c-11.68-1.26-8.52,8.36-8.17,15,.42,7.37-4.05,18.43,10.81,17.53,12.67-.77,13.51-10.45,14.22-19.2C441.43,411.45,434,408.65,423.77,408.62Zm10.46,15.86c-.29,5.66-2.16,12.32-8.21,11.55-7.49-1-3.25-8.69-3.7-13.32-.42-4.28-1.67-11,6.18-9.78C434.55,413.89,434.52,419.46,434.23,424.48Z"/><path class="cls-1" d="M251.51,408.64C242.41,411,236.7,415,239,426.27c.82,4-.19,10.07,5.18,10,6.77-.06,3.72-5.67,3.11-9.5-.38-2.42.39-4.08,3.2-4.08,2.45,0,4.15,1.21,4.4,3.58.76,7.23,1,13.87-9.17,14.87-12.69,1.25-13.41-7.48-14.23-16.11-.77-8.12-1.67-16.71,10.7-16.43C245.27,408.7,248.39,408.64,251.51,408.64Z"/><path class="cls-1" d="M105,409.74c-4.88,4.34-18.14,5.71-3.69,13.11,2.52,1.29,2.47,3.92.1,4.64-15.63,4.81.73,8.33.4,12.61-16.15,4.76-13.22-7-14.21-16C86.13,411.12,90.89,405.91,105,409.74Z"/><path class="cls-1" d="M344.26,435.6l4.55-5.11c4-6.94,1.47-14.67,2.68-21.95.56-3.39,1.48-6.58,5.85-5.5,3.42.85,3.05,3.88,2.56,6.51-1.57,8.38-2.74,16.88-5,25.06S348.66,444.58,344.26,435.6Z"/><path class="cls-1" d="M412.62,438.14c-11.92,4.91-17.87,3.82-17-8.44.29-4.23-.23-8.51-.18-12.76,0-2.84-2-7.19,2.87-7.5,6.05-.39,4.23,4.86,4.35,8.12C402.93,425.5,399.85,434.49,412.62,438.14Z"/><path class="cls-1" d="M565.93,183.57c7.16,3.84,8,9.17,3.67,15.69-3.88.52-7.31,1.54-7,6.55L553,187.28Z"/><path class="cls-1" d="M508.54,440q0-15.27,0-30.55l16-1.08c-8.62,6.25-14.78,11.75-2.12,15.78C514.67,426.78,513.29,434.88,508.54,440Z"/><path class="cls-1" d="M684.77,267.44c-10.4,8.42-22.52,10.43-35.42,9.56,0-1.73,0-3.46,0-5.19,0-1.45,0-2.9,0-4.35C661.11,270.82,672.94,266.56,684.77,267.44Z"/><path class="cls-1" d="M267.25,439.78c-7-8.76-5.4-17.78-5.61-26.6a3.52,3.52,0,0,1,3.9-3.9c2.79,0,3.41,1.85,3.27,4.22Z"/><path class="cls-1" d="M781.35,171c.09,12.91-9.32,20.05-17.47,27.42-23.76,21.48-48.84,41.26-77.51,56a57.1,57.1,0,0,1-22.88,6.19c-7.5.44-10.28-2.79-5-9.65h0c2.5,10.72,7.64,4.84,10.53,1,14.52-19.33,32.7-34.61,52.06-48.64,5.45-3.95,2.87-6.33-.7-8.81a2.39,2.39,0,0,0,.15-.37,26.29,26.29,0,0,0,1-2.8c15.17-4.91,28.79-13.42,43.7-18.88C770.39,170.54,775.49,166.2,781.35,171Z"/><path class="cls-1" d="M719.85,194.18l-6.44-1.44C716,191.44,718.15,191.69,719.85,194.18Z"/><path class="cls-1" d="M781.35,171a154.9,154.9,0,0,0-39.17,16.74c-7.09,4.25-14,5.89-21.69,6.37l-.64,0-6.44-1.44c14.44-14.81,34.74-20,51.29-31.3h0c3.24,7.74,11,5,16.66,7.29A8.36,8.36,0,0,1,781.35,171Z"/><path class="cls-1" d="M616.68,173.36c-1,1.74-2.29,2.37-3.74,2.19a4.94,4.94,0,0,1-1.27-.35,8.36,8.36,0,0,1-1-.49l1-.23,1.29-.29Z"/><path class="cls-1" d="M617.18,190.83q-1.68-.3-3.12-.6c-12.36-2.48-12.21-4.49-3.39-15.52l1-.23,1.29-.29,3.7-.83Q616.92,182.09,617.18,190.83Z"/><path class="cls-1" d="M481,125.43a49.88,49.88,0,0,1-6.27-5.5Q477.91,122.63,481,125.43Z"/><path class="cls-1" d="M693.4,144.41c-7.15,21.88-23.7,36.8-39.11,53,2-40.38,9.5-78.61,36-110.66,0,0,0,0,0,0,2.51,16.77,3.07,33.64,3.1,50.53A11.21,11.21,0,0,0,693.4,144.41Z"/><path class="cls-1" d="M803.13,273.66c-11.32,18.77-31.36,15.53-48.45,18.31-21.08,3.43-42.44.66-63.48-2.35-6.57-.94-4.44-4.09.33-5.83,2.19,3.47,5.26,2.45,8.42,1.83C734,279,768.23,273.23,803.13,273.66Z"/></g></g></svg>