<svg xmlns="http://www.w3.org/2000/svg" viewBox="0 0 902.27 516.29"><defs><style>.cls-1{fill:#229159;}</style></defs><g id="Camada_2" data-name="Camada 2"><g id="Camada_1-2" data-name="Camada 1"><path class="cls-1" d="M177.47,16.48q24.75,11,38.12,31.6T229,96.15q0,27.48-13.4,48.07t-38.12,31.6q-24.72,11-58,11H84.77v59.06h-81V5.5H119.45q33.3,0,58,11M139,116.93q8.23-7.4,8.24-20.78c0-8.93-2.75-15.84-8.24-20.78S125.29,68,114.29,68H84.77v56.32h29.52q16.5,0,24.73-7.38"/><path class="cls-1" d="M359.24,204H267.9l-16.13,41.89H169.35L274.43,5.5H354.1L459.17,245.86H375.38Zm-22.31-58.38L313.57,85.15l-23.35,60.44Z"/><polygon class="cls-1" points="665.56 5.5 665.56 245.86 598.95 245.86 507.6 136.66 507.6 245.86 428.63 245.86 428.63 5.5 495.24 5.5 586.59 114.7 586.59 5.5 665.56 5.5"/><path class="cls-1" d="M725.77,235.39a119.43,119.43,0,0,1-47.89-44.64q-17.36-28.67-17.35-65.08t17.35-65.06A119.27,119.27,0,0,1,725.77,16Q756.34,0,794.45,0q35,0,62.5,12.36a116.28,116.28,0,0,1,45.32,35.71L851.11,93.74Q828.79,65.6,798.57,65.59q-25.43,0-40.86,16.31t-15.44,43.77q0,27.49,15.44,43.78t40.86,16.32q30.21,0,52.54-28.16l51.16,45.66A115.94,115.94,0,0,1,857,239q-27.5,12.36-62.5,12.36-38.12,0-68.68-16"/><path class="cls-1" d="M222.75,414.76q11.55,14.94,11.55,36,0,31.26-25.8,48.39t-74.71,17.15H0V278.59H127q47.55,0,71.83,17t24.27,45.16a55.16,55.16,0,0,1-8.31,29.89q-8.34,13.23-24.62,21.38,21,7.81,32.59,22.76m-144-80.15v35.32h37.36q26.14,0,26.13-17.66t-26.13-17.66Zm74.7,107q0-18.68-26.49-18.68H78.78v37.36H127q26.51,0,26.49-18.68"/><polygon class="cls-1" points="441.23 455.84 441.23 516.28 243.6 516.28 243.6 278.59 436.82 278.59 436.82 339.03 322.37 339.03 322.37 366.87 422.89 366.87 422.89 424.6 322.37 424.6 322.37 455.84 441.23 455.84"/><polygon class="cls-1" points="659.37 455.84 659.37 516.28 461.74 516.28 461.74 278.59 654.96 278.59 654.96 339.03 540.51 339.03 540.51 366.87 641.03 366.87 641.03 424.6 540.51 424.6 540.51 455.84 659.37 455.84"/><path class="cls-1" d="M776.3,456.52H754.57v59.77H674.43V278.59H788.86q32.94,0,57.38,10.85t37.7,31.25q13.23,20.4,13.24,47.55,0,25.44-11.54,44.48t-33.29,30.22l49.92,73.35H816.71Zm31.92-108.84q-8.13-7.28-24.45-7.29h-29.2v55.69h29.2q16.31,0,24.45-7.29t8.15-20.55q0-13.25-8.15-20.56"/></g></g></svg>