<svg xmlns="http://www.w3.org/2000/svg" viewBox="0 0 848.93 493.48"><defs><style>.cls-1{fill:#b7b7b7;}</style></defs><g id="Camada_2" data-name="Camada 2"><g id="Camada_1-2" data-name="Camada 1"><path class="cls-1" d="M230.87,173c-4.72-3.72-12.17-5.63-22.09-5.63h-6.69V203.5h6.69c10.07,0,17.82-1.87,22.43-5.38,2.49-2,5-5.1,5-12.42S233.52,175.07,230.87,173Z"/><path class="cls-1" d="M342.12,354.28a52.92,52.92,0,0,0-3.39,4.42l-.11.14c-4.05,5.78-6,11.07-6,16.13,0,6,1.82,8.73,3.2,10.25l.22.27c1.41,1.62,3.37,3.12,8,3.12s9.45-1.73,14.66-5.15a37.41,37.41,0,0,0,3.83-2.86c-3.88-4.44-7.95-9.56-12.27-15.43C347.3,361.22,344.54,357.54,342.12,354.28Z"/><path class="cls-1" d="M383.05,218.93c-4.22,0-6.22,1.22-7.63,2.43-1,.85-1.82,1.77-1.82,4.58a31.84,31.84,0,0,0,1.88,10.7c12.74-9.24,13.2-14.64,13.2-15.37a10.24,10.24,0,0,0-.12-1.69A17.71,17.71,0,0,0,383.05,218.93Z"/><path class="cls-1" d="M418.73,295.14q2.53,3.42,5.48,7.31L428,307a128.87,128.87,0,0,1,15-14V274.25a122.07,122.07,0,0,1-19.23,17.19Z"/><path class="cls-1" d="M640.59,162.88c0-6-2.12-7.66-3.14-8.45-1.89-1.48-6.6-3.87-17.54-3.87h-3v25.06h3c8,0,14.17-1.41,17.39-4C638.44,170.76,640.59,169.05,640.59,162.88Z"/><path class="cls-1" d="M650.34,304c-5.13-3.54-13.76-5.42-25-5.42h-8.46v33.29h8.46c11.19,0,19.79-1.93,24.88-5.58,2.65-1.9,5.13-4.6,5.13-11.1S653,305.92,650.34,304Z"/><path class="cls-1" d="M819.86,245.38a116.81,116.81,0,0,0-16.57-15.92c.9-1.1,1.77-2.24,2.64-3.39,15.84-21.09,23.86-47.21,23.86-77.65,0-46.39-16.25-83.49-48.27-110.25C751.28,12.86,710.14,0,659.21,0H424.81V130.87c-8.14-36.14-25.07-65.15-50.43-86.38C338.44,14.55,285.94,0,213.9,0H0V486.44H219.67V402.81c3.13,21.38,11.23,40,24.23,55.53,19.16,23,46.1,35.14,77.89,35.14,28,0,52.86-7.2,73.78-21.39l1.23-.84,1.15-.92q4.95-4,9.44-7.74c20.26,16.81,39.8,25,59.22,25,5,0,12-.19,21.18-.62,10-.45,15.2-.56,17.79-.56h153c59.39,0,104.21-12,137-36.81,24.3-18.35,53.28-53.36,53.28-115.88C848.93,298,839.18,268.29,819.86,245.38ZM784.7,435.13c-29.14,22-71.55,33.14-126.08,33.14H511.88l.18-.62a34.34,34.34,0,0,1-6.48.62c-4,0-10.31.2-18.62.58-8.82.41-15.66.6-20.35.6-18.39,0-37.72-10.16-58.82-31-6,5.19-13.11,11.11-21.29,17.74l-.54.46-.59.39c-17.87,12.11-39.25,18.26-63.58,18.26-26.61,0-48.11-9.63-64-28.6-14.25-17-21.49-38.81-21.49-64.7a108.77,108.77,0,0,1,6.06-36.87c-3.89.12-7.55.13-10.57.13H201.5v123H18.17V18.17H213.9c66.68,0,116.76,13.55,148.85,40.28,24,20.06,39.44,48.42,45.95,84.31l1.71,9.42a71.34,71.34,0,0,1,29.35,16.53c1.12,1.06,2.18,2.15,3.22,3.27V18.17H659.21c46.54,0,83.76,11.42,110.63,33.93,27.73,23.16,41.78,55.58,41.78,96.32,0,26.41-6.8,48.87-20.23,66.75a89.6,89.6,0,0,1-17,17.28A104.45,104.45,0,0,1,806,257.14c16.43,19.49,24.74,45.25,24.74,76.61C830.76,378,815.25,412.05,784.7,435.13Z"/><path class="cls-1" d="M298.25,280.56c-5.59-16.5-8.29-30.17-8.29-41.48,0-27.87,8.29-50.62,24.66-67.71,16.63-17.29,39.37-26,67.64-26q5.13,0,10.06.39c-5.85-32.21-19.33-57-40.23-74.48Q308.4,34.86,213.9,34.83H34.83V451.62h150v-123h47c5.13,0,10.06-.07,14.92-.33a97.41,97.41,0,0,1,11.77-16.24C266,303.84,278.72,293.71,298.25,280.56Zm-56.74-69.35c-7.62,5.92-18.53,8.94-32.74,8.94H185.44V150.66h23.33c13.88,0,24.66,3.09,32.48,9.27s11.64,14.79,11.64,25.77S249.07,205.16,241.51,211.21Z"/><path class="cls-1" d="M793.33,267.94q-20.8-24.45-63.24-33.26,31-6.9,48-29.52T795,148.43q0-53.55-35.83-83.56t-99.92-30H459.64v158.5a92.07,92.07,0,0,1,5.65,33,69.6,69.6,0,0,1-5.65,27.48v25.77a85.33,85.33,0,0,1,34.84-7c11.9,0,17.81.79,22.61,3,7.56,3.75,15.91,11.77,15.91,30,0,17.62-1.25,31-3.88,40.82-1.51,6.05-6.9,17.16-25.24,20.91-11.24,2.43-14.33,3.81-14.6,3.94a20.18,20.18,0,0,0-2.3,1.19,41.87,41.87,0,0,0,14.4,2.17c31.82,0,34.25,19.26,34.25,25.18v42.66a31.49,31.49,0,0,1-1.31,9.14H658.63q76.62,0,116-29.78t39.44-88.09Q814.1,292.42,793.33,267.94Zm-193.08-134h19.66c12.16,0,21.43,2.43,27.74,7.36s9.6,12.16,9.6,21.63-3.22,16.76-9.6,21.83-15.58,7.56-27.74,7.56H600.25Zm59.69,206q-12.12,8.68-34.58,8.68H600.25v-66.6h25.11q22.49,0,34.58,8.48c8,5.72,12.1,14,12.1,24.79S668,334.08,659.94,339.86Z"/><path class="cls-1" d="M501.38,394.36q-29.58,0-42.07-20.64c5.78-9.54,12.95-16.31,21.43-20.19,3.35-1.64,9.79-3.48,19.19-5.45,5.92-1.25,9.34-3.49,10.13-6.71,2.17-8.08,3.22-20.05,3.22-35.76,0-6.64-1.45-10.65-4.4-12.16q-2.67-1.18-14.4-1.18c-14.4,0-27.22,3.87-38.39,11.7q-12.33,8.67-28.34,29.12c-7.29-9.07-12.82-15.78-16.56-20.25-7-9.27-12.17-16.37-15.39-21.23,2.3-1.84,8.29-6.38,18-13.54Q425,269.78,431,262.68q14.59-17,14.6-36.35c0-19.46-5.72-34.58-17.23-45.49q-16.75-15.78-46.08-15.78c-22.81,0-40.56,6.64-53.38,20s-19.19,31.36-19.19,54q0,18,12.48,49.31-37.56,24.25-48.9,36.81Q253.05,347.88,253,382c0,22,5.85,40,17.62,54q18.83,22.57,51.14,22.61,31.56,0,54.24-15.38c14.92-12.1,25.83-21.5,32.73-28.07q33.13,37.56,57.85,37.6c4.41,0,11-.2,19.59-.59s15.12-.59,19.4-.59c6.9,0,10.32-3.09,10.32-9.14V399.82C515.91,396.2,511,394.36,501.38,394.36Zm-133.58,3c-8,5.26-16,7.89-23.8,7.89-8.61,0-15.45-3-20.58-8.87-5-5.53-7.49-12.69-7.49-21.43,0-8.55,3-17.1,9.07-25.71a57.77,57.77,0,0,1,20.25-18.6c.66.79,6.77,9,18.41,24.65,7.43,10.12,14.13,17.95,20.24,23.47C381.14,385.94,375.82,392.12,367.8,397.38Zm1.9-137.52Q357,243.48,357,225.93c0-7.16,2.57-12.88,7.63-17.22s11.17-6.44,18.47-6.44c14.86,0,22.29,6.31,22.29,19S393.44,246.77,369.7,259.86Z"/></g></g></svg>