<svg xmlns="http://www.w3.org/2000/svg" viewBox="0 0 848.94 493.48"><defs><style>.cls-1{fill:#231d2b;}.cls-2{fill:#ffa018;}.cls-3{fill:#e1362e;}</style></defs><g id="Camada_2" data-name="Camada 2"><g id="Camada_1-2" data-name="Camada 1"><path class="cls-1" d="M362.49,380.6a36.34,36.34,0,0,1-3.83,2.86c-5.21,3.42-10.14,5.15-14.66,5.15s-6.58-1.5-8-3.12l-.23-.27c-1.38-1.52-3.19-4.23-3.19-10.26,0-5,2-10.34,6-16.12l.11-.14a50.86,50.86,0,0,1,3.39-4.42c2.42,3.26,5.18,6.93,8.1,10.89C354.54,371,358.62,376.16,362.49,380.6Z"/><path class="cls-1" d="M388.69,221.27c0,.73-.47,6.13-13.2,15.37a31.85,31.85,0,0,1-1.88-10.71c0-2.8.82-3.72,1.81-4.57,1.41-1.21,3.41-2.44,7.64-2.44a18.09,18.09,0,0,1,5.51.65A10.48,10.48,0,0,1,388.69,221.27Z"/><path class="cls-1" d="M443,274.25V293a129,129,0,0,0-15,14c-1.5-1.81-2.75-3.32-3.8-4.56q-2.93-3.88-5.48-7.32l5-3.69A122.52,122.52,0,0,0,443,274.25Z"/><path class="cls-1" d="M819.86,245.38a116.2,116.2,0,0,0-16.56-15.92c.89-1.1,1.77-2.24,2.63-3.39,15.84-21.09,23.87-47.21,23.87-77.65,0-46.39-16.25-83.49-48.28-110.25C751.28,12.85,710.14,0,659.22,0H424.82V130.87c-8.15-36.14-25.08-65.15-50.44-86.38C338.45,14.55,286,0,213.9,0H0V486.44H219.67V402.81c3.14,21.38,11.24,40,24.23,55.53,19.17,23,46.11,35.14,77.89,35.14,28,0,52.86-7.21,73.79-21.39l1.23-.84,1.15-.92c3.3-2.7,6.45-5.27,9.43-7.74,20.26,16.81,39.81,25,59.22,25,5,0,12-.2,21.18-.62,10-.45,15.21-.56,17.8-.56h153c59.39,0,104.21-12,137-36.81,24.3-18.35,53.29-53.36,53.29-115.88C848.94,298,839.18,268.29,819.86,245.38ZM784.7,435.12c-29.13,22-71.54,33.15-126.07,33.15H511.89l.18-.62a34.5,34.5,0,0,1-6.48.62c-4,0-10.32.2-18.63.58-8.81.4-15.66.6-20.35.6-18.38,0-37.72-10.16-58.81-31q-9,7.8-21.29,17.75l-.55.46-.59.39c-17.86,12.11-39.25,18.26-63.58,18.26-26.6,0-48.11-9.63-63.94-28.6-14.25-17-21.49-38.81-21.49-64.71a108.85,108.85,0,0,1,6.06-36.87c-3.9.13-7.56.14-10.57.14H201.5v123H18.18V18.17H213.9c66.69,0,116.76,13.55,148.85,40.28,24,20.06,39.45,48.42,46,84.31l1.71,9.42a71.3,71.3,0,0,1,29.34,16.53c1.12,1.06,2.18,2.15,3.23,3.27V18.17H659.22c46.53,0,83.75,11.42,110.63,33.93,27.72,23.15,41.77,55.57,41.77,96.32,0,26.41-6.79,48.87-20.22,66.75a89.88,89.88,0,0,1-17,17.28A104.41,104.41,0,0,1,806,257.14c16.43,19.49,24.74,45.25,24.74,76.61C830.76,378,815.26,412.05,784.7,435.12Z"/><path class="cls-2" d="M806,257.14a104.41,104.41,0,0,0-31.58-24.69,89.88,89.88,0,0,0,17-17.28c13.43-17.88,20.22-40.34,20.22-66.75,0-40.75-14-73.17-41.77-96.32C743,29.59,705.75,18.17,659.22,18.17H443V172c-1.05-1.12-2.11-2.21-3.23-3.27a71.3,71.3,0,0,0-29.34-16.53l-1.71-9.42c-6.51-35.89-22-64.25-46-84.31C330.66,31.72,280.59,18.17,213.9,18.17H18.18v450.1H201.5v-123h30.35c3,0,6.67,0,10.57-.14A108.85,108.85,0,0,0,236.36,382c0,25.9,7.24,47.67,21.49,64.71,15.83,19,37.34,28.6,63.94,28.6,24.33,0,45.72-6.15,63.58-18.26l.59-.39.55-.46q12.27-9.94,21.29-17.75c21.09,20.84,40.43,31,58.81,31,4.69,0,11.54-.2,20.35-.6,8.31-.38,14.58-.58,18.63-.58a34.5,34.5,0,0,0,6.48-.62l-.18.62H658.63c54.53,0,96.94-11.14,126.07-33.15,30.56-23.07,46.06-57.17,46.06-101.37C830.76,302.39,822.45,276.63,806,257.14ZM231.85,328.62h-47v123h-150V34.83H213.91q94.47,0,138.18,36.42,31.37,26.23,40.23,74.48c-3.28-.26-6.64-.39-10.05-.39-28.27,0-51,8.74-67.65,26C298.25,188.46,290,211.21,290,239.08c0,11.31,2.69,25,8.28,41.48-19.52,13.15-32.28,23.27-39.71,31.49a97.1,97.1,0,0,0-11.76,16.24C241.91,328.55,237,328.62,231.85,328.62ZM515.91,442.48c0,6-3.42,9.14-10.32,9.14-4.27,0-10.78.19-19.39.59s-15.19.59-19.59.59q-24.75,0-57.85-37.6c-6.9,6.57-17.82,16-32.74,28.07q-22.68,15.38-54.23,15.38-32.35,0-51.15-22.61C258.87,422,253,404,253,382q0-34.12,20.25-56.8,11.34-12.52,48.91-36.81Q309.65,257,309.69,239.08q0-34,19.2-54c12.81-13.34,30.56-20,53.38-20q29.28,0,46.08,15.78c11.5,10.91,17.22,26,17.22,45.49q0,19.42-14.59,36.35-6,7.1-17.16,15.38c-9.73,7.17-15.71,11.71-18,13.55,3.22,4.86,8.35,12,15.38,21.23,3.75,4.47,9.27,11.18,16.57,20.25q16-20.41,28.33-29.12,16.77-11.75,38.39-11.71c7.83,0,12.62.4,14.4,1.19,3,1.51,4.4,5.52,4.4,12.16,0,15.71-1,27.68-3.22,35.76-.79,3.22-4.2,5.46-10.12,6.71-9.4,2-15.84,3.81-19.2,5.45-8.48,3.88-15.64,10.65-21.43,20.18q12.53,20.61,42.07,20.65c9.67,0,14.53,1.84,14.53,5.45ZM443,274.25V293a129,129,0,0,0-15,14c-1.5-1.81-2.75-3.32-3.8-4.56q-2.93-3.88-5.48-7.32l5-3.69A122.52,122.52,0,0,0,443,274.25ZM774.66,421.84q-39.43,29.78-116,29.78H534.32a31.15,31.15,0,0,0,1.32-9.14V399.81c0-5.91-2.44-25.17-34.26-25.17A41.81,41.81,0,0,1,487,372.47a19.38,19.38,0,0,1,2.3-1.19c.26-.13,3.35-1.51,14.59-3.94,18.34-3.75,23.73-14.86,25.25-20.91,2.63-9.86,3.88-23.2,3.88-40.82,0-18.28-8.35-26.3-15.91-30-4.8-2.24-10.72-3-22.62-3a85.2,85.2,0,0,0-34.84,7V253.81a69.43,69.43,0,0,0,5.65-27.48,91.85,91.85,0,0,0-5.65-33V34.83H659.22q64,0,99.93,30T795,148.43c0,22.74-5.59,41.67-16.9,56.73s-27.28,24.91-48,29.52q42.4,8.77,63.24,33.26t20.78,65.81Q814.11,392.12,774.66,421.84Z"/><path class="cls-3" d="M352.09,71.25Q308.41,34.86,213.91,34.83H34.83V451.62h150v-123h47c5.13,0,10.06-.07,14.93-.33a97.1,97.1,0,0,1,11.76-16.24c7.43-8.22,20.19-18.34,39.71-31.49-5.59-16.5-8.28-30.17-8.28-41.48,0-27.87,8.28-50.62,24.65-67.71,16.63-17.29,39.38-26,67.65-26,3.41,0,6.77.13,10.05.39Q383.55,97.42,352.09,71.25Zm-110.57,140c-7.63,5.91-18.54,8.94-32.74,8.94H185.44V150.66h23.34c13.87,0,24.65,3.09,32.48,9.27s11.63,14.79,11.63,25.77S249.08,205.16,241.52,211.21Z"/><path class="cls-2" d="M241.26,159.93c-7.83-6.18-18.61-9.27-32.48-9.27H185.44v69.49h23.34c14.2,0,25.11-3,32.74-8.94s11.37-14.53,11.37-25.51S249,166.11,241.26,159.93Zm-10,38.19c-4.6,3.51-12.36,5.37-22.42,5.37h-6.7V167.32h6.7c9.91,0,17.36,1.91,22.09,5.63,2.65,2.12,5.36,5.29,5.36,12.75S233.71,196.09,231.21,198.12Z"/><path class="cls-3" d="M793.33,267.94q-20.8-24.45-63.24-33.26c20.71-4.61,36.68-14.4,48-29.52s16.9-34,16.9-56.73q0-53.55-35.83-83.56t-99.93-30H459.64v158.5a91.85,91.85,0,0,1,5.65,33,69.43,69.43,0,0,1-5.65,27.48v25.77a85.2,85.2,0,0,1,34.84-7c11.9,0,17.82.79,22.62,3,7.56,3.74,15.91,11.76,15.91,30,0,17.62-1.25,31-3.88,40.82-1.52,6.05-6.91,17.16-25.25,20.91-11.24,2.43-14.33,3.81-14.59,3.94a19.38,19.38,0,0,0-2.3,1.19,41.81,41.81,0,0,0,14.39,2.17c31.82,0,34.26,19.26,34.26,25.17v42.67a31.15,31.15,0,0,1-1.32,9.14H658.63q76.62,0,116-29.78t39.45-88.09Q814.11,292.42,793.33,267.94Zm-193.07-134h19.65c12.16,0,21.43,2.43,27.74,7.36s9.6,12.16,9.6,21.63-3.22,16.76-9.6,21.82-15.58,7.56-27.74,7.56H600.26Zm59.69,206c-8.09,5.78-19.59,8.68-34.58,8.68H600.26v-66.6h25.11c15,0,26.49,2.83,34.58,8.48s12.09,14,12.09,24.79S668,334.07,660,339.86Z"/><path class="cls-2" d="M647.65,141.26c-6.31-4.93-15.58-7.36-27.74-7.36H600.26v58.37h19.65c12.16,0,21.43-2.56,27.74-7.56s9.6-12.29,9.6-21.82S654,146.19,647.65,141.26Zm-10.34,30.39c-3.23,2.56-9.4,4-17.4,4h-3V150.56h3c11,0,15.66,2.39,17.55,3.87,1,.79,3.13,2.43,3.13,8.45C640.59,169.05,638.44,170.76,637.31,171.65Z"/><path class="cls-2" d="M660,290.42c-8.09-5.65-19.59-8.48-34.58-8.48H600.26v66.6h25.11c15,0,26.49-2.9,34.58-8.68s12.09-14,12.09-24.65S668,296.14,660,290.42Zm-9.7,35.89c-5.08,3.65-13.68,5.57-24.87,5.57h-8.47V298.6h8.47c11.2,0,19.83,1.88,25,5.42,2.62,1.9,5,4.58,5,11.19S652.9,324.4,650.25,326.31Z"/><path class="cls-3" d="M501.38,394.36q-29.58,0-42.07-20.65c5.79-9.53,12.95-16.3,21.43-20.18,3.36-1.64,9.8-3.48,19.2-5.45,5.92-1.25,9.33-3.49,10.12-6.71,2.17-8.08,3.22-20.05,3.22-35.76,0-6.64-1.44-10.65-4.4-12.16-1.78-.79-6.57-1.19-14.4-1.19q-21.6,0-38.39,11.71-12.33,8.67-28.33,29.12c-7.3-9.07-12.82-15.78-16.57-20.25-7-9.27-12.16-16.37-15.38-21.23,2.3-1.84,8.28-6.38,18-13.55Q425,269.78,431,262.68q14.59-17,14.59-36.35c0-19.46-5.72-34.58-17.22-45.49q-16.77-15.78-46.08-15.78c-22.82,0-40.57,6.64-53.38,20s-19.2,31.36-19.2,54q0,18,12.49,49.31-37.57,24.25-48.91,36.81Q253.05,347.88,253,382c0,22,5.85,40,17.62,54q18.84,22.57,51.15,22.61,31.54,0,54.23-15.38c14.92-12.1,25.84-21.5,32.74-28.07q33.14,37.56,57.85,37.6c4.4,0,11-.2,19.59-.59s15.12-.59,19.39-.59c6.9,0,10.32-3.09,10.32-9.14V399.81C515.91,396.2,511.05,394.36,501.38,394.36Zm-133.58,3c-8,5.26-16,7.89-23.79,7.89-8.62,0-15.45-3-20.58-8.87q-7.5-8.29-7.5-21.44,0-12.81,9.08-25.7a57.66,57.66,0,0,1,20.24-18.6q1,1.17,18.41,24.65c7.43,10.12,14.14,17.94,20.25,23.47C381.15,385.94,375.82,392.12,367.8,397.38Zm1.91-137.53Q357,243.49,357,225.93c0-7.16,2.56-12.88,7.62-17.22s11.18-6.44,18.47-6.44c14.86,0,22.29,6.31,22.29,19S393.44,246.77,369.71,259.85Z"/><path class="cls-2" d="M363.66,355.31q-17.45-23.47-18.41-24.65A57.66,57.66,0,0,0,325,349.26q-9.08,12.92-9.08,25.7,0,13.13,7.5,21.44c5.13,5.91,12,8.87,20.58,8.87,7.82,0,15.77-2.63,23.79-7.89s13.35-11.44,16.11-18.6C377.8,373.25,371.09,365.43,363.66,355.31Zm-5,28.15c-5.21,3.42-10.14,5.15-14.66,5.15s-6.58-1.5-8-3.12l-.23-.27c-1.38-1.52-3.19-4.23-3.19-10.26,0-5,2-10.34,6-16.12l.11-.14a50.86,50.86,0,0,1,3.39-4.42c2.42,3.26,5.18,6.93,8.1,10.89,4.31,5.87,8.39,11,12.26,15.43A36.34,36.34,0,0,1,358.66,383.46Z"/><path class="cls-2" d="M383.05,202.27c-7.29,0-13.41,2.1-18.47,6.44S357,218.77,357,225.93q0,17.55,12.75,33.92,35.6-19.62,35.63-38.58C405.34,208.58,397.91,202.27,383.05,202.27Zm-7.56,34.37a31.85,31.85,0,0,1-1.88-10.71c0-2.8.82-3.72,1.81-4.57,1.41-1.21,3.41-2.44,7.64-2.44a18.09,18.09,0,0,1,5.51.65,10.48,10.48,0,0,1,.12,1.7C388.69,222,388.22,227.4,375.49,236.64Z"/></g></g></svg>