<svg xmlns="http://www.w3.org/2000/svg" viewBox="0 0 883.53 540.82"><defs><style>.cls-1{fill:#b7b7b7;}</style></defs><g id="Camada_2" data-name="Camada 2"><g id="Camada_1-2" data-name="Camada 1"><path class="cls-1" d="M614.27,107.16a41.36,41.36,0,0,0-9.93-5.74,3.77,3.77,0,0,1-2.5-3.17A44.33,44.33,0,0,0,599.41,89c-7.68-20.17-26-29.86-41.92-29.72A49.1,49.1,0,0,0,543.27,61c-1.82.56-2.18.13-1.81-1.89A51.67,51.67,0,0,0,542,42a46,46,0,0,0-72.67-30.24c-1.93,1.37-2,1.33-3.74-.06a54.08,54.08,0,0,0-7.78-5.58,46.11,46.11,0,0,0-55.65,7.63c-5,5.18-10.15,10.2-15.25,15.28-4.34,4.31-3.48,3.8-8.22.82-10.37-6.51-21.64-8.33-33.6-6.1-9.42,1.76-17.32,6.37-24.07,13.06-5.45,5.4-10.86,10.84-16.29,16.27-8.7,8.7-17.47,17.34-26.09,26.13-14,14.23-17.62,33.77-9.82,51.8a49.66,49.66,0,0,0,4.77,8.31c1.08,1.58,1.06,1.93-.32,3.26-2.65,2.55-5.5,4.9-8,7.54-13.85,14.42-17.78,31.27-10.67,49.92,8.14,21.36,29.3,31.5,49.1,28.44a49.92,49.92,0,0,0,28.54-14.51q13-13.11,26.07-26.16c1.13-1.13,2.28-2.22,3.58-3.48,1.08,1.05.75,1.87.78,2.61.1,3-.18,6.13.32,9.09,3.13,18.66,13.53,31.71,31.53,37.53s34,1.3,47.55-12c1.22-1.2,1.88-3.39,3.76-3.39s2.95,1.76,4.33,2.81c15.43,11.72,38.09,13.61,53.63,5.89.57-.28,1.18-.49,1.73-.81a2.93,2.93,0,0,1,3.54.46c1.65,1.25,3.25,2.6,5,3.7a45.77,45.77,0,0,0,57-6q24-23.81,47.85-47.78a44.2,44.2,0,0,0,13.41-31.35C632.56,129.47,626.39,116.9,614.27,107.16ZM325.91,206.33A43.66,43.66,0,0,1,306.43,218c-20.84,5.8-41.39-8.53-44.77-28.7-2.12-12.66,1.73-23.31,10.58-32.31,2.58-2.62,5.36-5,8.08-7.5,1.36-1.24,1.68-1.21,3.34-.2,2.45,1.49,4.83,3.16,7.4,4.41A43.3,43.3,0,0,0,311,158.16c1.28,0,2.55,0,4.08,0,0,1.77-1.14,2.32-1.88,3.07-4.49,4.55-9,9.05-13.54,13.59a17.94,17.94,0,0,0-2.49,2.89,4.7,4.7,0,0,0,.77,6.12,5,5,0,0,0,6.2.26,21.92,21.92,0,0,0,2.45-2.28c13.91-13.89,27.94-27.67,41.69-41.73C377.3,110.36,406.7,81,436,51.52c1.12-1.14,2.3-2.24,3.3-3.47a5.08,5.08,0,0,0,0-6.59,4.86,4.86,0,0,0-6.9-.14c-3.5,3.27-6.85,6.71-10.22,10.12q-29.37,29.64-58.71,59.28-13.5,13.62-27.09,27.17a34.75,34.75,0,0,1-25.44,10.55,36.09,36.09,0,0,1-35.82-31.11c-1.69-12.32,2.17-22.69,10.75-31.39C296.72,74.9,307.74,64,318.7,53c3.28-3.28,6.52-6.6,9.85-9.83a35.8,35.8,0,0,1,26.87-10.62,34.11,34.11,0,0,1,20,6.87c.1,1.28-.78,1.82-1.42,2.49-1.77,1.84-3.57,3.67-5.37,5.47q-28.14,28.16-56.28,56.3a30,30,0,0,0-3.26,3.51,4.58,4.58,0,0,0,.72,6.46,4.65,4.65,0,0,0,6.15.2,24.07,24.07,0,0,0,2.45-2.29q33.4-33.41,66.79-66.81c8-8,16-16.11,24-24.15A35.38,35.38,0,0,1,426,11a36.07,36.07,0,0,1,44.73,29.54,34.61,34.61,0,0,1-8.94,29.73c-1,1.06-2,2.09-3,3.11Q392.35,139.85,325.91,206.33ZM438,210.86A42.23,42.23,0,0,1,434.7,215c-7.31,7.45-16.28,11.34-26.65,11.11A36.24,36.24,0,0,1,373,196.31c-1.83-10.18.56-19.29,6.29-27.71a79.55,79.55,0,0,1,9.83-11.7q34-33.83,67.81-67.77l36.65-36.56a30,30,0,0,0,2.94-3.14,4.65,4.65,0,0,0-.27-6.15,4.94,4.94,0,0,0-6.16-.68c-1.56,1.08-2.81,2.59-4.3,3.79s-2.33,3.43-4.67,3.62c-.8-1.82-.27-3.73-.29-5.59a41.74,41.74,0,0,0-4.75-18.87c-.51-1-1.05-2-1.55-3-.75-1.52-.7-1.87.56-2.82a36.06,36.06,0,0,1,41.34-1.11c9.69,6.52,15.22,15.71,16.14,27.49.88,11.21-3,20.67-10.67,28.71-1.1,1.15-2.24,2.27-3.37,3.4L418.18,178.58c-2.93,2.94-5.83,5.92-8.76,8.86a5.42,5.42,0,0,0-1.91,3.72,4.48,4.48,0,0,0,2.25,4.43,4.39,4.39,0,0,0,5.35-.33,29.39,29.39,0,0,0,2.43-2.31c3.73-3.72,7.44-7.47,11.2-11.17.75-.74,1.31-1.83,3.14-1.9a78.1,78.1,0,0,0,.45,10.26,46.55,46.55,0,0,0,4.8,15.46c.36.71.73,1.41,1.11,2.12A2.71,2.71,0,0,1,438,210.86Zm174.12-41.65c-15.91,16.18-31.84,32.35-48.15,48.13a36.37,36.37,0,0,1-45.05,4.29c-.53-.36-1.07-.71-1.57-1.1-1.9-1.47-2-2.08-.29-3.77q11.19-11.19,22.4-22.36L586,148a19.26,19.26,0,0,0,2-2.09,4.84,4.84,0,0,0-.29-6.18,4.52,4.52,0,0,0-6.08-.79,19.48,19.48,0,0,0-2.87,2.51Q561.36,158.72,544,176c-11.55,11.5-23.25,22.86-34.58,34.59-9.17,9.48-20.34,12.17-32.84,10.7A41.17,41.17,0,0,1,455.93,213c-9.66-7.44-14.32-17.33-14.17-29.48a35.27,35.27,0,0,1,8.94-23.19c2.71-3.16,5.6-6.13,8.53-9.07,23.93-24,47.77-48.07,71.84-71.92,9.73-9.64,21.69-12.72,34.91-9S587.52,82.87,591.36,96a3.58,3.58,0,0,1,.06.93,2.25,2.25,0,0,1-.1.49c-1.35.76-2.81.36-4.22.35a45.51,45.51,0,0,0-33.6,13.86l-66.11,66.12a21.92,21.92,0,0,0-2.28,2.45,5.1,5.1,0,0,0,.25,6.21,4.66,4.66,0,0,0,6.11.75,24.85,24.85,0,0,0,3.58-3.15q18.49-18.47,37-37,14.58-14.58,29.15-29.16a34.08,34.08,0,0,1,25.5-10.37c11.2.22,20.81,4.64,27.92,13.59A35.92,35.92,0,0,1,612.13,169.21Z"/><path class="cls-1" d="M585.43,399.9q0-15.84,0-31.66a36.37,36.37,0,0,0-.16-4.31A4.57,4.57,0,0,0,581,359.5a6.26,6.26,0,0,0-1.43-.1c-4.61.29-4.6-.39-4.58-5,0-4.16,0-8.32,0-12.47,0-2.7.34-3.22,2.71-3.79,7.08-1.71,14.21-2.14,21.32-.16a15.38,15.38,0,0,1,10,8.36c.5,1,.82,2.08,1.25,3.11a.92.92,0,0,0,1.53.29c.82-1,1.58-2,2.4-3a25.12,25.12,0,0,1,10.84-7.61c9.27-3.41,18.54-3.13,27.71,0,8.74,3,14.27,9.43,17.5,17.91a32.68,32.68,0,0,1,2.21,11.71q0,18.94.07,37.89a32.41,32.41,0,0,0,.14,4.3c.54,3.63,2.67,5.22,6.37,4.87.79-.08,1.57-.3,2.36-.38a1.21,1.21,0,0,1,1.4,1,3.88,3.88,0,0,1,.11,1c0,5.59,0,11.19,0,16.78,0,1.73-.51,2.27-2.06,2.79-.3.1-.61.18-.92.25a51,51,0,0,1-20,.36c-7.91-1.45-14.05-6.43-15.08-17.32-.13-1.43-.07-2.88-.08-4.32q0-18.7,0-37.41a34.43,34.43,0,0,0-.86-9,12.63,12.63,0,0,0-10.2-9.64,21.29,21.29,0,0,0-9.06,0c-5.67,1.26-9.21,4.85-10.85,10.37a24.6,24.6,0,0,0-.83,7.11q0,26.85,0,53.72c0,6.91.6,6.2-6.11,6.23-5.91,0-11.83,0-17.74,0-3.58,0-3.69-.12-3.7-3.86,0-9.27,0-18.55,0-27.82Z"/><path class="cls-1" d="M881.22,405.8c-6.35-.72-12.7-1.43-19.06-2-2.5-.24-2.72-.12-3.23,2.42-1,5.06-4.35,7.67-9,8.78a27.46,27.46,0,0,1-11.9.23,13.17,13.17,0,0,1-9.32-6.89,27.68,27.68,0,0,1-2.8-9.12c-.24-1.63.32-2.21,2.19-2.24,3.84-.05,7.67,0,11.51,0v-.12c3.2,0,6.4.13,9.59,0a57.15,57.15,0,0,0,18.73-3.62c6.52-2.63,11.48-6.84,14-13.63a29.29,29.29,0,0,0,1-16.07c-2.67-13.14-10.49-21.64-23.66-24.81a69.82,69.82,0,0,0-30-.66c-14.6,2.84-24.46,11.11-28.73,25.64-3.4,11.53-3.84,23.28-2.82,35.14a66.51,66.51,0,0,0,3,15c3.92,12,12,19.28,24.05,22.55,8.94,2.43,18,2.36,27.13,1.51a41.52,41.52,0,0,0,10.71-2.51,31.06,31.06,0,0,0,17-14.07,29.65,29.65,0,0,0,3.64-12.79C883.31,406.65,882.81,406,881.22,405.8Zm-53-39.3c2.25-5.59,6.51-8.49,12.48-8.89a24.51,24.51,0,0,1,10.37,1.15A12.42,12.42,0,0,1,858.49,374a11.52,11.52,0,0,1-7.62,7.37,20.15,20.15,0,0,1-7,1.28c-2.39,0-4.79,0-7.18,0-3,0-6.06,0-9.09,0-1.41,0-2-.68-2-2.08A37.93,37.93,0,0,1,828.23,366.5Z"/><path class="cls-1" d="M557.49,405.83c-6.51-.72-13-1.45-19.54-2.07-2.13-.21-2.36-.05-2.84,2.2-1.17,5.42-4.82,8.11-9.9,9.16a27.88,27.88,0,0,1-10.5.22,13.39,13.39,0,0,1-10.36-7.65A34.44,34.44,0,0,1,501.8,399c-.25-1.37.32-2,1.89-2,3.84,0,7.68,0,11.51,0v-.13c3.36,0,6.72.13,10.07,0,6.57-.32,13.06-1.26,19.17-3.83,7.54-3.17,12.79-8.51,14.36-16.73a33.56,33.56,0,0,0-.22-14.28c-3.07-12.53-11-20.28-23.48-23.3A70.25,70.25,0,0,0,508,337.57c-17.55,2.61-27.88,11.77-32.15,28.49a92.43,92.43,0,0,0-2.37,29.51,74,74,0,0,0,3.26,18.35c3.33,10,9.74,17.1,19.63,20.93a52.63,52.63,0,0,0,8.28,2.39c6,1.26,12.07,1.09,18.15,1a48.31,48.31,0,0,0,13.68-2.2c9.29-2.87,16.49-8.34,20.42-17.5a25.63,25.63,0,0,0,2.27-10.71A1.82,1.82,0,0,0,557.49,405.83Zm-52.8-40.25a12.64,12.64,0,0,1,8.84-7.47,23.83,23.83,0,0,1,13.23.52,11.65,11.65,0,0,1,7.56,7.46c2.2,6.2-.2,12-6.19,14.72a19.51,19.51,0,0,1-7.89,1.78c-2.55,0-5.11,0-7.66,0h0c-3,0-6.07,0-9.11,0-1.42,0-1.94-.64-1.93-2.12A36.45,36.45,0,0,1,504.69,365.58Z"/><path class="cls-1" d="M742,438.66a68.11,68.11,0,0,1-22.28-2.41A30.73,30.73,0,0,1,702.07,423a22.54,22.54,0,0,1-3.72-10.76c-.13-2.25.22-2.74,2.57-3.2s4.72-.79,7.09-1.15q6.39-1,12.79-1.91c2-.3,2.44-.15,3.1,2,1.54,5,5.1,7.44,10,8.45a30.35,30.35,0,0,0,13.77-.34c3.08-.78,5.55-2.33,6.63-5.6a6.16,6.16,0,0,0-1.79-7,14,14,0,0,0-4.47-2.74,40.59,40.59,0,0,0-6.86-2.1,136.28,136.28,0,0,1-24.78-7.3c-4-1.66-7.81-3.64-10.8-6.92a23.69,23.69,0,0,1-6.44-15.11c-.68-12.74,6.08-23.54,18.07-28.88A45.15,45.15,0,0,1,733,336.78a82.76,82.76,0,0,1,20.55.87c6.17,1.15,12.09,3,17.29,6.68a26,26,0,0,1,11.42,19.12c.24,2.19-.23,2.92-2.45,3.28-5.05.84-10.11,1.55-15.16,2.31-1.9.28-3.79.59-5.69.85-1,.13-1.91-.09-2.25-1.25,0-.15-.11-.3-.15-.46-1.5-6.26-6.21-8.57-11.9-9.48a32.56,32.56,0,0,0-9.09,0,11.43,11.43,0,0,0-6.53,2.7c-2.61,2.32-3.4,7.31.48,10a27.07,27.07,0,0,0,4.62,2.49A111.53,111.53,0,0,0,746.92,378C752,379.41,757,381,762,382.7a33.81,33.81,0,0,1,14.47,9.9c7.11,8.15,9,24.23.3,34.1a29.87,29.87,0,0,1-12.63,8.4,58.92,58.92,0,0,1-14.5,3.06C747.1,438.39,744.54,438.5,742,438.66Z"/><path class="cls-1" d="M413.37,438.7a73.82,73.82,0,0,1-19.05-1.63,32.18,32.18,0,0,1-18.52-11.19c-3.18-3.94-5.35-8.32-5.64-13.47-.14-2.37.17-2.84,2.42-3.29,2-.42,4.1-.68,6.15-1,4.58-.71,9.15-1.43,13.73-2.11,1.93-.29,2.44-.11,2.93,1.54,1.59,5.4,5.38,8,10.69,9a29.8,29.8,0,0,0,13.29-.43c3.22-.83,5.94-2.44,6.71-6.08.69-3.23-.2-5.61-3-7.42a27.77,27.77,0,0,0-9.76-3.83,139.07,139.07,0,0,1-18.06-4.75c-2.86-1-5.67-2.15-8.5-3.25-17.6-6.79-21.1-28.95-8.88-42.15a33.86,33.86,0,0,1,18.4-10.53c12.77-2.62,25.42-2.3,37.83,1.88a29.57,29.57,0,0,1,16.08,12.25,22.09,22.09,0,0,1,3.62,11.27c.06,2.35-.28,2.86-2.5,3.27s-4.42.67-6.63,1c-4.42.67-8.84,1.36-13.26,2-2.17.32-2.71.11-3.21-1.84-1.42-5.58-5.52-8-10.64-9.09a32.12,32.12,0,0,0-11-.1,13.89,13.89,0,0,0-3.65,1.12,6.7,6.7,0,0,0-4.26,5.9,5.93,5.93,0,0,0,3.22,6,41.31,41.31,0,0,0,6.49,3.06c3.15,1.14,6.37,2.1,9.61,2.94,5.42,1.4,10.74,3.12,16,5,6.47,2.37,12,6.14,15.74,12,5.43,8.56,6.27,17.69,2,26.95-2.74,5.9-7.61,9.78-13.48,12.39a53.47,53.47,0,0,1-16.23,4C419.11,438.41,416.23,438.51,413.37,438.7Z"/><path class="cls-1" d="M198.4,347.4c-.38-6.47-1.65-7.07-7.63-6.8-2.76.13-3.56,1.12-3.64,3.93,0,1.44,0,2.88,0,4.31s-.07,2.75-.12,5c-1.43-1.7-2.39-2.7-3.18-3.82a22.64,22.64,0,0,0-13.14-9,72.19,72.19,0,0,0-9.41-1.44c-2.73-.33-5.38.51-8.06.75a33.11,33.11,0,0,0-10.06,2.92,22.12,22.12,0,0,0-9.43,7.18,41.68,41.68,0,0,0-5.36,10.11c-3.09,8.33-3.93,17-4.5,25.78a52.37,52.37,0,0,0,.6,11.44c.53,3.43.53,7,1.17,10.43a47.47,47.47,0,0,0,6,16,27.35,27.35,0,0,0,19.05,13.2,73.2,73.2,0,0,0,11.42.87,31.58,31.58,0,0,0,11.23-2,17.17,17.17,0,0,0,7.27-4.48,35,35,0,0,1,3.05-3c1.09-.92,1.25-2.61,3.34-3.43,0,8.57.1,16.72-.06,24.85a20.06,20.06,0,0,1-2.67,8.61c-2.35,4.64-6.58,6.76-11.24,8.28-3.89,1.27-7.89.91-11.87,1.05a27.08,27.08,0,0,1-10.76-1.86A17,17,0,0,1,139.15,453c-.17-.77-.08-1.6-.19-2.39a1.79,1.79,0,0,0-2.31-1.77c-2.19.33-4.38.76-6.54,1.29a2.25,2.25,0,0,0-1.58,2.17,17.43,17.43,0,0,0,1.08,7.53c2.12,6.72,6.18,11.8,12.87,14.56,6.43,2.65,13.24,3.32,20.06,4a11.69,11.69,0,0,0,4.27-.33,12.75,12.75,0,0,1,3.31-.44,32,32,0,0,0,11.14-2.52c9.13-3.56,14.35-10.52,16.05-19.93A88.16,88.16,0,0,0,198.37,440c.09-29.9,0-59.79,0-89.68C198.41,349.32,198.46,348.36,198.4,347.4Zm-12.22,59.7a41.75,41.75,0,0,1-4.9,11.89,13.77,13.77,0,0,1-5.45,5.25c-4.1,2.29-8.37,3.87-13.2,3.56-3.48-.23-7,.24-10.42-.93a20.5,20.5,0,0,1-12.05-10.28c-2.31-4.44-3.34-9.19-4.14-14.12-1-6.22-.82-12.41-.75-18.61a60.62,60.62,0,0,1,3.16-18.76c2.55-7.61,7.42-13.33,17.87-14.2a5.16,5.16,0,0,0,1.43-.11c3.69-1.49,7.29-.26,10.78.59,7.73,1.89,12.66,7.16,15.58,14.31A60.14,60.14,0,0,1,188,389.81,73.16,73.16,0,0,1,186.18,407.1Z"/><path class="cls-1" d="M71,411.43c-.92-.24-1.84-.52-2.77-.71-3.28-.66-4-.19-5,3.19-1.69,5.51-5.15,9.68-10.48,11.73a38,38,0,0,1-24,.92,18.93,18.93,0,0,1-11.28-8.36,37.17,37.17,0,0,1-4-10.17,18.65,18.65,0,0,1-1.09-6.57c.16-2,.53-2.56,2.58-2.59,4.15-.07,8.3,0,11,0,7.65-.08,13.84-.09,20.06-.74a40.37,40.37,0,0,0,17.52-5.76A20.48,20.48,0,0,0,73,379.06c1.64-7.14,1.7-14.29-1.2-21.12a27.27,27.27,0,0,0-14.27-14.76c-6.39-2.85-13.17-3.56-20.05-3.57-1.88,0-3.77.69-5.66.72a26.89,26.89,0,0,0-8.37,1.75c-9.22,3.16-15.21,9.44-18.79,18.43-3.3,8.31-4,17-4.51,25.74A79.72,79.72,0,0,0,.74,401a75.18,75.18,0,0,0,4,17.6c3.8,9.95,11.2,15.9,21.16,18.37a55.23,55.23,0,0,0,29.3-.83,25.34,25.34,0,0,0,17.32-16.5,24.65,24.65,0,0,0,1.18-4.13C74.16,413,73.46,412.06,71,411.43ZM11.52,385.79a52,52,0,0,1,4.6-22.71c3.31-7.08,9-11.38,17-12.16,2.05-.2,4-1.07,6.12-.86a70.65,70.65,0,0,1,10.32,1.66c6.74,1.69,10.38,6.46,12.55,12.63a18,18,0,0,1-.52,13c-1.87,4.69-5.61,7.29-10,8.95a31.26,31.26,0,0,1-11.19,2.05c-4,0-8,0-12,0-4.78,0-9.56,0-14.34,0C12.06,388.33,11.53,387.8,11.52,385.79Z"/><path class="cls-1" d="M230.22,354.07c.64-.91,1.34-1.77,1.9-2.71,3.12-5.28,8-8.17,13.65-9.79a40,40,0,0,1,10.78-1.89c7.86,0,15.57,1.13,22.42,5.5a17.56,17.56,0,0,1,4.81,4.6,37.8,37.8,0,0,1,7.05,19.44c1.17,12.61.44,25.2.54,37.8,0,4.09-.82,8.22-.69,12.37a12.21,12.21,0,0,0,.65,4.24c.29.73.42,1.6,1.17,2,1.83,1,2,2.67,2,4.51-.06,1.44,0,2.88,0,4.32.05,2.44-.8,3.52-3.7,2.66-5.92-1.77-9.74-5.67-10.62-12.76a34.39,34.39,0,0,1-.06-4.31c0-15-.05-30,0-45.06a33.34,33.34,0,0,0-2-11.23c-2.61-7.56-8.18-11.51-15.87-12.81-.62-.1-1.29,0-1.9-.15-8-1.81-15.12.42-21.62,5A19.85,19.85,0,0,0,231,366.48a36.52,36.52,0,0,0-1.73,10.8c0,18.21,0,36.42,0,54.64,0,5.72.16,5.44-5.55,5.43-1,0-1.92,0-2.88-.05-1.53-.11-2.05-.57-2.15-2-.08-1.27-.06-2.55-.06-3.83q0-64.71,0-129.42c0-6.17-.28-5.77,5.68-5.77,4.95,0,5,0,5,5q0,24,0,47.93c0,1.55.07,3.09.1,4.64Z"/><path class="cls-1" d="M314.55,384.74c0-9.59,0-19.17,0-28.75,0-4.64-.31-4.9-4.85-5-1.91,0-3.83,0-5.75,0-3.45-.06-3.67-.21-3.68-3.43,0-6.78-.56-6.27,6.11-6.29,1.75,0,3.51.06,5.27,0,2.07-.12,2.74-.85,2.87-3,.08-1.27,0-2.55,0-3.83,0-5.27,0-10.54,0-15.81,0-2.61.43-3,3.13-3,8.4,0,7.43-1,7.48,7.31,0,4.31,0,8.62,0,12.94,0,5.31.16,5.46,5.28,5.48,6.39,0,12.77,0,19.16,0,1.12,0,2.24,0,3.36,0,2.29.11,2.63.49,2.75,2.94,0,.32,0,.64,0,1,0,6.09.34,5.82-5.65,5.81H330.45c-5.1.05-5.23.18-5.26,5.5,0,1.6,0,3.19,0,4.79,0,14.7,0,29.39,0,44.08a34.87,34.87,0,0,0,2,11.71c2.38,6.74,7.52,10.14,14.48,10.58,3.63.23,7.33.52,10.94-.62,1.33-.42,2.09.27,2.15,1.75s0,3.19.05,4.79c.05,3.56-.25,3.69-3.72,4.33-3.1.57-6.36.2-9.55.34a31.81,31.81,0,0,1-11.23-2,27.33,27.33,0,0,1-8.28-4.71,8.23,8.23,0,0,1-2-2.06c-3.08-4.92-5.5-10.08-5.49-16.06q0-14.39,0-28.75Z"/><path class="cls-1" d="M105.55,383.62v35.93c0,1.12,0,2.24,0,3.35,0,2,.42,3.81,2.24,5a3.49,3.49,0,0,1,1.5,3.31c0,1.91,0,3.83,0,5.75s-1,2.58-2.83,2.22a14,14,0,0,1-9.53-6.64,13,13,0,0,1-2-7.25c.12-6.71,0-13.42,0-20.12q0-29.24,0-58.45c0-5.72-.15-5.41,5.57-5.41,5,0,5.06,0,5.07,4.95q0,18.67,0,37.37Z"/><path class="cls-1" d="M100.12,305c4.12-.62,10,3.81,10,9.6s-5.86,9.86-10,9.57c-5-.34-9.59-4.5-9.77-9.42S95,305,100.12,305Z"/><path class="cls-1" d="M306.75,529.53a16.84,16.84,0,0,0-1.59,1.42c-2.49,3-2.5,3-5.14-.11-.11-.12-.17-.3-.3-.37a2.53,2.53,0,0,0-.83-.31c-.37,0-.56.21-.56.61,0,2.23,0,4.46-.11,6.68-.07,1.89-.58,2.42-2.15,2.46-1.84.05-2.43-.49-2.45-2.65-.05-4.62,0-9.25,0-13.87,0-.95,0-2,1.1-2.39s2.63-.49,3.55.6c1.12,1.33,2,2.86,3,4.28s1.62,1.51,2.77-.14c.82-1.18,1.59-2.38,2.39-3.57a3.28,3.28,0,0,1,3.34-1.37c1.11.1,1.81.67,1.81,1.79,0,5.25,0,10.51-.05,15.76,0,1.18-1,1.52-2,1.56-1.51.07-2.36-.44-2.42-1.64-.11-2.07-.07-4.14-.12-6.21C307,531.44,306.87,530.83,306.75,529.53Z"/><path class="cls-1" d="M746.81,527c1.19-1.58,2.44-3.19,3.64-4.85a3.38,3.38,0,0,1,3.34-1.4c1.11.11,1.83.67,1.84,1.79,0,5.12.06,10.23,0,15.34,0,1.38-.73,2-2.14,2-1.64.06-2.35-.53-2.41-2.2-.07-2.24,0-4.48-.08-6.71a1.16,1.16,0,0,0-.37-.79c-.49-.36-.86.08-1.26.33-1.14.72-1.23,2.88-3.13,2.5-1.34-.27-1.92-1.6-2.82-2.49-.17-.17-.54-.16-1.15-.32,0,2.6.05,5.13,0,7.65,0,1.44-.68,2-2.09,2-1.72.07-2.43-.46-2.45-2.15q-.09-7.43,0-14.86a2.1,2.1,0,0,1,3.37-1.75,16.08,16.08,0,0,1,2.94,3.11C744.79,525.26,745.23,526.53,746.81,527Z"/><path class="cls-1" d="M361.67,530.42c0-2.39,0-4.78,0-7.16,0-1,0-2,1.21-2.32s2.54-.36,3.43.91c1,1.43,2,2.88,3,4.27.91,1.21,1.7,1.16,2.58-.11s1.76-2.65,2.66-4a3.22,3.22,0,0,1,3.38-1.23,1.7,1.7,0,0,1,1.63,1.44,5,5,0,0,1,.09,1c0,4.77,0,9.55,0,14.32,0,1.92-.84,2.53-2.71,2.37a1.74,1.74,0,0,1-1.84-1.77c-.06-1.9,0-3.82-.07-5.72a9.84,9.84,0,0,0-.17-1.89.87.87,0,0,0-.71-.41c-.28,0-.54.3-.81.46-1.13.72-1.21,2.86-3.13,2.48-1.42-.28-1.66-1.84-2.6-2.65a.74.74,0,0,0-1.27.54c-.06,2.38,0,4.77-.13,7.15-.05,1.3-.82,1.84-2.28,1.84s-2.2-.56-2.23-1.87c-.07-2.55,0-5.1,0-7.64Z"/><path class="cls-1" d="M665.68,522.84a5.27,5.27,0,0,0-2-1.93c-2.11-1.25-2.08-1.31-.87-3.55.22-.42.53-.81.72-1.24a1.42,1.42,0,0,0-1.44-1.9,2.54,2.54,0,0,0-2.74,1.5c-.32.73-.53,1.5-.78,2.26-.44,1.37-.8,2.62-2.57,3.1-1.6.44-2.33,2-2.9,3.57-1.22,3.44-1,7-.5,10.41a6.88,6.88,0,0,0,7.34,5.62c2.8-.14,5.3-1,6.48-4C668.23,531.92,668.23,527.33,665.68,522.84Zm-3,10.81a2.66,2.66,0,0,1-2.48,2.46,2.85,2.85,0,0,1-3.06-1.76c-1.36-2.81-.64-5.57.22-8.3a2.54,2.54,0,0,1,2.75-1.45,2.45,2.45,0,0,1,2.43,1.92,24.92,24.92,0,0,1,.34,3.53C662.85,531.43,662.87,532.55,662.72,533.65Z"/><path class="cls-1" d="M619.64,532.23c0,1.8-.07,3.67-.17,5.53-.09,1.67-.76,2.22-2.46,2.15-1.43,0-2-.57-2.09-2-.07-2.87,0-5.75,0-8.62,0-2.24,0-4.48.08-6.71a2,2,0,0,1,3.19-1.39,7.53,7.53,0,0,1,1.55,1.77c1.45,2.1,2.84,4.24,4.29,6.33a1.23,1.23,0,0,0,.81.34c.38.06.56-.19.57-.6,0-2.07,0-4.15.14-6.22.07-1.47.66-2,2.11-2s2.37.49,2.38,1.72c0,5.26,0,10.53,0,15.8a1.57,1.57,0,0,1-1.51,1.56,3.37,3.37,0,0,1-3.75-1.44c-1.12-1.75-2.26-3.48-3.45-5.18C621,532.79,620.76,532,619.64,532.23Z"/><path class="cls-1" d="M520.83,532.19c-.07,2-.09,4.1-.23,6.14-.08,1.16-1,1.65-2.48,1.58-1.09,0-1.84-.48-2-1.64a17.56,17.56,0,0,1-.09-1.91c0-4.48,0-9,0-13.42,0-.81.13-1.62,1-1.94a2.36,2.36,0,0,1,2.65.51,14.19,14.19,0,0,1,1.4,1.93c1.34,2,2.67,3.95,4,5.91a.94.94,0,0,0,.82.22.91.91,0,0,0,.49-.65c.07-2.07.05-4.15.14-6.22.06-1.35.78-1.9,2.2-1.91s2.3.52,2.31,1.81c0,5.26,0,10.53,0,15.8,0,.91-.7,1.36-1.58,1.48a3.4,3.4,0,0,1-3.72-1.52c-1.36-2.13-2.8-4.22-4.2-6.32Z"/><path class="cls-1" d="M484.21,527.43a21.21,21.21,0,0,0,3.57-4.45,7.12,7.12,0,0,1,2.07-1.91,2,2,0,0,1,3.11,1.62c.06,5.11,0,10.23,0,15.34a1.67,1.67,0,0,1-1.3,1.76,1.8,1.8,0,0,1-2.43-1.53c-.11-2.39-.1-4.79-.17-7.18,0-.46-.09-1-.68-1.13a1.14,1.14,0,0,0-1.17.57,8.45,8.45,0,0,1-.59.75c-2.2,2.33-2.28,2.33-4.44.05a4.76,4.76,0,0,0-.6-.73c-.35-.27-.8-.67-1.13-.62-.79.13-.76.91-.78,1.53-.05,2.24,0,4.47-.12,6.71,0,1.13-.77,1.66-1.92,1.63a1.56,1.56,0,0,1-1.74-1.26,10.09,10.09,0,0,1-.16-1.9c0-4.32,0-8.63,0-12.95,0-1.07-.21-2.36,1.22-2.79a3,3,0,0,1,3.38,1.2c.79,1,1.46,2.09,2.21,3.12C483,525.9,483.5,526.51,484.21,527.43Z"/><path class="cls-1" d="M418.1,529.23a21.85,21.85,0,0,0-.38-3.6c-.76-3.54-3.16-5-6.36-5.56a7.08,7.08,0,0,0-7.58,4.43,17.44,17.44,0,0,0,0,11.71,6,6,0,0,0,1.06,2.1,7.14,7.14,0,0,0,6.51,2.27c2.71-.37,5.2-1.34,6.07-4.56A20.68,20.68,0,0,0,418.1,529.23Zm-4.77,4.47a2.67,2.67,0,0,1-3,2.42,2.54,2.54,0,0,1-2.63-2.25,25,25,0,0,1,0-7.07,2.56,2.56,0,0,1,2.67-2.2,2.63,2.63,0,0,1,2.82,2c.21,1.24.21,2.51.29,3.64C413.47,531.5,413.49,532.61,413.33,533.7Z"/><path class="cls-1" d="M810.46,530.18h0a24.31,24.31,0,0,0,0-3.82,6.8,6.8,0,0,0-3.15-5.12c-4.46-2.62-9.4-.7-11.18,4.2a14.18,14.18,0,0,0-.63,7.53c.37,2,.68,4.26,2.38,5.62a7.65,7.65,0,0,0,8,1.49c3-1.12,4.18-3.26,4.62-6.08A25.6,25.6,0,0,0,810.46,530.18Zm-5,4.5a2.92,2.92,0,0,1-3.23,1.39,2.51,2.51,0,0,1-2.15-2.22,25.37,25.37,0,0,1,0-7.07,2.49,2.49,0,0,1,2.22-2.15,2.75,2.75,0,0,1,2.93,1.09,7.18,7.18,0,0,1,1.33,4.5A7.26,7.26,0,0,1,805.48,534.68Z"/><path class="cls-1" d="M775,530.4h0c0-1.12.08-2.24,0-3.35-.35-4.14-2.9-6.62-7.09-7.06-2.74-.28-6.49,2.61-7.29,5.22a16.3,16.3,0,0,0,.54,11.65c1,2.37,4.59,4.2,7.14,3.78,4.28-.69,6.47-3.06,6.73-7.37C775.05,532.32,775,531.36,775,530.4Zm-5,4.23a2.94,2.94,0,0,1-3.21,1.46,2.72,2.72,0,0,1-2.27-2.65c-.11-1.09,0-2.2,0-3.3h-.16c.08-1.09.08-2.2.26-3.29a2.56,2.56,0,0,1,2.17-2.2,2.88,2.88,0,0,1,3.21,1.43A8.39,8.39,0,0,1,770,534.63Z"/><path class="cls-1" d="M687.28,536.88c-.62-.7-1.48-1.18-2.15-1.84-1.55-1.52-1.64-2.34-.3-4.09.88-1.15,1.83-2.16,1.85-3.74a6,6,0,0,0-5.73-6.39,51.28,51.28,0,0,0-6.2,0c-1.82.06-2.31.52-2.36,2.26-.07,2.38,0,4.76,0,7.15s0,5.09,0,7.63c0,1.48.74,2.08,2,2a1.68,1.68,0,0,0,1.75-1.82c.07-1.11.06-2.22.16-3.33,0-.45.18-1,.77-1a2.3,2.3,0,0,1,1.29.33c1.5,1,2.31,2.59,3.32,4a4.29,4.29,0,0,0,4.09,2,1.76,1.76,0,0,0,1.6-.83A2,2,0,0,0,687.28,536.88Zm-6.41-7.54a7.92,7.92,0,0,1-2.19.81c-1.46.31-2.33-.48-2.42-2.07,0-.31,0-.63,0-.94.06-2,.58-2.55,2.5-2.56.32,0,.63,0,1,0,1,.06,1.87.33,2.19,1.42A2.8,2.8,0,0,1,680.87,529.34Z"/><path class="cls-1" d="M641.93,520a8.05,8.05,0,0,1,5.79,3.71,2,2,0,0,1-.05,2.6,2.47,2.47,0,0,1-3.4.14c-.46-.43-.76-1-1.24-1.42a2.13,2.13,0,0,0-2.26-.25,1.69,1.69,0,0,0-.88,1,1.46,1.46,0,0,0,.3,1.27,32.12,32.12,0,0,0,2.83,1.7,32.36,32.36,0,0,1,3.25,2,4.87,4.87,0,0,1,1.91,5.5,5,5,0,0,1-4.24,3.92c-4.52.87-7.35,0-9.41-3.39a1.59,1.59,0,0,1,1.13-2.5c1.09-.32,2.2-.69,2.94.62.87,1.56,2.28,1.55,3.74,1.22a1.86,1.86,0,0,0,1-.84,1.31,1.31,0,0,0-.39-1.71,15,15,0,0,0-4.72-2.25,5.58,5.58,0,0,1-3.18-2.72,4.48,4.48,0,0,1,0-4.95A7.42,7.42,0,0,1,641.93,520Z"/><path class="cls-1" d="M438,537.1a18.24,18.24,0,0,0-2.12-1.88c-1.39-1.29-2.16-2.6-.34-4.45a5.1,5.1,0,0,0,1.73-3.78,5.93,5.93,0,0,0-5.48-6.13,45.63,45.63,0,0,0-6.19-.09c-2.15.06-2.58.46-2.64,2.49-.07,2.22,0,4.45,0,6.67h0c0,2.39,0,4.78,0,7.16,0,2.09.46,2.67,1.8,2.76s1.92-.5,2.06-2.48c.07-1,0-1.91.13-2.86a1.17,1.17,0,0,1,1.84-.68,13.13,13.13,0,0,1,3.37,4,4.46,4.46,0,0,0,4.46,2.15C437.94,539.81,438.86,538.11,438,537.1ZM432.2,529a9,9,0,0,1-1.7.85c-2.5.93-3.65.14-3.62-2.55.07-1-.13-2.26,1.33-2.62,2.22-.54,3.76,0,4.59,1.42A2,2,0,0,1,432.2,529Z"/><path class="cls-1" d="M830,536.56c-.32-.34-.81-.51-1.15-.83-2.24-2-2.23-2-.68-4.64a13.18,13.18,0,0,0,1.11-2.1c1.46-4.08-1-7.94-5.21-8.19-2.22-.13-4.45-.07-6.67,0-1.46.05-2,.59-2,2.08-.08,2.54,0,5.08,0,7.62h0c0,2.55,0,5.09,0,7.63,0,1.29.81,1.8,2.3,1.79s2.08-.54,2.21-1.9c.1-1.11.07-2.23.18-3.33,0-.46.23-1,.81-1a1.88,1.88,0,0,1,1.25.43c.84,1,1.51,2,2.34,3s1.84,2.26,3.27,2.68c.92.27,2,.35,2.59-.6A2.16,2.16,0,0,0,830,536.56Zm-4.51-8.68a4.19,4.19,0,0,1-4.33,2.34,1.75,1.75,0,0,1-1.92-1.7c0-.48,0-1,0-2.44a.46.46,0,0,0,0,.1c0-.07,0-.54.08-1a1.44,1.44,0,0,1,1.24-1.27,4.26,4.26,0,0,1,4.65,1.72A2.22,2.22,0,0,1,825.53,527.88Z"/><path class="cls-1" d="M106.56,529.78c0-2.23-.06-4.47,0-6.7s.81-3,2.82-3.06c2.23-.1,4.47-.1,6.69,0a8.1,8.1,0,0,1,2.71.83,1.77,1.77,0,0,1,.93,2,1.53,1.53,0,0,1-1.5,1.55c-1.75.09-3.5.07-5.25.18a1.9,1.9,0,0,0,0,3.77c1.11.11,2.23.06,3.34.17a1.65,1.65,0,0,1,1.52,2,1.55,1.55,0,0,1-1.46,1.58c-.79.08-1.59.06-2.38.12-2.15.16-2.67.53-2.72,1.87-.06,1.54.56,2,3,2.06,1.43.06,2.87,0,4.28.23.92.12,1.18,1,1.12,1.83s-.49,1.58-1.42,1.59c-3.35.06-6.69.1-10,0-1.13,0-1.64-.9-1.66-2,0-2.71,0-5.42,0-8.13Z"/><path class="cls-1" d="M585.34,540.75c-2.47-.27-4.6-1.2-5.84-3.51-.41-.77-1.24-1.66-.37-2.59a2.75,2.75,0,0,1,3.74.11,3.31,3.31,0,0,0,3.28,1.42c.85-.08,1.57-.38,1.71-1.31a1.46,1.46,0,0,0-.78-1.59c-1.27-.65-2.55-1.3-3.86-1.86-3.58-1.53-4.81-3.92-3.71-7.55a3.89,3.89,0,0,1,1.28-2c4.2-3,8.82-2.52,11.65,2.43a1.45,1.45,0,0,1-.26,1.77c-.78.79-2.35,1.23-3,.72a6.77,6.77,0,0,1-1.26-1.4,2.29,2.29,0,0,0-2.09-.87,1.6,1.6,0,0,0-1.53.92,1.35,1.35,0,0,0,.41,1.71c.91.63,1.95,1.06,2.92,1.6a23.3,23.3,0,0,1,2.85,1.7,5,5,0,0,1,2.14,5.42c-.52,2.12-1.58,3.77-4,4.21C587.53,540.33,586.52,540.9,585.34,540.75Z"/><path class="cls-1" d="M76.48,540.82c-2.81-.26-4.94-1.19-6.26-3.43-.45-.76-1.18-1.63-.56-2.62s3.06-1.17,3.75-.15a3.38,3.38,0,0,0,3.69,1.52A1.43,1.43,0,0,0,78.48,535a1.42,1.42,0,0,0-.62-1.65c-1.4-.74-2.84-1.41-4.29-2a5.92,5.92,0,0,1-3.15-8.19c1.14-2.25,5.31-3.72,8-2.83a8.46,8.46,0,0,1,4.42,3.45,1.88,1.88,0,0,1-.2,2.57,2.49,2.49,0,0,1-3.05.35c-.47-.42-.78-1-1.21-1.47a2.35,2.35,0,0,0-2.2-.6c-.66.11-1.24.45-1.28,1.17a1.67,1.67,0,0,0,.38,1.28c.89.64,1.9,1.11,2.86,1.67a20.63,20.63,0,0,1,3.22,2c3.45,3,2.41,7.9-1.93,9.33C78.37,540.39,77.28,540.61,76.48,540.82Z"/><path class="cls-1" d="M715.56,530.74h-.1a30.1,30.1,0,0,0,0-4.75c-.54-3.36-3.07-5.52-6.58-5.9-2.66-.3-6.6,1.87-7.31,4.37-1.1,3.83-1.6,7.76-.13,11.65a7.94,7.94,0,0,0,7.73,4.47c3.87-.63,6.19-3,6.42-6.5C715.62,533,715.56,531.86,715.56,530.74Zm-4.34,3.4a2.84,2.84,0,0,1-2.88,2,2.62,2.62,0,0,1-2.83-2,11.68,11.68,0,0,1,.17-7.89,3,3,0,0,1,2.91-2,3.29,3.29,0,0,1,2.47,2,9.18,9.18,0,0,1,.64,4.27A9.51,9.51,0,0,1,711.22,534.14Z"/><path class="cls-1" d="M566.78,525c-1.15-3.11-4.6-5.34-7.43-4.93-4.09.61-6.47,2.91-6.79,6.83a45.41,45.41,0,0,0,0,6.7c.3,4.51,2.5,6.42,7.14,6.44,4.07.49,6.56-1.74,7.56-5.66A15.26,15.26,0,0,0,566.78,525ZM563,533.5a3.16,3.16,0,0,1-6.08.58,11.51,11.51,0,0,1,.18-7.85,3,3,0,0,1,2.9-2,3.37,3.37,0,0,1,2.95,2.68,35.59,35.59,0,0,1,.2,3.58C563.05,531.61,563.07,532.56,563,533.5Z"/><path class="cls-1" d="M263.65,525.9a7.2,7.2,0,0,0-7.2-5.86,7.11,7.11,0,0,0-7,6.57,38.72,38.72,0,0,0,0,4.31h0c0,.8,0,1.61,0,2.4-.31,3.84,2,6.59,6.72,7.22,3.11.42,7.31-1.91,7.7-5.66A27.06,27.06,0,0,0,263.65,525.9Zm-4.6,8.92a2.39,2.39,0,0,1-2.32,1.34,2.74,2.74,0,0,1-2.75-1.45,7.76,7.76,0,0,1-.76-4.15A8.65,8.65,0,0,1,254,526a3,3,0,0,1,2.63-1.73,2.76,2.76,0,0,1,2.54,1.87A10.87,10.87,0,0,1,259.05,534.82Z"/><path class="cls-1" d="M356.88,530.25a34,34,0,0,0-.23-4.3c-.59-3.31-2.95-5.32-6.65-5.9a7.34,7.34,0,0,0-7.06,4,24.43,24.43,0,0,0-1.33,6,13.07,13.07,0,0,0,1.3,6.49c1.3,3,4,3.66,7.18,3.48,4-.24,6.22-2,6.66-6a34.76,34.76,0,0,0,0-3.82Zm-4.56,4.14a3,3,0,0,1-3.5,1.73,2.6,2.6,0,0,1-2.42-2.49,53.83,53.83,0,0,1,0-6.6,3.24,3.24,0,0,1,2.83-2.79c1.23-.21,2.49.74,3.19,2.28a14,14,0,0,1-.09,7.87Z"/><path class="cls-1" d="M243.2,524.08a7.42,7.42,0,0,0-5.57-3.27c-.94-.09-1.9,0-2.86,0v0c-.63,0-1.27,0-1.91,0-2.19.11-2.64.44-2.66,2.46-.06,4.93,0,9.86,0,14.79a1.69,1.69,0,0,0,1.72,1.88,54.57,54.57,0,0,0,5.72,0,7.26,7.26,0,0,0,5.57-3.26A11.92,11.92,0,0,0,243.2,524.08Zm-3.62,10.39a3.51,3.51,0,0,1-3.2,1.67c-1.42,0-2.22-.49-2.25-1.82-.06-2.68,0-5.37,0-8.05,0-1.09.77-1.61,1.89-1.67a3.69,3.69,0,0,1,3.83,2.19,6.92,6.92,0,0,1,.84,3.69A6.32,6.32,0,0,1,239.58,534.47Z"/><path class="cls-1" d="M498,531v-5.26a8.19,8.19,0,0,1,.52-3.28c.4-.94,1-1.68,2.06-1.69,3,0,6,0,9.07,0a1.51,1.51,0,0,1,1.53,1.52,1.67,1.67,0,0,1-1.48,2c-1.75.12-3.51.09-5.25.2a1.9,1.9,0,0,0,0,3.77c1.27.09,2.55.06,3.82.12a1.7,1.7,0,0,1,1.82,1.77,1.67,1.67,0,0,1-1.65,1.92c-1.42.11-2.86.08-4.29.2-.93.08-1.31.76-1.38,1.64-.09,1.14.45,2,1.48,2.05,1.75.11,3.5.08,5.25.19a1.64,1.64,0,0,1,1.68,1.88,1.61,1.61,0,0,1-1.79,1.76c-2.87.07-5.74.1-8.61,0-1.82-.06-2.6-.82-2.7-2.67-.12-2.06,0-4.14,0-6.21Z"/><path class="cls-1" d="M123.84,530.5a30.68,30.68,0,0,1,0-4.29,7.31,7.31,0,0,1,5.86-6.18,7.87,7.87,0,0,1,7.73,3.73,3.6,3.6,0,0,1,.43,2.75,2.14,2.14,0,0,1-1.59,1.61,1.83,1.83,0,0,1-2.15-.58,7,7,0,0,1-.86-1.68,2.05,2.05,0,0,0-2.32-1.25,2.34,2.34,0,0,0-2.36,2,22.87,22.87,0,0,0,0,7.61,2.34,2.34,0,0,0,2.44,1.89,2,2,0,0,0,2.25-1.35,5.93,5.93,0,0,1,.58-1.31,2,2,0,0,1,2.5-.82A2.25,2.25,0,0,1,138,534.8a3.89,3.89,0,0,1-.61,2.27,7.16,7.16,0,0,1-7.75,3.33c-3.75-.95-5.51-2.89-5.85-6.55-.1-1.11,0-2.23,0-3.35Z"/><path class="cls-1" d="M282.94,520.9c1.75,0,3.51-.08,5.25,0,.92.07,1.26.87,1.24,1.75s-.36,1.61-1.31,1.69c-1.9.16-3.81.16-5.72.32a1.72,1.72,0,0,0-1.36,2.14c.1.67.41,1.29,1.1,1.39,1.26.17,2.54.16,3.81.29a1.85,1.85,0,0,1-.2,3.68c-1.11.07-2.23.08-3.34.2-.93.1-1.31.78-1.37,1.66a1.67,1.67,0,0,0,1.53,2c1.74.12,3.5.09,5.25.2a1.64,1.64,0,0,1,1.61,1.94c-.07.88-.47,1.61-1.4,1.63-3.34.06-6.69.09-10,0a1.71,1.71,0,0,1-1.67-1.94q0-7.65,0-15.32a1.71,1.71,0,0,1,1.83-1.79c1.59-.06,3.19,0,4.78,0Z"/><path class="cls-1" d="M52.78,530.35c0-2.55,0-5.1,0-7.64a1.7,1.7,0,0,1,1.73-1.88c3.34,0,6.68,0,10,0a1.32,1.32,0,0,1,1.28,1.2,1.81,1.81,0,0,1-1,2,7.07,7.07,0,0,1-2.31.44c-1.26.12-2.55.06-3.8.24-.91.13-1.21.92-1.2,1.78s.33,1.61,1.26,1.74c1.25.17,2.53.15,3.79.29a1.56,1.56,0,0,1,1.47,1.58,1.66,1.66,0,0,1-1.51,2c-1.11.11-2.23.07-3.34.17a1.91,1.91,0,0,0,0,3.8c1.43.1,2.87,0,4.29.16a3.76,3.76,0,0,1,1.7.69,1.62,1.62,0,0,1,.61,1.7,1.38,1.38,0,0,1-1.28,1.19,11.33,11.33,0,0,1-1.43.11c-2.54,0-5.09,0-7.64,0-2.32-.06-2.65-.43-2.72-2.9-.06-2.23,0-4.46,0-6.69Z"/><path class="cls-1" d="M328,530.21a10,10,0,0,0,.58,4.22,2.7,2.7,0,0,0,4.66.64c.47-.61.63-1.45,1.07-2.1a1.65,1.65,0,0,1,1.76-.46,1.56,1.56,0,0,1,1.4,1.11c.76,2.86-.32,5.19-3,6.19-1.47.55-3,1.19-4.65.81-2.85-.64-4.81-2-5.66-5.08a16.44,16.44,0,0,1,.07-10.31,7.44,7.44,0,0,1,11.31-3.88,5.09,5.09,0,0,1,1.88,5.92,1.64,1.64,0,0,1-1.51,1,1.68,1.68,0,0,1-1.71-.6c-.44-.65-.58-1.51-1.06-2.11a2.61,2.61,0,0,0-4.38.49C328.07,527.31,328,527.68,328,530.21Z"/><path class="cls-1" d="M225.33,538a18.89,18.89,0,0,0-.51-2.8c-1.11-4-2.25-8-3.39-12-.59-2-1.35-2.56-3.46-2.49-1.65.06-2.47.55-2.87,2q-2,7.37-3.92,14.77c-.4,1.53.45,2.41,2.06,2.4a2.71,2.71,0,0,0,2.4-1.19c1.69-2.24,3.57-2.39,5.45-.6.46.43.74,1.07,1.23,1.43a2.15,2.15,0,0,0,2.28.06A1.5,1.5,0,0,0,225.33,538Zm-5.88-5.79a1.18,1.18,0,0,1-1.39.9,1.09,1.09,0,0,1-1.1-1.22c.19-1.19.6-2.35,1-4C219.37,529.5,219.79,530.77,219.45,532.22Z"/><path class="cls-1" d="M470.89,538c-1-5.43-2.85-10.67-4.41-16-.36-1.22-1.72-1.24-2.87-1.22a2.24,2.24,0,0,0-2.34,1.28c-.52,1.33-1,2.67-1.44,4-1,3.5-1.94,7-2.88,10.55a8.39,8.39,0,0,0-.25,1.4,1.58,1.58,0,0,0,1.65,1.86,2.83,2.83,0,0,0,2.87-1.16c1.63-2.25,3.53-2.37,5.43-.6.46.43.74,1.07,1.24,1.42a2.16,2.16,0,0,0,2.27.07A1.49,1.49,0,0,0,470.89,538Zm-5.81-6a1.29,1.29,0,1,1-2.55-.38c.3-1.16.7-2.3,1.1-3.59A4.44,4.44,0,0,1,465.08,532Z"/><path class="cls-1" d="M597.58,530.09c0-2.39-.05-4.79,0-7.18,0-1.5.57-2.06,2-2.1,2.87-.07,5.74,0,8.61,0a1.61,1.61,0,0,1,1.71,1.84,1.67,1.67,0,0,1-1.77,1.8c-1.59.09-3.19,0-4.78.12a1.7,1.7,0,0,0-1.83,1.76c-.09,1.34.47,1.95,2,2.06,1.27.08,2.56,0,3.82.15a1.55,1.55,0,0,1,1.46,1.6,1.65,1.65,0,0,1-1.54,2c-1.43.12-2.86.09-4.29.21a1.54,1.54,0,0,0-1.46,1.59c-.11,1.13.43,2,1.41,2.1,1.75.12,3.51.1,5.25.21a1.66,1.66,0,0,1,1.73,1.85,1.63,1.63,0,0,1-1.77,1.79c-2.87.06-5.74.07-8.61,0-1.42,0-1.93-.6-2-2.14-.07-2.55,0-5.11,0-7.66Z"/><path class="cls-1" d="M200.75,520.77c1.44,0,2.88,0,4.32,0,1.6.08,2.17.9,2.1,2.51a6.09,6.09,0,0,1-1.26,3c-1.55,2.42-3,4.87-4.53,7.33-1,1.69-.73,2.35,1.07,2.49,1.11.09,2.24.06,3.34.19s1.27.86,1.28,1.72-.35,1.7-1.27,1.72c-3.51.08-7,.08-10.53,0a1.68,1.68,0,0,1-1.3-2.17,9.42,9.42,0,0,1,1-2.15c1.67-2.72,3.4-5.4,5.09-8.11,1.35-2.18,1.08-2.74-1.35-2.85-.8,0-1.6,0-2.4-.08a2.88,2.88,0,0,1-1.33-.44,1.87,1.87,0,0,1-.83-2.07,1.37,1.37,0,0,1,1.38-1.1c1.75,0,3.51,0,5.26,0Z"/><path class="cls-1" d="M165.64,538c-1.44-5-3-10-4.37-15.06-.54-1.94-1.41-2.15-3.14-2.13-2,0-2.3.18-2.93,2.38-1.39,4.87-2.68,9.77-4,14.67-.43,1.65.21,2.26,1.95,2.13a3.09,3.09,0,0,0,2.08-.91c2.9-2.8,3.64-2.8,6.41-.14a3.29,3.29,0,0,0,2,1C165.09,540,166,539.2,165.64,538Zm-8-4.06c-.27-.08-.71-.35-.7-.52a9.58,9.58,0,0,1,1.18-4.92c.08-.13.72-.1.75,0,.5,1.31.93,2.64,1.17,3.35C160.05,533.58,158.85,534.3,157.6,533.89Z"/><path class="cls-1" d="M101.94,524.3c-1-2.25-2.58-3.59-5.16-3.54-2.23,0-4.46,0-6.69.06a1.71,1.71,0,0,0-1.83,1.8c0,2.55,0,5.1,0,7.66h0c0,2.39,0,4.78,0,7.18,0,1.71.49,2.26,1.69,2.39,1.38.14,2.09-.44,2.12-2.42.06-3.24.89-3.25,3.27-3.61a23.09,23.09,0,0,0,2.32-.57A6.34,6.34,0,0,0,101.94,524.3Zm-4.17,4.58a4.27,4.27,0,0,1-2.46,1.33c-2.28.37-3.22-.43-3.2-2.81s.53-2.87,2.74-2.84a8.53,8.53,0,0,1,1.89.17A2.42,2.42,0,0,1,97.77,528.88Z"/><path class="cls-1" d="M399,526.12a5.49,5.49,0,0,0-5.14-5.3c-2.38-.15-4.78-.08-7.17,0-1.42,0-1.94.6-2,2.12-.07,2.55,0,5.11,0,7.66h0v6.69a7.75,7.75,0,0,0,.07,1,1.78,1.78,0,0,0,1.94,1.66c1.5.08,2.38-.4,2.51-1.55s.1-2.23.2-3.33a1.68,1.68,0,0,1,1.49-1.61c.63-.09,1.27-.07,1.9-.13C397.38,532.87,399.31,530.65,399,526.12Zm-4.9,3.16a8.17,8.17,0,0,1-1.72.81c-2.74.72-3.93-.23-3.84-3,.08-2.2.93-3.24,2.65-3.23a3.78,3.78,0,0,1,3.9,3.42A2.08,2.08,0,0,1,394.1,529.28Z"/><path class="cls-1" d="M448.61,520.83c1.74,0,3.49,0,5.23,0a1.54,1.54,0,0,1,1.54,1.5,1.7,1.7,0,0,1-1.42,2.07c-.3.09-.64.05-.94.12-2.13.53-2.26.63-2.31,2.84-.06,2.7,0,5.4,0,8.1a14.56,14.56,0,0,1-.23,3.31c-.29,1.11-1.37,1.14-2.35,1.11s-1.6-.26-1.85-1.15a7,7,0,0,1-.19-1.88c0-2.07,0-4.13,0-6.19v-3.34c0-1.7-.32-2.61-2.33-2.86s-2.53-1-2.36-2.15.71-1.51,2.5-1.56c1.58,0,3.17,0,4.76,0Z"/><path class="cls-1" d="M785.18,520.8c1.76,0,3.52,0,5.28,0a1.61,1.61,0,0,1,1.69,1.87,1.56,1.56,0,0,1-1.32,1.7,11.4,11.4,0,0,1-1.43.18c-1.42.09-1.89,1-1.9,2.25,0,2.88,0,5.76,0,8.63a19.53,19.53,0,0,1-.22,3.34c-.18.91-1,1.1-1.89,1.12s-2-.06-2.33-1.2a7,7,0,0,1-.19-1.89c0-2.24,0-4.48,0-6.72,0-1.12,0-2.24,0-3.35a1.94,1.94,0,0,0-2-2.18l-1-.09a1.84,1.84,0,0,1,.08-3.68c1.76-.06,3.52,0,5.27,0Z"/><path class="cls-1" d="M542.23,520.77c1.75,0,3.5,0,5.25,0,.84,0,1.62.3,1.78,1.23a2,2,0,0,1-1.32,2.25,1,1,0,0,1-.44.15c-2.31,0-2.9,1.35-2.83,3.44.1,3.18,0,6.37,0,9.55,0,2.29-1.07,2.68-3.07,2.46a1.58,1.58,0,0,1-1.49-1.57c-.08-1.11-.09-2.22-.1-3.34,0-2.54,0-5.09,0-7.63-.06-2.23-.12-2.25-2.36-2.79a6.84,6.84,0,0,1-1.39-.27,1.75,1.75,0,0,1-.89-2c.09-.67.47-1.3,1.15-1.33,1.91-.07,3.81,0,5.72,0Z"/><path class="cls-1" d="M169.86,530c0-2.39,0-4.79,0-7.18,0-1.41.7-2,2.1-2,1.71-.07,2.39.46,2.48,2.12s0,3.19,0,4.79c0,1.91,0,3.83,0,5.74.07,2.16.42,2.53,2.44,2.71.95.09,1.91.06,2.85.18s1.28.84,1.29,1.71-.32,1.7-1.24,1.73c-2.86.09-5.73.08-8.59,0a1.52,1.52,0,0,1-1.38-1.67c0-2.71,0-5.42,0-8.13Z"/><path class="cls-1" d="M696.21,530.7c0,2.54,0,5.08,0,7.62,0,1.15-1,1.65-2.45,1.59-1.06,0-1.9-.39-2-1.57s-.11-2.54-.11-3.8c0-4,0-7.95.07-11.91,0-1.31.8-1.84,2.25-1.85s2.24.53,2.28,1.83c.07,2.69,0,5.39,0,8.09Z"/><path class="cls-1" d="M185.21,529.94c0-2.38-.05-4.76,0-7.13,0-1.4.71-2,2.09-2,1.69-.07,2.44.47,2.46,2.12q.09,7.37,0,14.75c0,1.71-.72,2.28-2.34,2.25-1.43,0-2.18-.57-2.21-1.89-.07-2.69,0-5.39,0-8.09Z"/><path class="cls-1" d="M146.66,530.55c0,2.56,0,5.11,0,7.67,0,1.13-.79,1.68-1.93,1.62s-1.81-.59-1.82-1.77c0-5.11,0-10.23,0-15.34a1.69,1.69,0,0,1,1.27-1.79,1.79,1.79,0,0,1,2.46,1.46c.08,2.72,0,5.43,0,8.15Z"/><path class="cls-1" d="M726.49,533.32c-1.66-.08-3.23-.1-4.8-.24a1.2,1.2,0,0,1-1.07-1.31,1.22,1.22,0,0,1,1.15-1.26,52.7,52.7,0,0,1,9.89.08c.31,0,.69.63.8,1a1.08,1.08,0,0,1-.87,1.41C729.87,533.22,728.14,533.24,726.49,533.32Z"/></g></g></svg>